<?xml version="1.0" encoding="UTF-8"?>
<svg width="22px" height="22px" viewBox="0 0 22 22" version="1.1" xmlns="http://www.w3.org/2000/svg" xmlns:xlink="http://www.w3.org/1999/xlink">
    <title>close_icon</title>
    <g id="页面-1" stroke="none" stroke-width="1" fill="none" fill-rule="evenodd">
        <g id="广告主_投放管理_创意" transform="translate(-461.000000, -79.000000)">
            <g id="input" transform="translate(440.000000, 56.000000)">
                <g id="left">
                    <g id="close">
                        <g id="close_icon" transform="translate(21.000000, 23.000000)">
                            <rect id="矩形" fill="#D8D8D8" opacity="0" x="0" y="0" width="22" height="22"></rect>
                            <g id="close" transform="translate(3.000000, 3.000000)" fill="#FFFFFF" fill-rule="nonzero">
                                <path d="M9.19588361,7.9485866 L15.6670271,1.47744315 C15.9936741,1.15079607 15.9936741,0.61226981 15.6670271,0.285622733 L15.6317139,0.250309535 C15.3050668,-0.0763375417 14.7665405,-0.0763375417 14.4398935,0.250309535 L7.96875,6.73028128 L1.49760655,0.250309535 C1.17095947,-0.0763375417 0.63243321,-0.0763375417 0.305786133,0.250309535 L0.270472935,0.285622733 C-0.0650024415,0.61226981 -0.0650024415,1.15079607 0.270472935,1.47744315 L6.74161639,7.9485866 L0.270472935,14.4197301 C-0.056174142,14.7463771 -0.056174142,15.2849034 0.270472935,15.6115505 L0.305786133,15.6468637 C0.63243321,15.9735107 1.17095947,15.9735107 1.49760655,15.6468637 L7.96875,9.17572021 L14.4398935,15.6468637 C14.7665405,15.9735107 15.3050668,15.9735107 15.6317139,15.6468637 L15.6670271,15.6115505 C15.9936741,15.2849034 15.9936741,14.7463771 15.6670271,14.4197301 L9.19588361,7.9485866 Z" id="路径"></path>
                            </g>
                        </g>
                    </g>
                </g>
            </g>
        </g>
    </g>
</svg>