<?xml version="1.0" encoding="UTF-8"?>
<svg width="22px" height="22px" viewBox="0 0 22 22" version="1.1" xmlns="http://www.w3.org/2000/svg" xmlns:xlink="http://www.w3.org/1999/xlink">
    <title>detail_icon</title>
    <g id="页面-1" stroke="none" stroke-width="1" fill="none" fill-rule="evenodd">
        <g id="广告主_投放管理_创意" transform="translate(-461.000000, -132.000000)">
            <g id="input" transform="translate(440.000000, 56.000000)">
                <g id="left">
                    <g id="detail" transform="translate(0.000000, 64.000000)">
                        <g id="编组-3" transform="translate(20.000000, 12.000000)">
                            <g id="detail_icon" transform="translate(1.000000, 0.000000)">
                                <rect id="矩形" fill="#D8D8D8" opacity="0" x="0" y="0" width="22" height="22"></rect>
                                <g transform="translate(2.000000, 4.000000)" fill="#FFFFFF" fill-rule="nonzero" id="形状">
                                    <path d="M17.535668,0.0184811828 L4.80222715,0.0184811828 C4.57190457,0.0184811828 4.37852823,0.224072581 4.37852823,0.454459677 L4.37852823,1.23648118 C4.37852823,1.46686828 4.57190457,1.63138441 4.80222715,1.63138441 L17.535668,1.63138441 C17.7659691,1.63138441 17.9484207,1.46716935 17.9484207,1.23671774 L17.9484207,0.454696237 C17.9484207,0.224287634 17.7659691,0.0184811828 17.535668,0.0184811828 Z M17.535668,6.12600806 L4.80222715,6.12600806 C4.57190457,6.12600806 4.37852823,6.29770699 4.37852823,6.52809409 L4.37852823,7.3101371 C4.37852823,7.54048118 4.57190457,7.73891129 4.80222715,7.73891129 L17.535668,7.73891129 C17.7659691,7.73891129 17.9484207,7.54078226 17.9484207,7.31033065 L17.9484207,6.52833065 C17.9484207,6.29794355 17.7659691,6.12600806 17.535668,6.12600806 L17.535668,6.12600806 Z M17.535668,12.1690188 L4.80222715,12.1690188 C4.57190457,12.1690188 4.37852823,12.3713414 4.37852823,12.6017715 L4.37852823,13.383793 C4.37852823,13.6140941 4.57190457,13.781922 4.80222715,13.781922 L17.535668,13.781922 C17.7659691,13.781922 17.9484207,13.6144167 17.9484207,13.3839866 L17.9484207,12.6019866 C17.9484207,12.3715565 17.7659691,12.1690188 17.535668,12.1690188 L17.535668,12.1690188 Z M2.92549597,0.0184811828 L0.370915323,0.0184811828 L2.977625,0.0184811828 L0.422936828,0.0184811828 C0.192614247,0.0184811828 0.0129368281,0.224072581 0.0129368281,0.454459677 L0.0129368281,1.23648118 C0.0129368281,1.46686828 0.192614247,1.63138441 0.422936828,1.63138441 L2.977625,1.63138441 L0.370915323,1.63138441 L2.92549597,1.63138441 C3.15581855,1.63138441 3.34627016,1.46716935 3.34627016,1.23671774 L3.34627016,0.454696237 C3.34627016,0.224287634 3.15581855,0.0184811828 2.92549597,0.0184811828 Z M2.92549597,6.12600806 L0.370915323,6.12600806 L2.977625,6.12600806 L0.422936828,6.12600806 C0.192614247,6.12600806 0.0129368281,6.32377151 0.0129368281,6.55418011 L0.0129368281,7.33624462 C0.0129368281,7.5665672 0.192614247,7.7389328 0.422936828,7.7389328 L2.977625,7.7389328 L0.370915323,7.7389328 L2.92549597,7.7389328 C3.15581855,7.7389328 3.34627016,7.56688979 3.34627016,7.33643817 L3.34627016,6.55439516 C3.34627016,6.32400806 3.15581855,6.12600806 2.92549597,6.12600806 L2.92549597,6.12600806 Z M2.92549597,12.1690188 L0.370915323,12.1690188 L2.977625,12.1690188 L0.422936828,12.1690188 C0.192614247,12.1690188 0.0129368281,12.3713414 0.0129368281,12.6017715 L0.0129368281,13.383793 C0.0129368281,13.6140941 0.192614247,13.781922 0.422936828,13.781922 L2.977625,13.781922 L0.370915323,13.781922 L2.92549597,13.781922 C3.15581855,13.781922 3.34627016,13.6144167 3.34627016,13.3839866 L3.34627016,12.6019866 C3.34627016,12.3715565 3.15581855,12.1690188 2.92549597,12.1690188 Z"></path>
                                </g>
                            </g>
                        </g>
                    </g>
                </g>
            </g>
        </g>
    </g>
</svg>