<?xml version="1.0" encoding="UTF-8"?>
<svg width="192px" height="56px" viewBox="0 0 192 56" version="1.1" xmlns="http://www.w3.org/2000/svg" xmlns:xlink="http://www.w3.org/1999/xlink">
    <title>logo</title>
    <defs>
        <rect id="path-1" x="0" y="0" width="192" height="56"></rect>
        <polygon id="path-3" points="0 0 19.5615734 0 19.5615734 21 0 21"></polygon>
    </defs>
    <g id="保利" stroke="none" stroke-width="1" fill="none" fill-rule="evenodd">
        <g id="logo">
            <mask id="mask-2" fill="white">
                <use xlink:href="#path-1"></use>
            </mask>
            <use id="蒙版" fill="#FFFFFF" xlink:href="#path-1"></use>
            <g id="编组" mask="url(#mask-2)">
                <g transform="translate(26.000000, 18.000000)">
                    <path d="M57.0988397,0.568963044 C57.6826607,0.713821294 57.919615,0.883061625 57.8767919,1.53994359 C57.5456269,5.02801549 57.9281796,9.8112062 58.106609,13.8858823 C58.1765534,15.6471291 58.5905096,18.3521059 58.1480046,20.0832337 C57.7226289,20.6368504 57.9039132,20.3686475 57.6912254,20.3958981 C57.1131141,20.3958981 56.5878179,19.2685854 56.4764779,18.7938519 C56.8961439,18.4611082 57.0003467,17.9232682 57.0003467,17.1788975 L56.7248516,10.6774872 C56.6977304,8.91050342 56.6763188,7.13634842 56.6477701,5.37797007 C56.607802,4.33814601 56.2552254,1.8267916 56.7605375,0.934694268 C56.8033606,0.883061625 56.8433288,0.835731701 56.8818695,0.778362098 L56.9917821,0.666491371 L57.0988397,0.568963044 Z M49.6861682,1.3721375 C50.5754603,1.45532342 52.2783907,1.95157049 52.5524582,3.45035139 C52.2469871,4.13161543 51.2049593,4.38117321 50.7638818,4.75264139 C50.3699097,6.06640532 50.0630111,7.43036764 51.0065458,7.59100253 C51.0879096,7.59243677 51.0322396,7.66558302 51.2049593,7.66558302 C51.830176,7.66558302 53.1334244,7.87641631 53.407492,7.91800927 C53.528824,7.81761247 54.7492812,6.91690969 54.7492812,6.99292442 C54.3410347,7.38734044 54.0027325,7.95386528 53.902812,8.18764641 C53.8999572,8.22350241 53.8642713,8.20198881 53.8642713,8.20198881 C53.8642713,8.20198881 53.9170864,8.16900129 54.0726768,8.2478845 C54.2810824,8.60070756 55.305981,8.18764641 55.6856787,10.0435531 C55.6856787,10.6832242 55.2260446,11.0991538 54.6279492,10.9098341 C53.0820367,10.4365349 52.9863986,10.2543864 52.5524582,10.1769374 C52.0442913,10.6774872 50.3013928,12.450208 49.8845817,13.0683654 C49.3221721,14.367787 50.0358898,19.2585457 49.1066294,19.6601329 C48.8354167,19.7232395 48.4171782,20.1348664 48.3129754,19.6988574 C48.32154,18.5600708 48.2744346,15.7317493 48.1473929,15.192475 C47.7948164,13.7295501 45.6765024,16.679782 44.6016436,15.6887221 C44.4374885,15.5280872 44.294745,15.1250657 44.4888762,14.7033991 C45.5237668,13.6363245 46.6157548,11.9568294 46.898387,11.4103839 C47.1010828,11.0676005 48.3329595,9.6147153 47.5007647,9.38093417 C46.9554844,9.23033896 46.2546137,9.47129129 45.7607211,9.72658603 C44.999898,10.1281733 44.3075919,11.0676005 43.1627888,10.5354974 C41.6596994,9.8112062 41.8466934,9.36515753 43.0214727,8.82158053 C43.4925264,8.58636516 44.1134607,8.19912033 44.6944269,8.23927906 C44.8157589,8.22350241 45.9405779,8.14175073 46.0376435,8.13457953 C46.3930749,7.9796816 47.3879973,8.0227088 47.8504863,7.56088349 C47.8504863,7.08615002 48.2344664,6.54544151 47.7948164,6.03915475 C47.3109158,5.47693264 46.2546137,6.53109911 45.3067966,6.13955156 C44.7786456,6.09365588 44.0706377,5.30912655 44.206244,5.18004494 C49.0795081,1.84687097 48.9781602,1.7048812 49.6861682,1.3721375 L49.6861682,1.3721375 Z M51.1649911,7.75163742 C50.8623748,7.91800927 50.4584107,8.22350241 50.1543669,8.88612134 C50.1657864,9.45694889 49.5177308,10.3519147 49.9745101,11.0676005 C50.6739534,11.2726968 51.7987724,10.0736721 52.2983748,9.43543529 C52.07284,8.78572453 51.6132058,8.11019745 51.1649911,7.75163742 L51.1649911,7.75163742 Z" id="Fill-1" fill="#85654E"></path>
                    <path d="M37.7559493,1.98785677 C38.348335,2.15566286 39.4360407,3.01907539 39.1776749,3.763446 C38.9278737,4.1105321 38.7009115,4.45331549 38.4568201,4.79609887 C38.282673,5.21919969 38.3040845,5.84452837 37.9315239,6.15575847 C37.3948082,6.58316202 36.1829156,6.54874026 35.7461204,7.15685806 C35.9759375,7.47956208 36.1615041,7.5412344 36.1258182,8.00019123 C36.0701482,8.72735096 35.9231224,9.28240187 36.285691,9.25801979 C36.7738739,9.20925563 37.4576154,9.04575226 38.2769632,8.99268538 C38.5181998,8.94248697 39.4988479,8.72735096 40.0683945,8.81914232 C40.2982116,8.84926137 40.4909154,8.99842234 40.5051897,9.15188603 C40.5480128,9.64239614 39.6087604,9.58789501 39.2761679,9.6194483 C38.3911581,9.68255486 37.1178858,9.72127934 36.3484981,10.1816704 C35.9530986,11.1512167 36.8024226,17.6454558 36.0473093,19.390926 C35.5791105,20.4565664 34.2116275,19.3478988 34.1830788,18.2966009 L34.7483432,18.4371564 C35.269357,18.3754841 35.292196,18.3467993 35.4278024,17.843381 C35.7889435,16.5425252 35.47919,11.6560692 35.269357,10.5230196 C34.6712616,10.4154515 30.4788842,11.2300999 29.9835641,11.5269876 C29.7508921,11.547067 29.6081486,11.9171009 29.533922,12.5252187 C29.4625502,14.9203997 29.9364587,20.3690778 29.0457391,20.4364871 C28.7973654,20.447961 28.4276596,20.4006311 28.2949081,19.9359373 C28.2121169,18.3926949 28.166439,14.8515562 28.1421726,14.0899747 C28.1036318,13.3326959 28.2734966,9.97657408 27.4512939,9.90486207 C26.2436836,9.79012287 25.9196558,12.4936654 24.6849242,12.3143854 C24.3009441,12.2670555 24.0811191,11.8296123 24.205306,11.4667495 L25.7141051,9.58789501 C27.0487571,7.61438065 28.5832501,5.19194913 28.8601725,3.1266434 C28.9615204,2.71645073 29.2955403,2.34354831 29.7508921,2.38514127 C30.5117152,2.4324712 30.9113971,2.72218769 30.934236,3.1983554 C30.8271784,4.55084381 28.5118783,7.57278768 28.4876119,8.46631926 C28.9615204,8.61978295 29.015763,9.15188603 29.30125,9.56494717 C29.6623912,10.0755366 29.3397908,10.4613472 30.0406615,10.5058087 C30.8928404,10.1816704 33.7448561,9.85896639 35.1837109,9.25801979 C35.2493729,8.68002104 35.2079773,8.0848114 35.1508799,7.56131376 C35.1366056,7.42936368 35.1251861,7.42936368 35.269357,7.31892719 C35.0195559,7.26155758 34.2630152,7.56131376 33.9618263,7.49247024 C33.0254287,7.27303151 32.2817349,5.72405221 32.3859377,4.80900703 C32.5286813,4.41745948 32.6842717,3.99866138 32.832725,3.60711383 C32.9683313,3.1983554 33.0825262,2.7652149 33.5307408,2.60888273 L34.0046494,2.53430224 L34.3557984,2.50561744 L34.7069475,2.48553808 L35.0195559,2.44537936 L35.8232019,2.36506191 L36.1258182,2.32346895 L37.7559493,1.98785677 Z M31.8763433,13.3427356 C32.0462081,13.4488693 32.1418463,13.5808194 32.2332021,13.8131663 C32.1361365,14.7913181 32.1989437,16.9814027 31.0584229,16.4794187 C29.7880055,15.4883588 31.3938702,13.757231 31.8763433,13.3427356 L31.8763433,13.3427356 Z M38.8593568,12.7762107 C40.2553886,12.5797198 41.5843308,13.5851221 40.9819531,14.9863747 C40.8006689,15.1728259 40.2439691,15.3320266 39.8414323,15.2144189 C39.0377863,14.9863747 38.3426253,13.9049577 37.9315239,13.2896687 C38.0057505,13.0903093 38.1584861,12.9597935 38.8593568,12.7762107 L38.8593568,12.7762107 Z M36.0044862,3.0477602 C35.7661045,3.19261844 35.2850588,3.41205718 35.0252656,3.82368408 C34.6284386,4.44614428 34.6455678,5.37409762 35.4492139,5.58923364 C36.0044862,5.73982885 36.7753013,4.36152412 36.8823589,3.59563991 C36.7910031,3.1266434 36.4712576,3.17540756 36.0044862,3.0477602 L36.0044862,3.0477602 Z" id="Fill-3" fill="#85654E"></path>
                    <g id="编组" stroke-width="1" fill="none">
                        <mask id="mask-4" fill="white">
                            <use xlink:href="#path-3"></use>
                        </mask>
                        <g id="Clip-6"></g>
                        <path d="M5.94955036,9.73404408 L5.94955036,12.9137544 C5.94955036,16.7259645 3.4486837,19.912846 0,21 L0,9.73404408 C0,4.35851221 4.38079896,-0.000143424009 9.77650441,-0.000143424009 C15.1879117,-0.000143424009 19.5615734,4.36424918 19.5615734,9.73404408 C19.5615734,15.1009705 15.1879117,19.4581919 9.77650441,19.4581919 L7.13860397,19.4581919 L7.13860397,11.5440551 L8.02218642,11.5440551 L8.02218642,11.9384711 L8.42900549,11.9384711 L8.42900549,11.5440551 L9.31972512,11.5440551 L9.31972512,11.9384711 L9.71369726,11.9384711 L9.71369726,11.5440551 L10.6058443,11.5440551 L10.6058443,11.9384711 L11.0055262,11.9384711 L11.0055262,11.5440551 L11.9019556,11.5440551 L11.9019556,12.9137544 C12.9382736,12.2339246 13.614878,11.0564134 13.614878,9.73404408 C13.614878,7.62284266 11.9019556,5.91322847 9.77650441,5.91322847 C7.66247273,5.91322847 5.94955036,7.62284266 5.94955036,9.73404408" id="Fill-5" fill="#85654E" mask="url(#mask-4)"></path>
                    </g>
                    <path d="M63.9071351,6.4593871 C62.4497237,6.4593871 61.2578152,5.27327055 61.2578152,3.81608261 C61.2578152,2.35746044 62.4497237,1.17851508 63.9071351,1.17851508 C65.3731112,1.17851508 66.5635922,2.35746044 66.5635922,3.81608261 C66.5635922,5.27327055 65.3731112,6.4593871 63.9071351,6.4593871 M63.9071351,0.801309939 C62.2427456,0.801309939 60.8881095,2.15236411 60.8881095,3.81608261 C60.8881095,5.47262992 62.2427456,6.8279868 63.9071351,6.8279868 C65.5872265,6.8279868 66.9475723,5.47262992 66.9475723,3.81608261 C66.9475723,2.15236411 65.5872265,0.801309939 63.9071351,0.801309939" id="Fill-7" fill="#85654E"></path>
                    <path d="M63.0525296,3.65673854 L63.0525296,2.45771382 L63.617794,2.45771382 C64.3700524,2.45771382 64.7597422,2.65850743 64.7597422,3.05866042 C64.7597422,3.45307644 64.3900365,3.65673854 63.6934481,3.65673854 L63.0525296,3.65673854 Z M65.6190583,5.34340489 L65.4363466,4.85432901 C65.2807561,4.45991299 65.1594241,4.21465793 65.0580762,4.11712961 C64.9510186,4.01386432 64.7468953,3.9450208 64.4128755,3.87904575 L64.3429311,3.86470335 L64.434287,3.86040063 C65.040947,3.75713534 65.3549828,3.44016828 65.3549828,2.93388153 C65.3549828,2.31715829 64.8039927,2.02457331 63.7205693,2.02457331 L62.460144,2.02457331 L62.460144,5.60443658 L63.0525296,5.60443658 L63.0525296,4.05689152 L63.552132,4.05689152 C63.9189829,4.05689152 64.1973327,4.11712961 64.3886091,4.2347373 C64.5670385,4.3494765 64.6983625,4.56317828 64.8225494,4.85432901 L65.008116,5.39073481 L65.1023267,5.60443658 L65.7218336,5.60443658 L65.6190583,5.34340489 Z" id="Fill-9" fill="#85654E"></path>
                    <path d="M82.2030017,6.260458 C81.7305206,5.58349668 80.7298885,4.43036764 79.9819124,3.60711383 L81.3122821,2.8225845 C82.0574033,3.58990295 83.0765921,4.70574174 83.5690573,5.36405794 L82.2030017,6.260458 Z M75.8866005,11.6560692 C76.5603499,12.9182005 77.4339403,13.9967491 78.5259283,14.9117942 C79.5636738,14.0153942 80.4386917,12.9368456 81.0553437,11.6560692 L75.8866005,11.6560692 Z M83.4049022,10.4670842 C82.6769102,12.771908 81.4578805,14.5647081 79.9462265,15.9358417 C81.4578805,16.8680977 83.2778605,17.545059 85.3890373,17.9294354 C85.0064846,18.2951666 84.5525602,19.0094182 84.3141785,19.4655065 C82.0574033,18.9893388 80.1646241,18.1675192 78.5815983,17.0330353 C76.9600318,18.1488741 75.1029385,18.9176268 73.1202308,19.4468614 C72.9375191,19.0094182 72.5378372,18.3496677 72.2095271,17.9667256 C74.0123779,17.545059 75.7410021,16.8680977 77.1969861,15.8985514 C76.2691531,15.0207965 75.4869186,13.9967491 74.8317258,12.8450543 C73.5741553,14.9304394 71.8997736,16.648659 69.6244418,18.0025816 C69.3874875,17.6368504 68.7879647,16.9785342 68.3697261,16.648659 C71.6271335,14.7827126 73.6112686,11.9314433 74.7946125,8.27126261 L72.3379963,8.27126261 C71.2816942,8.27126261 70.6079447,8.40034422 70.4437896,8.61978295 C70.3353046,8.25405173 70.061237,7.46665392 69.8799527,7.04642157 C70.1340362,6.99192045 70.3524338,6.71798059 70.589388,6.31495912 C70.789229,5.9492279 71.4986643,4.50494813 71.8098452,3.09652436 L73.5927119,3.40632022 C73.2829585,4.52215901 72.7919207,5.69249892 72.3180122,6.64483435 L75.2499643,6.64483435 C75.5597178,5.36405794 75.796672,3.99149018 75.9779563,2.56585552 L77.8536063,2.8584405 C77.6894513,4.19371803 77.4710537,5.45584931 77.1969861,6.64483435 L84.7895145,6.64483435 L84.7695304,8.27126261 L76.7787475,8.27126261 C76.5960358,8.85786681 76.3961949,9.46024765 76.1777973,10.0095616 L81.931789,10.0095616 L82.2572442,9.93641536 L83.4049022,10.4670842 Z" id="Fill-11" fill="#85654E"></path>
                    <path d="M97.5005404,14.0521107 C97.8274231,14.6544916 98.2456616,15.2038055 98.7381268,15.6799732 C99.5760313,15.2038055 100.522421,14.5641344 101.141928,14.0521107 L97.5005404,14.0521107 Z M94.8440833,12.6250418 L98.0843614,12.6250418 L98.0843614,10.9986136 L94.8440833,10.9986136 L94.8440833,12.6250418 Z M102.452313,14.8925754 C101.650095,15.4978247 100.669447,16.1002056 99.8129856,16.539083 C100.832174,17.2346895 102.051204,17.7280681 103.488631,18.0220873 C103.124635,18.3505283 102.689268,18.9715542 102.469443,19.4305111 C99.2662779,18.6244681 97.1179877,16.795812 95.8804013,14.0521107 L93.6778686,14.0521107 L93.6778686,17.3981929 L97.2093436,16.6495195 C97.1365444,17.088397 97.0823018,17.7280681 97.1008585,18.0765884 C92.8042782,19.0633456 92.2218846,19.2282832 91.8578886,19.4649328 L91.8578886,19.4850122 C91.7479761,19.0633456 91.4210934,18.3863843 91.1841392,18.0765884 C91.5481352,17.8743606 92.1133995,17.3981929 92.1133995,16.5577282 L92.1133995,14.0521107 L90.3105487,14.0521107 L90.3105487,12.6250418 L93.295316,12.6250418 L93.295316,10.9986136 L90.7659006,10.9986136 L90.7659006,9.55289956 L93.295316,9.55289956 L93.295316,7.96089305 L94.8440833,7.96089305 L94.8440833,9.55289956 L98.082934,9.55289956 L98.082934,7.96089305 L99.6673872,7.96089305 L99.6673872,9.55289956 L102.525113,9.55289956 L102.525113,10.9986136 L99.6673872,10.9986136 L99.6673872,12.6250418 L103.271661,12.6250418 L103.271661,14.0521107 L101.231856,14.0521107 L102.452313,14.8925754 Z M90.2563062,6.49796816 L100.540978,6.49796816 L100.540978,4.9432519 L90.2563062,4.9432519 L90.2563062,6.49796816 Z M90.2563062,7.94224793 L90.2563062,8.80279199 C90.2563062,11.9308696 89.9822386,16.4659368 88.1080161,19.4477219 C87.7782785,19.1723479 87.0345847,18.7349046 86.5963621,18.569967 C88.3992129,15.7531195 88.5619405,11.7114309 88.5619405,8.80279199 L88.5619405,3.47889277 L102.232488,3.47889277 L102.232488,7.94224793 L90.2563062,7.94224793 Z" id="Fill-13" fill="#85654E"></path>
                    <path d="M117.677053,7.17435579 C118.804727,8.07075584 120.370623,9.42467849 121.171415,10.2106421 L120.097983,11.3264809 C119.351435,10.503227 117.804095,9.11344839 116.656437,8.10661185 L117.677053,7.17435579 Z M115.69149,7.74231486 C114.745101,9.13209351 113.216318,10.5950184 111.905932,11.5086293 C111.724648,11.2160444 111.196497,10.503227 110.9053,10.1919969 C112.142886,9.46053449 113.434715,8.3088397 114.254063,7.21164603 L115.69149,7.74231486 Z M112.415526,7.9976096 L110.868187,7.9976096 L110.868187,4.77917483 L115.455964,4.77917483 C115.256123,4.19257064 114.964926,3.51704355 114.727972,2.98637472 L116.346683,2.60199837 C116.656437,3.29760482 117.056119,4.15671463 117.275944,4.77917483 L121.516854,4.77917483 L121.516854,7.86996223 L119.915272,7.86996223 L119.915272,6.24209973 L112.415526,6.24209973 L112.415526,7.9976096 Z M121.736679,17.3259072 L121.736679,18.8261223 L110.24868,18.8261223 L110.24868,17.3259072 L115.181896,17.3259072 L115.181896,13.1737821 L111.687534,13.1737821 L111.687534,11.6922121 L120.441995,11.6922121 L120.441995,13.1737821 L116.874834,13.1737821 L116.874834,17.3259072 L121.736679,17.3259072 Z M110.539876,12.1310895 C109.921797,12.3691734 109.266604,12.6072573 108.647097,12.826696 L108.647097,17.3445523 C108.647097,18.185017 108.48437,18.6425396 108.010461,18.8992685 C107.519423,19.1732084 106.790004,19.2277095 105.642346,19.2277095 C105.608087,18.8261223 105.38969,18.0946598 105.189849,17.6543481 C105.899284,17.6729933 106.590163,17.6729933 106.790004,17.6729933 C107.008401,17.6729933 107.099757,17.599847 107.099757,17.3445523 L107.099757,13.3932208 L105.206978,14.0701821 L104.860111,12.4064636 C105.479618,12.2243152 106.26328,11.9847971 107.099757,11.6922121 L107.099757,7.6146675 L105.06138,7.6146675 L105.06138,6.03987187 L107.099757,6.03987187 L107.099757,2.63928862 L108.647097,2.63928862 L108.647097,6.03987187 L110.377149,6.03987187 L110.377149,7.6146675 L108.647097,7.6146675 L108.647097,11.1801884 L110.268664,10.6122293 L110.539876,12.1310895 Z" id="Fill-15" fill="#85654E"></path>
                    <path d="M132.3361,12.1682364 C132.901364,13.3572214 133.683599,14.4171248 134.667102,15.3135249 C135.613491,14.4544151 136.397153,13.4117225 136.923877,12.1682364 L132.3361,12.1682364 Z M133.302474,5.34555625 C133.302474,7.02935411 132.845694,9.00430272 130.661718,10.2836449 C130.461877,9.91791366 129.896613,9.25959746 129.586859,9.02294784 C131.499623,7.96161017 131.79082,6.5531864 131.79082,5.308266 L131.79082,3.3333174 L137.597626,3.3333174 L137.597626,7.41229622 C137.597626,7.92431993 137.616183,8.12654778 137.85171,8.12654778 L138.78097,8.12654778 C138.980811,8.12654778 139.344807,8.08925754 139.580334,8.0161113 C139.600318,8.45498877 139.654561,9.05880384 139.708803,9.44318019 C139.471849,9.53497155 139.107853,9.55218244 138.78097,9.55218244 L137.723241,9.55218244 C136.358613,9.55218244 136.067416,8.94836736 136.067416,7.3936511 L136.067416,4.90667878 L133.302474,4.90667878 L133.302474,5.34555625 Z M125.782744,7.48544246 L128.059504,7.48544246 L128.059504,4.85217765 L125.782744,4.85217765 L125.782744,7.48544246 Z M128.059504,11.78386 L128.059504,9.04015872 L125.782744,9.04015872 L125.782744,9.80747717 C125.782744,10.4127265 125.782744,11.0882536 125.747058,11.78386 L128.059504,11.78386 Z M138.980811,10.9606062 C138.361304,13.2109289 137.269316,14.9477937 135.904688,16.2644261 C137.088032,17.0690348 138.45266,17.6369938 140,17.9840799 C139.673117,18.3139552 139.216338,19.0095616 138.999368,19.4656499 C137.324986,19.0095616 135.886131,18.29531 134.648545,17.3444089 C133.356716,18.259454 131.917861,18.9177702 130.351965,19.3925037 C130.18781,18.9536262 129.862354,18.29531 129.551174,17.9467897 C129.496931,18.4229574 129.332776,18.7700435 128.96878,18.9722714 C128.496299,19.2476455 127.802565,19.2820672 126.674891,19.2820672 C126.620649,18.8618349 126.437937,18.1131615 126.238096,17.691495 C126.930402,17.7101401 127.567038,17.7101401 127.768307,17.7101401 C127.985277,17.7101401 128.059504,17.6183487 128.059504,17.3816991 L128.059504,13.3572214 L125.674259,13.3572214 C125.527233,15.4971076 125.201778,17.7646412 124.472359,19.4470048 C124.162605,19.173065 123.471727,18.8073337 123.087746,18.6796864 C124.199719,16.1367787 124.273945,12.5153225 124.273945,9.82755653 L124.273945,3.2974614 L129.586859,3.2974614 L129.586859,17.4175551 C129.586859,17.5997036 129.586859,17.7646412 129.56973,17.9109337 C130.952915,17.5638476 132.263301,17.0145336 133.429515,16.2644261 C132.373213,15.1858775 131.518179,13.8692451 130.880116,12.3862409 L131.462509,12.1682364 L130.224923,12.1682364 L130.224923,10.5762299 L137.706111,10.5762299 L137.997308,10.5217287 L138.980811,10.9606062 Z" id="Fill-17" fill="#85654E"></path>
                </g>
            </g>
        </g>
    </g>
</svg>