<?xml version="1.0" encoding="UTF-8"?>
<svg width="4px" height="14px" viewBox="0 0 4 14" version="1.1" xmlns="http://www.w3.org/2000/svg" xmlns:xlink="http://www.w3.org/1999/xlink">
    <title>more</title>
    <g id="页面-1" stroke="none" stroke-width="1" fill="none" fill-rule="evenodd">
        <g id="广告主_投放管理_创意" transform="translate(-1404.000000, -425.000000)" fill="#4D4D4D" fill-rule="nonzero">
            <g id="input" transform="translate(440.000000, 56.000000)">
                <g id="计划" transform="translate(604.000000, 80.000000)">
                    <g id="more" transform="translate(360.000000, 289.000000)">
                        <path d="M0,1.5 C0,2.32842712 0.671572875,3 1.5,3 C2.32842712,3 3,2.32842712 3,1.5 C3,0.671572875 2.32842712,0 1.5,0 C0.671572875,0 0,0.671572875 0,1.5 Z" id="路径"></path>
                        <path d="M0,11.7 C0,12.5284271 0.671572875,13.2 1.5,13.2 C2.32842712,13.2 3,12.5284271 3,11.7 C3,10.8715729 2.32842712,10.2 1.5,10.2 C0.671572875,10.2 0,10.8715729 0,11.7 Z" id="路径"></path>
                        <path d="M0,6.6 C0,7.42842712 0.671572875,8.1 1.5,8.1 C2.32842712,8.1 3,7.42842712 3,6.6 C3,5.77157288 2.32842712,5.1 1.5,5.1 C0.671572875,5.1 0,5.77157288 0,6.6 Z" id="路径"></path>
                    </g>
                </g>
            </g>
        </g>
    </g>
</svg>