<?xml version="1.0" standalone="no"?><!DOCTYPE svg PUBLIC "-//W3C//DTD SVG 1.1//EN" "http://www.w3.org/Graphics/SVG/1.1/DTD/svg11.dtd"><svg t="1611890472143" class="icon" viewBox="0 0 1030 1024" version="1.1" xmlns="http://www.w3.org/2000/svg" p-id="13063" xmlns:xlink="http://www.w3.org/1999/xlink" width="201.171875" height="200"><defs><style type="text/css"></style></defs><path d="M510.208 128.384a381.696 381.696 0 1 0 0 763.349333 381.696 381.696 0 0 0 0-763.349333z m24.064 569.045333a40.704 40.704 0 0 1-28.202667 11.093334 38.4 38.4 0 0 1-28.245333-11.52 37.973333 37.973333 0 0 1-11.52-27.776 35.626667 35.626667 0 0 1 11.52-27.776 38.4 38.4 0 0 1 28.245333-11.093334 38.826667 38.826667 0 0 1 28.672 11.093334 35.626667 35.626667 0 0 1 11.562667 27.733333 38.826667 38.826667 0 0 1-12.032 28.714667v-0.469334z m78.677333-212.821333c-14.634667 15.061333-30.08 29.269333-46.293333 42.581333-9.514667 7.637333-17.237333 17.28-22.613333 28.202667-6.016 11.093333-9.045333 23.466667-8.832 36.096v9.258667h-57.813334v-9.258667c-0.682667-17.92 3.157333-35.754667 11.093334-51.84 16.469333-26.026667 37.12-49.109333 61.056-68.437333l9.258666-10.197334c9.472-11.136 14.848-25.173333 15.274667-39.808a62.933333 62.933333 0 0 0-17.578667-42.538666 62.933333 62.933333 0 0 0-46.293333-16.213334 60.586667 60.586667 0 0 0-53.162667 23.594667c-10.709333 16.469333-15.914667 35.925333-14.805333 55.552H386.688a126.762667 126.762667 0 0 1 34.261333-92.586667 127.232 127.232 0 0 1 94.848-34.645333 122.581333 122.581333 0 0 1 86.954667 26.368c22.314667 19.669333 34.389333 48.469333 32.853333 78.165333a105.472 105.472 0 0 1-22.656 66.133334v-0.426667z" fill="#DEE1E7" p-id="13064"></path></svg>