<?xml version="1.0" encoding="UTF-8"?>
<svg width="120px" height="94px" viewBox="0 0 120 94" version="1.1" xmlns="http://www.w3.org/2000/svg" xmlns:xlink="http://www.w3.org/1999/xlink">
    <title>empty_icon</title>
    <defs>
        <linearGradient x1="0.0418254486%" y1="50.0117741%" x2="100%" y2="50.0117741%" id="linearGradient-1">
            <stop stop-color="#808080" stop-opacity="0.25" offset="0%"></stop>
            <stop stop-color="#808080" stop-opacity="0.12" offset="54%"></stop>
            <stop stop-color="#808080" stop-opacity="0.1" offset="100%"></stop>
        </linearGradient>
    </defs>
    <g id="页面-1" stroke="none" stroke-width="1" fill="none" fill-rule="evenodd">
        <g id="切图" transform="translate(-282.000000, -404.000000)" fill-rule="nonzero">
            <g id="empty_icon" transform="translate(282.000000, 404.000000)">
                <ellipse id="椭圆形" fill="#A67F60" opacity="0.1" cx="42.0753398" cy="88.0712829" rx="20.9227723" ry="3.96356436"></ellipse>
                <path d="M69.6895972,13.2352433 C62.0000923,12.9691047 54.6765279,10.4859364 47.6832606,7.7698968 C40.6899933,5.05385719 33.7632606,2.04554036 26.2579141,0.606728482 C21.4305873,-0.318816073 15.9093992,-0.450697261 12.0206864,2.13464927 C8.27692398,4.62969878 7.06741903,8.92474828 6.41751804,12.9132631 C5.92801309,15.9144513 5.64048834,19.0736592 6.98068636,21.8835602 C7.91217151,23.8344513 9.56365665,25.4740552 10.706627,27.3429661 C14.6832606,33.8443522 11.8721715,41.861778 7.56405269,48.2098968 C5.54425071,51.1873225 3.19771606,54.031679 1.63771606,57.1980156 C0.0777160606,60.3643522 -0.643472058,64.0047483 0.721676457,67.2435602 C2.07375566,70.451481 5.297122,72.8562334 8.78900319,74.5493027 C15.8808844,77.9889067 24.2345477,78.9726691 32.3862309,79.5310849 C50.4254388,80.7643522 68.5596963,80.2308869 86.6464289,79.6950453 C93.3402903,79.4978176 100.062667,79.2970255 106.647221,78.262174 C110.304251,77.6871245 114.078904,76.7746493 116.73435,74.571877 C120.103855,71.7762334 120.939102,67.0427681 118.680488,63.5378176 C114.892766,57.6566295 104.423063,56.1964315 101.77237,49.8863324 C100.315736,46.412273 101.811577,42.5437582 103.929993,39.3227681 C108.47336,32.411481 116.088013,26.3485107 116.488409,18.4498968 C116.764053,13.0249463 113.103459,7.59167898 107.443261,5.02415422 C101.510983,2.33306512 93.2832606,2.67167898 88.9086071,7.1259364 C84.3996963,11.7073225 76.4796963,13.471679 69.6895972,13.2352433 Z" id="路径" fill="#A77E62" opacity="0.1"></path>
                <path d="M63.5791022,42.9786097 L59.9398943,40.5251443 L59.9398943,40.5251443 L61.7755378,37.7924711 L52.1636567,37.0261344 L48.7097953,39.6970255 L44.3862309,37.2732631 L40.7802903,37.7069265 L40.737518,36.7564315 C40.692884,35.7655378 40.5933251,34.7778823 40.4393002,33.7980156 C40.4547458,33.5009859 40.4654388,33.1599958 40.4642507,32.7893027 C40.4642507,31.2269265 40.2527656,29.1560354 39.3236567,27.7754414 L39.537518,25.8530651 L37.8028646,23.8035602 C38.0814363,23.2486606 38.3990671,22.7142468 38.7533596,22.2043522 C38.8127656,22.1188077 38.8721715,22.0356394 38.9363299,21.9548473 C41.1878151,21.792075 42.9640527,19.9409859 42.9640527,17.6776196 C42.9640527,17.5730651 42.9640527,17.4685107 42.9521715,17.3651443 C42.9521715,17.3235602 42.9438547,17.2807879 42.9391022,17.2392037 C43.1589042,17.3580156 43.3810824,17.4768275 43.6032606,17.5956394 C43.6448448,17.6550453 43.6923695,17.7144513 43.7446468,17.7845503 L43.7446468,17.7845503 L43.7553398,17.7976196 L43.8218745,17.8795998 L43.8432606,17.9045503 C43.867023,17.9330651 43.8919735,17.9603918 43.916924,17.9889067 L43.9335576,18.0079166 C43.9965279,18.0780156 44.0630626,18.1493027 44.1343497,18.2194017 C44.1428363,18.2263076 44.1507804,18.2338545 44.1581121,18.241976 L44.247221,18.3251443 L44.2721715,18.3477186 C44.3482111,18.4154414 44.4290032,18.4807879 44.5097953,18.5425701 L44.5359339,18.56158 L44.6381121,18.631679 L44.6713794,18.6530651 C44.7105873,18.6768275 44.7509834,18.701778 44.7901913,18.7243522 L44.8044487,18.7326691 C44.8507854,18.7576196 44.8983101,18.7813819 44.9458349,18.8039562 L44.9695972,18.8134612 C45.0099933,18.8308869 45.0495972,18.8475206 45.0884091,18.8633621 L45.1252408,18.8764315 C45.166825,18.8906889 45.207221,18.9037582 45.2499933,18.9156394 L45.2761319,18.9227681 C45.3284091,18.9358374 45.3806864,18.9465305 45.4341517,18.9548473 L45.4400923,18.9548473 C45.4904363,18.9629912 45.5412181,18.9681487 45.5921715,18.9702928 L45.626627,18.9702928 C45.6721404,18.9726752 45.7177472,18.9726752 45.7632606,18.9702928 L45.7929636,18.9702928 C45.8499543,18.9670108 45.9066928,18.9602656 45.9628646,18.9500948 C46.2286993,18.9151422 46.483945,18.8235778 46.7113794,18.68158 C46.7692843,18.6428582 46.8206254,18.595127 46.8634586,18.5401938 C47.1010824,18.2289067 46.8396963,17.8879166 46.8396963,17.8879166 L46.8396963,17.8879166 C46.747023,17.6669265 46.1458349,17.5112829 46.1458349,17.5112829 C46.1458349,17.5112829 44.2448448,16.7176196 44.2448448,16.0855404 C44.2448448,15.4534612 43.7695972,12.1742532 38.8638547,11.4245503 C38.8638547,11.4245503 35.6725675,11.2451443 34.7755378,12.9536592 L34.7565279,13.1532631 C34.4927656,13.3184117 34.2741517,13.6498968 34.0139537,13.7473225 C33.9015386,13.7714672 33.7931272,13.8114714 33.6919735,13.8661344 L33.6919735,13.8435602 L33.6919735,13.8435602 C33.6619358,13.8698315 33.6373168,13.9017152 33.6194982,13.9374216 C33.563607,14.0486309 33.5301016,14.1697347 33.5208844,14.2938572 C33.4941173,14.4454807 33.4414685,14.5913702 33.3652408,14.7251443 C33.3439884,14.7631566 33.3201709,14.7996769 33.2939537,14.8344513 L33.2939537,14.8344513 L33.2737557,14.8665305 C33.4116938,14.87728 33.5502021,14.8548743 33.6777161,14.8011839 C33.6576222,14.9638487 33.6177224,15.1234478 33.5589042,15.2764315 C33.7131464,15.2814176 33.8561308,15.1959984 33.9248448,15.0578176 L33.9248448,15.0483126 L33.9402903,15.0269265 C33.9701676,14.9719256 33.9948297,14.9142482 34.0139537,14.8546493 L34.0008844,14.8689067 C34.0246468,14.791679 34.0460329,14.7132631 34.0721715,14.6372235 C34.0841471,14.5943921 34.1038797,14.5541214 34.1303893,14.5184117 C34.1946996,14.4535801 34.2859828,14.4231523 34.3763299,14.4364315 L34.3276171,15.4665305 L34.3490032,15.4665305 C34.3203855,15.5414609 34.2854063,15.6138042 34.2444487,15.6827681 C34.0757359,15.9560354 33.7692012,16.1425701 33.6563299,16.441976 C33.6076634,16.5863826 33.589064,16.7392211 33.6016765,16.8910849 C33.6016765,16.9801938 33.6123695,17.0704909 33.6194982,17.1595998 L33.6194982,17.1524711 C33.6361319,17.3900948 33.6408844,17.6158374 33.5125675,17.8071245 C33.4246468,17.9378176 33.2832606,18.0364315 33.2345477,18.1849463 C33.2210726,18.2263297 33.2150386,18.2697738 33.216726,18.3132631 C33.2262585,18.4434643 33.2534378,18.5717666 33.297518,18.6946493 C33.2980332,18.692301 33.2980332,18.6898689 33.297518,18.6875206 C33.3271506,18.7779138 33.3340872,18.8742095 33.3177161,18.9679166 C33.2642507,19.2055404 32.9755378,19.4039562 32.9897953,19.6308869 C32.9889801,19.6607324 32.9934035,19.6904897 33.0028646,19.7188077 C33.0584139,19.8296506 33.1546038,19.9147743 33.2713794,19.9564315 C33.4545606,20.0605979 33.6649428,20.1069814 33.8749438,20.0895008 C33.9536528,20.0752801 34.0297601,20.0492434 34.1006864,20.012273 C34.017518,20.2035602 33.9319735,20.3924711 33.8452408,20.571877 C33.8321715,20.6003918 33.8179141,20.6289067 33.8036567,20.6574216 C33.8036567,20.6574216 33.0693992,20.1667285 32.6523695,21.1671245 C32.5306291,21.3750172 32.4435493,21.6013445 32.3945477,21.8372235 C32.3736549,21.9315793 32.3442268,22.0238402 32.306627,22.1128671 C32.1214865,22.4262986 31.8443979,22.6751807 31.5129636,22.8257384 C30.6622705,23.2154414 27.2262309,27.5009859 27.1656369,28.6106889 C27.1358999,29.0438703 27.0626599,29.4729614 26.947023,29.891481 C26.6765405,30.8770739 26.6070437,31.9069999 26.7426666,32.9199958 C26.7851216,33.2473787 26.8554766,33.5705346 26.9529636,33.8859364 C27.3177161,34.9944513 27.5612804,37.0629661 27.5612804,37.0629661 L27.9557359,40.6534612 C27.9410926,41.1490161 27.9625354,41.6449796 28.0198943,42.1374216 C27.617122,42.5972235 26.0000923,44.5136592 26.6179141,45.0352433 C27.0931616,45.4463324 27.9248448,45.3786097 28.3917755,45.2942532 C27.9985081,46.2673225 27.3794982,47.9592037 27.297518,49.1211839 C27.1787062,50.8403918 27.5006864,53.1180156 28.0103893,53.9924711 C28.5200923,54.8669265 30.2191022,57.1100948 30.2191022,57.1100948 C30.2191022,57.1100948 30.1394982,60.1873225 30.746627,61.3053423 C31.3537557,62.4233621 31.5985081,64.7425701 31.5985081,64.7425701 C31.5985081,64.7425701 32.1652408,66.7005899 31.8812804,67.4205899 C31.59732,68.1405899 32.4076171,68.7394017 31.556924,69.2182136 C30.7062309,69.6970255 29.6179141,80.4887087 29.6179141,80.4887087 C29.6179141,80.4887087 29.1794982,87.56158 29.6179141,87.92158 C29.6413742,87.9386349 29.6664437,87.9533582 29.6927656,87.9655404 L29.6927656,90.341778 C29.6927656,90.341778 29.3886071,90.8407879 30.6254388,90.941778 C31.4725675,91.0095008 33.8737557,91.1627681 35.2983101,91.251877 L36.4020725,91.3207879 C36.4020725,91.3207879 39.0159339,91.8411839 40.1707854,91.3207879 C41.3256369,90.8003918 43.3727656,90.812273 43.0686071,89.4376196 C43.0282759,89.2505472 42.9742694,89.066687 42.907023,88.8875206 C42.5731616,88.0344513 42.0064289,87.9370255 40.9620725,87.6994017 C40.9014784,87.6863324 40.8432606,87.6744513 40.7897953,87.6649463 C39.6895972,87.4736592 39.3284091,87.9857384 38.7117755,87.3192037 C38.1759339,86.7429661 36.4697953,86.0978176 35.8888052,85.8934612 C35.9030626,85.8506889 35.9208844,85.8091047 35.9351418,85.7651443 C35.770623,85.7372329 35.617607,85.6625809 35.4943497,85.5500948 L37.0686071,85.6498968 L38.0060329,85.7081146 C38.0060329,85.7081146 40.2278151,86.1512829 41.2139537,85.7081146 C42.2000923,85.2649463 43.9347458,85.2768275 43.6757359,84.1089067 C43.6416182,83.9497565 43.5959528,83.7933029 43.5391022,83.6407879 C43.2551418,82.9160354 42.7727656,82.8364315 41.8852408,82.6356394 C41.8341517,82.6249463 41.786627,82.6142532 41.7391022,82.6059364 C40.8040527,82.4431641 40.497518,82.8780156 39.9735576,82.3124711 C39.5244487,81.8300948 38.107023,81.2895008 37.59732,81.1053423 C37.59732,80.84158 37.2408844,80.4661344 37.0163299,80.0895008 C36.7525675,79.6498968 37.2396963,78.1112829 37.2396963,78.1112829 L37.5177161,71.7275206 C37.6235899,71.6803626 37.7355828,71.6483646 37.8503893,71.6324711 C37.8503893,71.6324711 39.107419,70.4324711 38.8234586,69.1540552 C38.7656011,68.7673936 38.7354254,68.3770943 38.7331616,67.9861344 C39.146627,67.602372 39.7157359,67.0356394 39.87732,66.6863324 C40.1410824,66.1172235 39.87732,63.3595998 39.87732,63.3595998 L39.87732,52.8150453 L41.9802903,53.0277186 L43.8884091,53.2237582 L44.4693992,53.2831641 L46.377518,53.4756394 L50.7628646,53.9188077 L54.7145477,53.1702928 L56.4242507,52.8471245 L59.9398943,52.181778 L59.9398943,43.5797978 L63.5791022,42.9786097 Z M34.6353398,14.4744513 L34.3905873,14.4483126 C34.4713794,14.451877 34.556924,14.4673225 34.6353398,14.4744513 Z" id="形状" fill="url(#linearGradient-1)"></path>
                <path d="M55.0495972,48.5639562 C53.8614784,50.2641542 49.5901913,49.3635602 49.5901913,49.3635602 L46.2800923,46.2661344 L45.8345477,45.8467285 L46.5818745,44.2594017 C46.5818745,44.2594017 46.8194982,44.3247483 47.227023,44.4411839 C49.366825,45.0625701 56.0523695,47.1346493 55.0495972,48.5639562 Z" id="路径" fill="#EFB7B9"></path>
                <path d="M47.2246468,44.4411839 C47.0785081,44.9496988 46.6781121,45.7112829 46.2800923,46.2661344 L45.8345477,45.8467285 L46.5818745,44.2594017 C46.5818745,44.2594017 46.8218745,44.3247483 47.2246468,44.4411839 Z" id="路径" fill="#000000" opacity="0.1"></path>
                <path d="M35.8721715,26.5409859 C35.8721715,26.5409859 32.8210824,27.8942532 32.9707854,31.2174216 C33.0785021,33.358364 33.3117744,35.4911396 33.6693992,37.6047483 C33.6693992,37.6047483 33.0456369,42.6055404 35.6428646,43.8946493 C38.2400923,45.1837582 40.6436567,46.2435602 40.6436567,46.2435602 C40.6436567,46.2435602 44.707023,46.6807879 45.2119735,46.8613819 C45.716924,47.041976 47.2947458,44.2807879 47.0036567,43.8506889 C46.7125675,43.4205899 42.9830626,42.5188077 42.5078151,41.8011839 C42.0325675,41.0835602 40.9335576,40.6403918 40.9335576,40.6403918 C40.9335576,40.6403918 39.7989042,39.9536592 39.7216765,39.3334612 C39.6444487,38.7132631 39.9438547,38.2510849 40.0198943,37.9790057 C40.0959339,37.7069265 40.2884091,35.0799958 40.2884091,35.0799958 C40.2884091,35.0799958 41.5692012,25.7295008 35.8721715,26.5409859 Z" id="路径" fill="#DCE6F2"></path>
                <path d="M37.8860329,37.4681146 C37.8860329,37.4681146 33.7002903,38.1691047 34.1054388,39.6340552 C34.1054388,39.6340552 35.6250428,38.0526691 37.8860329,37.4681146 Z" id="路径" fill="#000000" opacity="0.1"></path>
                <path d="M37.9181121,38.0609859 C37.9181121,38.0609859 35.616726,39.9394017 36.067023,40.0356394 C36.51732,40.131877 37.9181121,38.0609859 37.9181121,38.0609859 Z" id="路径" fill="#000000" opacity="0.1"></path>
                <path d="M39.0242507,38.7156394 C39.0242507,38.7156394 38.4076171,39.9786097 38.786627,39.8930651 C39.1656369,39.8075206 39.0242507,38.7156394 39.0242507,38.7156394 Z" id="路径" fill="#000000" opacity="0.1"></path>
                <path d="M47.3791022,44.5754414 L47.1248448,44.5029661 C47.19732,44.2653423 47.217518,44.0728671 47.1581121,43.9837582 C46.867023,43.5536592 43.1398943,42.6530651 42.6658349,41.9342532 C42.1917755,41.2154414 41.0915774,40.7734612 41.0915774,40.7734612 C41.0915774,40.7734612 39.956924,40.0867285 39.8796963,39.4665305 C39.8024685,38.8463324 40.1018745,38.3841542 40.1779141,38.112075 C40.2539537,37.8399958 40.4464289,35.211877 40.4464289,35.211877 C40.4464289,35.211877 41.7236567,25.8625701 36.026627,26.6740552 C36.026627,26.6740552 32.9755378,28.0285107 33.1240527,31.351679 C33.2318103,33.492673 33.4654816,35.6254694 33.8238547,37.7390057 C33.8238547,37.7390057 33.2000923,42.7397978 35.79732,44.0289067 C38.3945477,45.3180156 40.7981121,46.3778176 40.7981121,46.3778176 C40.7981121,46.3778176 44.8602903,46.8138572 45.3664289,46.9956394 C45.5577161,47.0645503 45.9034586,46.7093027 46.2420725,46.2209859 L46.4345477,46.4003918 L49.7446468,49.4966295 C49.7446468,49.4966295 54.0159339,50.3984117 55.2040527,48.6982136 C56.2080131,47.2677186 49.5236567,45.1956394 47.3791022,44.5754414 Z" id="路径" fill="#000000" opacity="0.1"></path>
                <path d="M34.1161319,14.0681146 C33.9998193,14.0908518 33.8884167,14.1338845 33.787023,14.1952433 C33.6682111,14.2938572 33.6682111,14.4625701 33.6385081,14.6098968 C33.6036158,14.814839 33.5223377,15.0090934 33.4008844,15.1778176 C33.5360824,15.1877361 33.6716997,15.1653368 33.7965279,15.1124711 C33.7761915,15.2750906 33.736299,15.4346607 33.6777161,15.5877186 C33.8289261,15.5915649 33.9683749,15.5065011 34.0341517,15.3702928 C34.097018,15.2364094 34.1467556,15.0967461 34.1826666,14.9532631 C34.1938265,14.9103483 34.213193,14.8700013 34.2396963,14.8344513 C34.3490032,14.7049463 34.5521715,14.7631641 34.7208844,14.7797978 C35.0068096,14.8039062 35.28333,14.6711036 35.4432606,14.4328671 C35.6226666,14.1607879 35.6333596,13.4645503 35.2056369,13.3908869 C34.7589042,13.3172235 34.4808844,13.9326691 34.1161319,14.0681146 Z" id="路径" fill="#965D7B"></path>
                <g id="编组" opacity="0.1" transform="translate(33.386627, 14.138214)" fill="#000000">
                    <path d="M0.388514851,0.203168317 C0.399207921,0.144950495 0.406336634,0.0843564356 0.419405941,0.0261386139 L0.419405941,0.0261386139 C0.306534653,0.124752475 0.300594059,0.292277228 0.270891089,0.440792079 C0.255925721,0.526481014 0.232442935,0.610461824 0.200792079,0.691485149 C0.29434277,0.542377487 0.358093572,0.376544705 0.388514851,0.203168317 L0.388514851,0.203168317 Z" id="路径"></path>
                    <path d="M0.426534653,1.18455446 C0.485699474,1.0316805 0.525610103,0.872037983 0.545346535,0.709306931 C0.426384927,0.759379138 0.297589081,0.781725421 0.168712871,0.774653465 C0.131198801,0.858215694 0.0854267572,0.93781925 0.0320792079,1.01227723 C0.166801395,1.02270186 0.302060704,1.00070186 0.426534653,0.948118812 C0.406798222,1.11084986 0.366887593,1.27049238 0.307722772,1.42336634 C0.458851926,1.42691047 0.598149997,1.34193865 0.664158416,1.20594059 C0.693758711,1.15193727 0.717650143,1.09499603 0.735445545,1.0360396 C0.664597985,1.13505424 0.548111743,1.19105724 0.426534653,1.18455446 L0.426534653,1.18455446 Z" id="路径"></path>
                    <path d="M1.46970297,0.376633663 C1.3009901,0.36 1.09663366,0.301782178 0.987326733,0.431287129 C0.961305838,0.467126901 0.941984693,0.507379286 0.93029703,0.55009901 C0.91960396,0.580990099 0.91009901,0.613069307 0.901782178,0.645148515 C1.01465347,0.556039604 1.19762376,0.603564356 1.35089109,0.619009901 C1.63667387,0.6423465 1.91282336,0.509722073 2.07326733,0.272079208 C2.10927934,0.214386856 2.13613268,0.151461865 2.15287129,0.0855445545 C1.98764532,0.290039683 1.73164243,0.399119174 1.46970297,0.376633663 Z" id="路径"></path>
                </g>
                <polygon id="路径" fill="#DCE6F2" points="37.6923695 23.8807879 39.5042507 26.0597978 39.2678151 28.2590057 37.0781121 24.8312829"></polygon>
                <polygon id="路径" fill="#000000" opacity="0.1" points="39.5030626 26.0597978 39.2808844 28.1283126 39.266627 28.2590057 37.2907854 25.1651443 37.0781121 24.8312829 37.1398943 24.7350453 37.6911814 23.8807879 37.8135576 24.0281146"></polygon>
                <path d="M40.4440527,20.9306889 C39.8309834,21.1065305 39.2452408,21.7100948 38.7355378,22.4431641 C38.3910306,22.9489588 38.0829268,23.4786114 37.8135576,24.0281146 C37.6460329,24.3631641 37.4987062,24.6851443 37.3763299,24.9655404 L37.2907854,25.1651443 C37.0840527,25.6534612 36.9688052,25.9801938 36.9688052,25.9801938 C36.9688052,25.9801938 32.2757359,22.451481 33.0183101,22.2138572 C33.2678151,22.1342532 33.5957359,21.5995998 33.9200923,20.9259364 L33.9604883,20.8403918 C34.1660329,20.4079166 34.3680131,19.9255404 34.547419,19.471679 C34.9145477,18.5390057 35.186627,17.7287087 35.186627,17.7287087 C35.186627,17.7287087 42.3153398,20.3960354 40.4440527,20.9306889 Z" id="路径" fill="#EFB7B9"></path>
                <path d="M43.2515774,17.5302928 C43.2515774,17.5302928 44.3351418,19.4906889 45.7905873,19.2233621 C47.2460329,18.9560354 46.647221,18.1706889 46.647221,18.1706889 L43.2515774,17.5302928 Z" id="路径" fill="#444053"></path>
                <path d="M41.1521715,85.3896988 C40.1921715,85.8281146 38.0214784,85.3896988 38.0214784,85.3896988 L37.106627,85.3326691 C35.9185081,85.2566295 33.9295972,85.1283126 33.2262309,85.0712829 C32.1996963,84.9869265 32.4515774,84.5663324 32.4515774,84.5663324 L32.4515774,82.0249463 L37.4321715,80.7631641 C37.4321715,80.7631641 39.4008844,81.4368275 39.9402903,82.0249463 C40.4523695,82.5857384 40.7517755,82.1544513 41.6654388,82.3160354 C41.7105873,82.3243522 41.7581121,82.3338572 41.8080131,82.3457384 C42.6753398,82.5441542 43.1458349,82.6225701 43.4238547,83.3413819 C43.4797225,83.4923977 43.5245921,83.6472574 43.5581121,83.8047483 C43.8147458,84.961976 42.1109834,84.9536592 41.1521715,85.3896988 Z" id="路径" fill="#A36468"></path>
                <path d="M43.4238547,83.3413819 C43.2453849,83.4528986 43.0577825,83.5490845 42.8630626,83.6289067 C42.2095972,83.9271245 41.5882111,84.2906889 40.9276171,84.572273 C40.267023,84.8538572 39.5553398,85.0546493 38.8400923,85.0011839 C38.4658349,84.9738572 38.0832606,84.882372 37.7256369,84.9893027 C37.5044689,85.0746985 37.2961621,85.1902468 37.106627,85.3326691 C35.9185081,85.2566295 33.9295972,85.1283126 33.2262309,85.0712829 C32.1996963,84.9869265 32.4515774,84.5663324 32.4515774,84.5663324 L32.4515774,84.2693027 C32.4884091,84.2693027 32.5299933,84.2586097 32.577518,84.2550453 C32.8233954,84.2511156 33.0682458,84.2876424 33.3022705,84.3631641 C33.8179141,84.5033621 34.3311814,84.6411839 34.846825,84.7790057 C34.9325373,84.4555688 35.1473087,84.1815205 35.4408844,84.0209859 C35.7351977,83.8647509 36.0655222,83.788932 36.3985081,83.8011839 C37.1981121,83.811877 37.9549438,84.1908869 38.7533596,84.2289067 C38.9765772,84.2494305 39.2013045,84.2117713 39.4056369,84.1195998 C39.5149438,84.0649463 39.6111814,83.9853423 39.7181121,83.9247483 C39.8892428,83.8419648 40.0700504,83.7808973 40.2563299,83.7429661 C40.7799072,83.6126347 41.2939741,83.4467043 41.7949438,83.2463324 C41.937518,83.1904909 42.1038547,83.0895008 42.0848448,82.9374216 C42.0598943,82.7354414 41.7426666,82.711679 41.6594982,82.5263324 C41.6297495,82.4585773 41.6332635,82.3808306 41.6690032,82.3160354 C41.7141517,82.3243522 41.7616765,82.3338572 41.8115774,82.3457384 C42.6753398,82.5441542 43.1458349,82.6225701 43.4238547,83.3413819 Z" id="路径" fill="#000000" opacity="0.1"></path>
                <path d="M40.137518,90.9500948 C39.0088052,91.4657384 36.4543497,90.9500948 36.4543497,90.9500948 L35.3791022,90.8871245 C33.986627,90.7980156 31.6412804,90.6495008 30.8131616,90.5794017 C29.6048448,90.4795998 29.9018745,89.9853423 29.9018745,89.9853423 L29.9018745,86.9900948 L35.7628646,85.5049463 C35.7628646,85.5049463 38.0796963,86.2974216 38.7141517,86.9900948 C39.3165279,87.6495008 39.6646468,87.142174 40.7446468,87.332273 C40.7981121,87.341778 40.8539537,87.3536592 40.9121715,87.3667285 C41.9327656,87.6043522 42.4864289,87.6934612 42.8131616,88.5394017 C42.8793117,88.7170052 42.9321313,88.8992924 42.9711814,89.0847483 C43.2658349,90.4463324 41.2662309,90.4356394 40.137518,90.9500948 Z" id="路径" fill="#A36468"></path>
                <path d="M42.8107854,88.5394017 C42.6008447,88.6705238 42.3802684,88.7837927 42.1513794,88.8780156 C41.3826666,89.2285107 40.6507854,89.6562334 39.8737557,89.9877186 C39.096726,90.3192037 38.2591022,90.5544513 37.416726,90.4926691 C36.977122,90.4605899 36.526825,90.3500948 36.1097953,90.4784117 C35.8484899,90.5801771 35.6025781,90.7177278 35.3791022,90.8871245 C33.986627,90.7980156 31.6412804,90.6495008 30.8131616,90.5794017 C29.6048448,90.4795998 29.9018745,89.9853423 29.9018745,89.9853423 L29.9018745,89.6360354 C29.9510689,89.6280021 30.0006366,89.6224505 30.0503893,89.6194017 C30.3398322,89.6141151 30.6281341,89.6570793 30.9034586,89.7465305 L32.7200923,90.2360354 C32.8223662,89.8544363 33.0771702,89.5317419 33.4246468,89.3437582 C33.7709415,89.159154 34.1600305,89.0697742 34.5521715,89.0847483 C35.4931616,89.0978176 36.3830626,89.5433621 37.3228646,89.5885107 C37.5845935,89.6123854 37.8480667,89.5686096 38.0880131,89.4613819 C38.217518,89.3960354 38.3256369,89.302174 38.4563299,89.232075 C38.6572707,89.1336738 38.87014,89.0617855 39.0895972,89.0182136 C39.7023144,88.8635985 40.3040442,88.6683142 40.8907854,88.4336592 C41.0583101,88.3671245 41.2543497,88.2483126 41.2317755,88.0700948 C41.2020725,87.8324711 40.8290032,87.8039562 40.7303893,87.5853423 C40.6967195,87.5054177 40.7010886,87.4145396 40.7422705,87.3382136 C40.7957359,87.3477186 40.8515774,87.3595998 40.9097953,87.3726691 C41.9303893,87.6007879 42.4840527,87.6934612 42.8107854,88.5394017 Z" id="路径" fill="#000000" opacity="0.1"></path>
                <path d="M37.5830626,70.3968275 L37.2658349,77.861778 C37.2658349,77.861778 36.7905873,79.3861344 37.0484091,79.822174 C37.3062309,80.2582136 37.7410824,80.6930651 37.5830626,80.9508869 C37.4250428,81.2087087 35.5240527,83.9960354 34.9097953,82.9267285 C34.2955378,81.8574216 33.6895972,77.2237582 33.6895972,77.2237582 L34.2563299,71.5005899 L37.5830626,70.3968275 Z" id="路径" fill="#444053"></path>
                <path d="M38.9589042,51.7980156 L39.8404883,52.9766295 L39.8404883,63.2277186 C39.8404883,63.2277186 40.0983101,65.9603918 39.8404883,66.5247483 C39.5826666,67.0891047 38.2757359,68.2178176 38.2757359,68.2178176 L37.176726,62.5742532 L37.4143497,56.6039562 L38.9589042,51.7980156 Z" id="路径" fill="#444053"></path>
                <path d="M37.5830626,70.3968275 L37.2658349,77.861778 C37.2658349,77.861778 36.7905873,79.3861344 37.0484091,79.822174 C37.3062309,80.2582136 37.7410824,80.6930651 37.5830626,80.9508869 C37.4250428,81.2087087 35.5240527,83.9960354 34.9097953,82.9267285 C34.2955378,81.8574216 33.6895972,77.2237582 33.6895972,77.2237582 L34.2563299,71.5005899 L37.5830626,70.3968275 Z" id="路径" fill="#000000" opacity="0.1"></path>
                <path d="M38.9589042,51.7980156 L39.8404883,52.9766295 L39.8404883,63.2277186 C39.8404883,63.2277186 40.0983101,65.9603918 39.8404883,66.5247483 C39.5826666,67.0891047 38.2757359,68.2178176 38.2757359,68.2178176 L37.176726,62.5742532 L37.4143497,56.6039562 L38.9589042,51.7980156 Z" id="路径" fill="#000000" opacity="0.1"></path>
                <path d="M39.8404883,47.4257384 L39.8404883,52.9706889 L38.8507854,57.2871245 C38.8507854,57.2871245 38.5335576,67.7033621 38.8103893,68.9698968 C39.087221,70.2364315 37.8598943,71.4257384 37.8598943,71.4257384 C37.8598943,71.4257384 37.147023,71.5053423 37.147023,72.0590057 C37.147023,72.6126691 35.9589042,74.1976196 35.9589042,74.1976196 L35.9981121,77.2867285 C35.9981121,77.2867285 36.5137557,83.0693027 35.7212804,84.1778176 C34.9288052,85.2863324 35.9981121,85.4455404 35.9981121,85.4455404 C35.0084091,88.6926691 30.2559339,87.9405899 29.827023,87.5841542 C29.3981121,87.2277186 29.827023,80.2178176 29.827023,80.2178176 C29.827023,80.2178176 30.8892012,69.5247483 31.7208844,69.0495008 C32.5525675,68.5742532 31.7612804,67.9801938 32.0381121,67.2673225 C32.3149438,66.5544513 31.7612804,64.6142532 31.7612804,64.6142532 C31.7612804,64.6142532 31.5236567,62.3164315 30.9295972,61.2079166 C30.3355378,60.0994017 30.4139537,57.0495008 30.4139537,57.0495008 C30.4139537,57.0495008 28.7505873,54.8312829 28.2563299,53.9603918 C27.7620725,53.0895008 27.4436567,50.832075 27.5624685,49.1283126 C27.6432606,47.9770255 28.2480131,46.3005899 28.6317755,45.3358374 C28.8159339,44.8736592 28.9490032,44.5742532 28.9490032,44.5742532 L29.0618745,44.6039562 L35.5513794,46.3029661 L39.8404883,47.4257384 Z" id="路径" fill="#444053"></path>
                <path d="M40.4440527,20.9306889 C39.8309834,21.1065305 39.2452408,21.7100948 38.7355378,22.4431652 L38.6024685,22.4431652 C37.0817457,22.4442395 35.6766813,21.6315684 34.9193002,20.3128671 C34.7638035,20.044421 34.6386764,19.7594978 34.5462309,19.4633621 C34.9133596,18.5306889 35.1854388,17.7203918 35.1854388,17.7203918 C35.1854388,17.7203918 42.3153398,20.3960354 40.4440527,20.9306889 Z" id="路径" fill="#000000" opacity="0.1"></path>
                <path d="M42.8499989,17.9603918 C42.8528788,19.7419179 41.743714,21.3359391 40.0722417,21.9524 C38.4007695,22.5688609 36.5222121,22.0767507 35.3676517,20.7199775 C34.2130913,19.3632042 34.0278957,17.4301101 34.9038547,15.8788077 C35.0326161,15.6487979 35.1829985,15.4315789 35.3529636,15.2300948 C35.6331428,14.8963015 35.9624515,14.6070546 36.3295972,14.372273 C37.5911085,13.5706168 39.1811265,13.4910154 40.5163964,14.1626686 C41.8516662,14.8343217 42.7356387,16.1583633 42.8440527,17.6491047 C42.8464289,17.7536592 42.8499989,17.8570255 42.8499989,17.9603918 Z" id="路径" fill="#EFB7B9"></path>
                <path d="M39.2808844,28.1283126 L39.266627,28.2590057 L37.2907854,25.1698968 C37.0840527,25.6582136 36.9688052,25.9849463 36.9688052,25.9849463 C36.9688052,25.9849463 32.2757359,22.451481 33.0183101,22.2138572 C33.2678151,22.1342532 33.5957359,21.5995998 33.9200923,20.9259364 L33.9604883,20.8403918 C34.3050428,21.8669265 36.307023,23.9188077 37.1398943,24.7409859 C37.2361319,24.8360354 37.3157359,24.9144513 37.377518,24.971481 L37.5046468,25.0902928 L37.5711814,25.1568275 C37.8741517,25.4693027 39.1525675,26.8475206 39.2808844,28.1283126 Z" id="路径" fill="#000000" opacity="0.1"></path>
                <path d="M40.7577161,38.6098968 L40.5414784,45.5687087 L40.5034586,46.8079166 C40.5034586,46.8079166 37.9418745,46.5702928 35.5513794,46.3089067 C33.626627,46.0986097 31.8123695,45.871679 31.5331616,45.7386097 C31.176726,45.5710849 30.4127656,45.44158 29.8103893,45.3595998 C29.3446468,45.2966295 28.9787062,45.2633621 28.9787062,45.2633621 C28.9787062,45.2633621 28.8420725,45.3037582 28.6317755,45.341778 C28.1731616,45.4249463 27.3676171,45.4926691 26.8983101,45.0851443 C26.2983101,44.5635602 27.8749438,42.6685107 28.2682111,42.2134612 L28.3549438,42.1148473 L28.2064289,40.7425701 L27.8202903,37.1841542 C27.8202903,37.1841542 27.5826666,35.1346493 27.2262309,34.0356394 C27.1309384,33.7231758 27.0621797,33.4032291 27.0206864,33.0792037 C26.8882528,32.0754464 26.9560948,31.0553938 27.2202903,30.0780156 C27.3331675,29.6627114 27.4048014,29.2372852 27.4341517,28.8079166 C27.4935576,27.7089067 30.8499933,23.4613819 31.6816765,23.0752433 C32.0558051,22.9007761 32.3568564,22.6005657 32.5323695,22.2269265 C32.5903129,22.1094448 32.6337985,21.9853712 32.6618745,21.8574216 C33.0183101,20.3128671 33.9200923,20.9259364 33.9200923,20.9259364 C34.137518,22.1342532 37.5034586,25.3326691 37.5034586,25.3326691 L37.5699933,25.3992037 C37.9038547,25.7413819 39.3913794,27.3477186 39.2856369,28.7188077 C39.2645071,29.229116 39.3407151,29.738782 39.5101913,30.2205899 C40.1948475,32.3763987 40.5884278,34.614013 40.6804883,36.8740552 L40.7577161,38.6098968 Z" id="路径" fill="#DCE6F2"></path>
                <path d="M35.9886071,30.3465305 C35.9886071,30.3465305 35.156924,32.3663324 34.5331616,32.6930651 C33.9093992,33.0197978 36.2856369,33.382174 35.9886071,30.3465305 Z" id="路径" fill="#000000" opacity="0.1"></path>
                <path d="M36.6123695,34.1188077 C36.6123695,34.1188077 34.7113794,34.3564315 34.7113794,34.7128671 C34.7113794,35.0693027 36.6123695,34.1188077 36.6123695,34.1188077 Z" id="路径" fill="#000000" opacity="0.1"></path>
                <path d="M38.6024685,36.4356394 C38.6024685,36.4356394 35.8400923,42.3168275 35.0678151,42.4950453 C34.2955378,42.6732631 38.6024685,36.4356394 38.6024685,36.4356394 Z" id="路径" fill="#000000" opacity="0.1"></path>
                <path d="M37.4511814,25.6308869 L35.1664289,26.6241542 L32.4088052,22.4586097 C32.4667485,22.341128 32.5102341,22.2170544 32.5383101,22.0891047 C32.8947458,20.5445503 33.7965279,21.1576196 33.7965279,21.1576196 C34.0139537,22.3659364 37.3798943,25.5643522 37.3798943,25.5643522 L37.4511814,25.6308869 Z" id="路径" fill="#000000" opacity="0.1"></path>
                <path d="M37.5699933,25.3932631 L35.2852408,26.3865305 L32.5276171,22.2209859 C32.5855604,22.1035042 32.629046,21.9794306 32.657122,21.851481 C33.0135576,20.3069265 33.9153398,20.9199958 33.9153398,20.9199958 C34.1327656,22.1283126 37.4987062,25.3267285 37.4987062,25.3267285 L37.5699933,25.3932631 Z" id="路径" fill="#DCE6F2"></path>
                <path d="M40.5034586,46.8079166 C40.5034586,46.8079166 37.9418745,46.5702928 35.5513794,46.3089067 L39.8404883,47.431679 L39.8404883,48.7386097 C39.6527656,48.9085107 39.4899933,48.9964315 39.3842507,48.9512829 C38.8899933,48.7433621 34.8563299,48.0898968 34.8563299,48.0898968 C34.8563299,48.0898968 32.5133596,46.901778 29.9850428,45.4760354 C29.9236731,45.4420373 29.8641808,45.4047555 29.806825,45.3643522 C29.5120229,45.1641943 29.2580002,44.9097684 29.0583101,44.6146493 C28.5913794,43.9386097 28.3632606,43.0700948 28.2646468,42.2182136 C28.2092077,41.7300013 28.1885615,41.2384642 28.2028646,40.7473225 C28.2151114,40.1904159 28.2659261,39.6350269 28.3549438,39.0851443 C28.1104269,36.95537 27.9914094,34.8130557 27.9985081,32.6693027 C28.0282111,29.3425701 31.147023,28.1544513 31.147023,28.1544513 C36.8796963,27.6495008 35.1022705,36.9168275 35.1022705,36.9168275 C35.1022705,36.9168275 34.7707854,39.5306889 34.6804883,39.7980156 C34.5901913,40.0653423 34.2658349,40.5108869 34.3097953,41.1346493 C34.3537557,41.7584117 35.4492012,42.5045503 35.4492012,42.5045503 C35.4492012,42.5045503 36.5185081,43.0059364 36.9593002,43.7485107 C37.2800923,44.2962334 39.3640527,45.0388077 40.5414784,45.5687087 L40.5034586,46.8079166 Z" id="路径" fill="#000000" opacity="0.1"></path>
                <path d="M42.4234586,15.3227681 C42.4256465,15.5184647 42.3850992,15.7122811 42.3046468,15.8906889 C42.2437379,16.0362718 42.1730826,16.1775823 42.0931616,16.3136592 C41.9681154,16.5639702 41.7906259,16.7844138 41.5727656,16.9599958 C41.2983101,17.1560354 40.9513794,17.2106889 40.6222705,17.2902928 C40.2931616,17.3698968 39.9509834,17.4970255 39.7632606,17.7774216 C39.6615226,17.9576733 39.5934806,18.1549548 39.5624685,18.3595998 C39.5309944,18.5640685 39.4493546,18.7575549 39.3248448,18.9227681 C39.1914954,19.0886795 38.9628164,19.1434061 38.7688052,19.0558374 C38.6694396,18.9888491 38.5940894,18.8918514 38.5537557,18.7790057 C38.4183101,18.4736592 38.3838547,18.1350453 38.3292012,17.8059364 C38.2745477,17.4768275 38.19732,17.1382136 37.9953398,16.8732631 C37.7933596,16.6083126 37.4357359,16.4336592 37.1185081,16.5370255 C36.9039643,16.6196198 36.7323494,16.7860863 36.6432606,16.9980156 C36.5554639,17.207991 36.4951628,17.4284294 36.4638547,17.6538572 C36.3165279,18.4601938 36.1426666,19.261778 35.9422705,20.0586097 C35.9361566,20.0912738 35.9227549,20.1221385 35.9030626,20.1489067 C35.871476,20.1803897 35.8288447,20.1982948 35.7842507,20.1988077 C35.5181121,20.2344513 35.2626666,20.0479166 34.9941517,20.0681146 C34.9664831,20.0699575 34.9390416,20.0743322 34.9121715,20.0811839 C34.0228678,18.5356266 34.1942164,16.5990554 35.3410824,15.2336592 L35.3624685,15.2277186 C35.5410868,15.164311 35.7034056,15.0620501 35.8377161,14.9283126 C36.0092277,14.7566816 36.1680605,14.5728326 36.3129636,14.3782136 L36.4080131,14.2594017 C36.6811092,13.9304031 36.9921837,13.6348823 37.3347458,13.3790057 C37.4282544,13.3023981 37.5355179,13.2443307 37.6507854,13.2079166 C37.7494303,13.1886991 37.850526,13.1854897 37.9501913,13.1984117 C38.3605066,13.2476683 38.7741724,13.2631659 39.187023,13.2447483 C39.4746954,13.1995277 39.764639,13.1701764 40.0555378,13.1568275 C40.8076171,13.1782136 41.4492012,13.7093027 41.9244487,14.291481 C42.1798943,14.5896988 42.4080131,14.9330651 42.4234586,15.3227681 Z" id="路径" fill="#000000" opacity="0.1"></path>
                <path d="M34.3490032,15.991679 C34.1838547,16.2625701 33.8856369,16.4467285 33.7739537,16.7437582 C33.6099933,17.1750453 33.886825,17.712075 33.6325675,18.0970255 C33.5482111,18.2265305 33.4092012,18.3227681 33.3616765,18.4712829 C33.2808844,18.721976 33.5018745,18.9893027 33.4448448,19.2471245 C33.3878151,19.5049463 33.0480131,19.722372 33.1383101,19.9742532 C33.1916713,20.0841034 33.2852727,20.1691955 33.3996963,20.211877 C33.5797262,20.315151 33.7869375,20.3611519 33.9937557,20.3437582 C34.3181121,20.2902928 34.5593002,19.971877 34.8884091,19.9481146 C35.1557359,19.9291047 35.4111814,20.1144513 35.67732,20.0799958 C35.721924,20.0784438 35.7643222,20.0602126 35.7961319,20.0289067 C35.8163224,20.0024279 35.8297775,19.9714402 35.8353398,19.9386097 C36.0349438,19.1425701 36.2092012,18.3409859 36.3581121,17.5338572 C36.3884543,17.3083646 36.4483759,17.0878529 36.5363299,16.8780156 C36.626108,16.666558 36.7974842,16.5003231 37.0115774,16.4170255 C37.3288052,16.3148473 37.6852408,16.4883126 37.8884091,16.7532631 C38.0915774,17.0182136 38.1688052,17.3568275 38.2234586,17.6859364 C38.2781121,18.0150453 38.3125675,18.3536592 38.446825,18.6590057 C38.4876196,18.772253 38.5633416,18.8696098 38.6630626,18.9370255 C38.8412804,19.0403918 39.0812804,18.9584117 39.2179141,18.8039562 C39.3430852,18.6386774 39.4247874,18.4446346 39.4555378,18.2395998 C39.4865344,18.0353259 39.5545817,17.8384315 39.6563299,17.6586097 C39.8440527,17.3782136 40.187419,17.2510849 40.5153398,17.171481 C40.8432606,17.091877 41.1890032,17.0360354 41.4658349,16.8399958 C41.683404,16.6645992 41.8608544,16.4446093 41.9862309,16.1948473 C42.1620725,15.8883126 42.3260329,15.5556394 42.3117755,15.2027681 C42.2963299,14.8178176 42.0682111,14.4744513 41.8246468,14.1750453 C41.3493992,13.5928671 40.706627,13.061778 39.9545477,13.04158 C39.6635633,13.0537475 39.3735525,13.0831056 39.0860329,13.1295008 C38.6731514,13.1480677 38.2594406,13.1321711 37.8492012,13.081976 C37.7494464,13.0700438 37.6484447,13.073651 37.5497953,13.0926691 C37.4343936,13.1279127 37.327301,13.1861063 37.2349438,13.2637582 C36.8920472,13.519209 36.5805756,13.8143293 36.307023,14.1429661 C36.1306421,14.3768355 35.9393536,14.5990794 35.7343497,14.8083126 C35.5999844,14.9422627 35.4377082,15.0449024 35.2591022,15.1089067 C35.1402903,15.142174 35.0214784,15.1184117 34.9086071,15.1552433 C34.5581121,15.2657384 34.5117755,15.7231641 34.3490032,15.991679 Z" id="路径" fill="#965D7B"></path>
                <path d="M45.7905873,19.222174 C44.8400923,19.3968275 44.0523695,18.6281146 43.6163299,18.0673225 C43.4824089,17.89701 43.3605291,17.7175647 43.2515774,17.5302928 L46.5141517,18.1457384 L46.6460329,18.1706889 C46.6460329,18.1706889 47.2460329,18.9560354 45.7905873,19.222174 Z" id="路径" fill="#000000" opacity="0.1"></path>
                <g id="编组" opacity="0.1" transform="translate(33.030191, 14.969897)" fill="#000000">
                    <path d="M0.414653465,3.93742574 C0.42794978,3.78204128 0.404337841,3.62571396 0.345742574,3.48118812 C0.345742574,3.49306931 0.335049505,3.5049505 0.331485149,3.51683168 C0.28039604,3.6760396 0.349306931,3.84118812 0.393267327,4.00633663 C0.402708608,3.98414886 0.409874024,3.9610603 0.414653465,3.93742574 L0.414653465,3.93742574 Z" id="路径"></path>
                    <path d="M0.697425743,1.99247525 C0.685202323,2.15676823 0.688384521,2.32184472 0.706930693,2.48554455 C0.719112462,2.32125043 0.71593034,2.15617783 0.697425743,1.99247525 L0.697425743,1.99247525 Z" id="路径"></path>
                    <path d="M8.94891089,0.881584158 C8.8238647,1.1318952 8.64637519,1.3523388 8.42851485,1.52792079 C8.15405941,1.7239604 7.80831683,1.77861386 7.4780198,1.85821782 C7.14772277,1.93782178 6.80673267,2.0649505 6.6190099,2.34534653 C6.51744107,2.52567442 6.44941005,2.72292412 6.41821782,2.92752475 C6.38727149,3.13250457 6.30558889,3.32650073 6.18059406,3.49188119 C6.0439604,3.64633663 5.8039604,3.72950495 5.62574257,3.6249505 C5.52602157,3.5575348 5.45029961,3.46017799 5.40950495,3.34693069 C5.27524752,3.04158416 5.23960396,2.70415842 5.18613861,2.37386139 C5.13267327,2.04356436 5.05306931,1.70613861 4.85108911,1.44118812 C4.64910891,1.17623762 4.29148515,1.00158416 3.97425743,1.1049505 C3.75993981,1.18789822 3.58844509,1.3542481 3.4990099,1.56594059 C3.41105591,1.77577785 3.35113426,1.99628954 3.32079208,2.22178218 C3.17267327,3.02891089 2.99841584,3.83049505 2.7980198,4.62653465 C2.79245753,4.65936519 2.77900235,4.69035287 2.75881188,4.71683168 C2.72700213,4.74813761 2.68460395,4.76636883 2.64,4.76792079 C2.37386139,4.80237624 2.11841584,4.6170297 1.85108911,4.6360396 C1.5219802,4.65980198 1.28079208,4.97821782 0.956435644,5.03049505 C0.749540791,5.04905042 0.541984104,5.00297284 0.362376238,4.89861386 C0.279793892,4.86308366 0.205687672,4.8104399 0.144950495,4.74415842 C0.0886247432,4.82481361 0.0724209465,4.92685374 0.100990099,5.0209901 C0.153323631,5.13160539 0.2472886,5.21702809 0.362376238,5.25861386 C0.541984104,5.36297284 0.749540791,5.40905042 0.956435644,5.39049505 C1.28079208,5.33821782 1.5219802,5.01980198 1.85108911,4.9960396 C2.11841584,4.9770297 2.37386139,5.16237624 2.64,5.12792079 C2.68460395,5.12636883 2.72700213,5.10813761 2.75881188,5.07683168 C2.77900235,5.05035287 2.79245753,5.01936519 2.7980198,4.98653465 C2.99762376,4.19445545 3.17188119,3.39287129 3.32079208,2.58178218 C3.35113426,2.35628954 3.41105591,2.13577785 3.4990099,1.92594059 C3.58844509,1.7142481 3.75993981,1.54789822 3.97425743,1.4649505 C4.29148515,1.36158416 4.64792079,1.53623762 4.85108911,1.80118812 C5.05425743,2.06613861 5.13148515,2.40475248 5.18613861,2.73386139 C5.24079208,3.0629703 5.27524752,3.40158416 5.40950495,3.70693069 C5.45029961,3.82017799 5.52602157,3.9175348 5.62574257,3.9849505 C5.8039604,4.08831683 6.0439604,4.00633663 6.18059406,3.85188119 C6.30558889,3.68650073 6.38727149,3.49250457 6.41821782,3.28752475 C6.44941005,3.08292412 6.51744107,2.88567442 6.6190099,2.70534653 C6.80673267,2.4249505 7.15009901,2.2990099 7.4780198,2.21821782 C7.80594059,2.13742574 8.15168317,2.0839604 8.42851485,1.88792079 C8.64637519,1.7123388 8.8238647,1.4918952 8.94891089,1.24158416 C9.12475248,0.936237624 9.28871287,0.603564356 9.27445545,0.250693069 C9.27211747,0.205322944 9.26735821,0.160110048 9.26019802,0.115247525 C9.20287441,0.387184537 9.09745791,0.646702237 8.94891089,0.881584158 L8.94891089,0.881584158 Z" id="路径"></path>
                </g>
                <path d="M42.3093992,15.8871245 C42.6140847,16.4288482 42.7946691,17.0314725 42.8381121,17.651481 C41.7794982,17.0574216 40.7838547,16.4051443 40.2812804,16.1782136 C39.4056369,15.7825701 36.1311814,15.841976 34.9002903,15.8788077 C35.0290517,15.6487979 35.1794341,15.4315789 35.3493992,15.2300948 C35.6306611,14.8960241 35.9611875,14.6067634 36.3295972,14.372273 C37.3156381,13.7464879 38.5157449,13.5540432 39.6480125,13.8401442 C40.7802801,14.1262451 41.7449205,14.8656774 42.3153398,15.8847483 L42.3093992,15.8871245 Z" id="路径" fill="#000000" opacity="0.1"></path>
                <path d="M46.0876171,18.7184117 C45.5161319,18.8942532 44.5834586,18.5544513 43.6163299,18.0673225 C43.4824089,17.89701 43.3605291,17.7175647 43.2515774,17.5302928 L46.5141517,18.1457384 C46.7303893,18.2930651 46.7850428,18.5033621 46.0876171,18.7184117 Z" id="路径" fill="#000000" opacity="0.1"></path>
                <path d="M38.8555378,11.7679166 C38.8555378,11.7679166 35.736726,11.5896988 34.8598943,13.2827681 L34.7185081,14.7833621 L34.4808844,14.7572235 L34.4333596,15.7778176 C34.4333596,15.7778176 39.2000923,15.5698968 40.2848448,16.0594017 C41.3695972,16.5489067 44.7402903,19.0154414 46.0911814,18.5995998 C47.4420725,18.1837582 45.9723695,17.7976196 45.9723695,17.7976196 C45.9723695,17.7976196 44.1129636,17.0098968 44.1129636,16.392075 C44.1129636,15.7742532 43.6519735,12.5104909 38.8555378,11.7679166 Z" id="路径" fill="#444053"></path>
                <path d="M32.8400923,67.3956394 C32.8400923,67.3956394 34.8301913,69.3263324 35.6915774,69.1778176 C35.6915774,69.1778176 33.2559339,68.9698968 32.8400923,67.3956394 Z" id="路径" fill="#000000" opacity="0.1"></path>
                <path d="M32.4242507,68.2902928 C32.4242507,68.2902928 32.6024685,69.2835602 33.0777161,69.1861344 C33.5529636,69.0887087 32.4242507,68.2902928 32.4242507,68.2902928 Z" id="路径" fill="#000000" opacity="0.1"></path>
                <path d="M35.5430626,84.8906889 C35.5430626,84.8906889 32.7177161,87.0887087 33.1941517,87.1481146 C33.6705873,87.2075206 35.5430626,84.8906889 35.5430626,84.8906889 Z" id="路径" fill="#000000" opacity="0.1"></path>
                <polygon id="路径" fill="#A67F60" points="39.3224685 41.2665305 48.4709834 39.7778176 48.4709834 48.4392037 39.7787062 47.9841542"></polygon>
                <polygon id="路径" fill="#000000" opacity="0.05" points="39.3224685 41.2665305 48.4709834 39.7778176 48.4709834 48.4392037 39.7787062 47.9841542"></polygon>
                <polygon id="路径" fill="#A67F60" points="48.4709834 39.7778176 59.4420725 40.5988077 58.8349438 48.1362334 48.4709834 48.4392037"></polygon>
                <polygon id="路径" fill="#000000" opacity="0.1" points="48.4709834 39.7778176 59.4420725 40.5988077 58.8349438 48.1362334 48.4709834 48.4392037"></polygon>
                <polygon id="路径" fill="#CFBAA6" points="51.8440527 37.1342532 48.4709834 39.7778176 59.4420725 40.5988077 61.2349438 37.8934612"></polygon>
                <polygon id="路径" fill="#CFBAA6" points="36.0099933 38.3794017 44.2460329 37.3766295 48.4709834 39.7778176 39.3224685 41.2665305"></polygon>
                <polygon id="路径" fill="#A67F60" points="50.4765279 42.0269265 50.4765279 53.8689067 46.1909834 53.4293027 44.326825 53.2392037 43.7589042 53.1797978 41.8959339 52.9885107 39.3224685 52.7247483 39.3224685 41.2665305 48.4697953 41.8891047"></polygon>
                <polygon id="路径" fill="#A67F60" points="59.4420725 40.5988077 59.4420725 52.1473225 56.007221 52.8067285 54.336726 53.1275206 50.4765279 53.8689067 50.4765279 42.0269265"></polygon>
                <polygon id="路径" fill="#AD7D5B" opacity="0.05" points="59.4420725 40.5988077 59.4420725 52.1473225 56.007221 52.8067285 54.336726 53.1275206 50.4765279 53.8689067 50.4765279 42.0269265"></polygon>
                <polygon id="路径" fill="#CFBAA6" points="36.0099933 43.7592037 39.3224685 41.2665305 50.4765279 42.0269265 48.8345477 44.7928671"></polygon>
                <polygon id="路径" fill="#CFBAA6" opacity="0.1" points="36.0099933 43.7592037 39.3224685 41.2665305 50.4765279 42.0269265 48.8345477 44.7928671"></polygon>
                <polygon id="路径" fill="#CFBAA6" points="59.4420725 40.5988077 50.4765279 42.0269265 53.3945477 44.6407879 62.9981121 43.0296988"></polygon>
                <polygon id="路径" fill="#CFBAA6" opacity="0.1" points="59.4420725 40.5988077 50.4765279 42.0269265 53.3945477 44.6407879 62.9981121 43.0296988"></polygon>
                <polygon id="路径" fill="#FFFFFF" opacity="0.1" points="56.007221 52.8067285 54.336726 53.1275206 54.336726 50.6597978 55.9014784 50.2653423"></polygon>
                <polygon id="路径" fill="#FFFFFF" opacity="0.1" points="46.1909834 51.7968275 46.1909834 53.4293027 44.326825 53.2392037 44.326825 51.7968275"></polygon>
                <polygon id="路径" fill="#FFFFFF" opacity="0.1" points="43.7589042 52.3112829 43.7589042 53.1797978 41.8959339 52.9885107 41.8959339 52.3112829"></polygon>
                <path d="M49.3549438,50.9306889 C48.0777161,52.5643522 43.8598943,51.4356394 43.8598943,51.4356394 L40.7256369,48.1659364 L40.3002903,47.7227681 L41.1319735,46.1782136 C41.1319735,46.1782136 41.3695972,46.2566295 41.7664289,46.3944513 C43.867023,47.1287087 50.4301913,49.5560354 49.3549438,50.9306889 Z" id="路径" fill="#000000" opacity="0.1"></path>
                <path d="M49.2361319,50.6930651 C47.9589042,52.3267285 43.7410824,51.1980156 43.7410824,51.1980156 L40.606825,47.9283126 L40.1814784,47.4851443 L41.0131616,45.9405899 C41.0131616,45.9405899 41.2507854,46.0190057 41.6476171,46.1568275 C43.7482111,46.8910849 50.3113794,49.3184117 49.2361319,50.6930651 Z" id="路径" fill="#EFB7B9"></path>
                <path d="M41.6428646,46.1568275 C41.4693992,46.6558374 41.0286071,47.3948473 40.6020725,47.9283126 L40.176726,47.4851443 L41.0084091,45.9405899 C41.0084091,45.9405899 41.247221,46.0190057 41.6428646,46.1568275 Z" id="路径" fill="#000000" opacity="0.1"></path>
                <path d="M31.2658349,27.6792037 C31.2658349,27.6792037 28.147023,28.8673225 28.11732,32.1940552 C28.1102213,34.3378082 28.2292388,36.4801225 28.4737557,38.6098968 C28.4737557,38.6098968 27.5826666,43.5702928 30.107419,44.9960354 C32.6321715,46.421778 34.9787062,47.6098968 34.9787062,47.6098968 C34.9787062,47.6098968 39.0123695,48.2633621 39.5078151,48.4712829 C40.0032606,48.6792037 41.7248448,46.0059364 41.457518,45.5603918 C41.1901913,45.1148473 37.5177161,44.0158374 37.0816765,43.2732631 C36.6456369,42.5306889 35.5715774,42.0304909 35.5715774,42.0304909 C35.5715774,42.0304909 34.4761319,41.2831641 34.4321715,40.6594017 C34.3882111,40.0356394 34.7113794,39.5900948 34.8028646,39.3227681 C34.8943497,39.0554414 35.2258349,36.44158 35.2258349,36.44158 C35.2258349,36.44158 36.9985081,27.1683126 31.2658349,27.6792037 Z" id="路径" fill="#DCE6F2"></path>
                <path d="M32.6915774,38.6930651 C32.6915774,38.6930651 28.4737557,39.1683126 28.8004883,40.6534612 C28.8004883,40.6534612 30.4032606,39.1552433 32.6915774,38.6930651 Z" id="路径" fill="#000000" opacity="0.1"></path>
                <path d="M32.6915774,39.2871245 C32.6915774,39.2871245 30.297518,41.0395998 30.737122,41.1584117 C31.176726,41.2772235 32.6915774,39.2871245 32.6915774,39.2871245 Z" id="路径" fill="#000000" opacity="0.1"></path>
                <path d="M33.7608844,39.9999958 C33.7608844,39.9999958 33.0777161,41.2285107 33.4638547,41.1643522 C33.8499933,41.1001938 33.7608844,39.9999958 33.7608844,39.9999958 Z" id="路径" fill="#000000" opacity="0.1"></path>
                <path d="M77.6761319,13.3528671 C77.6761319,13.3528671 73.1612804,13.0807879 73.6888052,16.2483126 C73.6888052,16.2483126 73.5830626,16.8079166 74.0903893,17.062174 C74.0903893,17.062174 74.0987062,16.8245503 74.5537557,16.9065305 C74.7158075,16.9338034 74.8805199,16.9417798 75.0444487,16.9302928 C75.2666041,16.9154763 75.4777797,16.8282516 75.6456369,16.681976 L75.6456369,16.681976 C75.6456369,16.681976 76.9157359,16.1580156 77.4099933,14.0811839 C77.4099933,14.0811839 77.7759339,13.6273225 77.7664289,13.5108869 L77.0036567,13.8376196 C77.0036567,13.8376196 77.2638547,14.3877186 77.0583101,14.8451443 C77.0583101,14.8451443 77.0345477,13.8578176 76.887221,13.8803918 C76.857518,13.8803918 76.4915774,14.071679 76.4915774,14.071679 C76.4915774,14.071679 76.9394982,15.0293027 76.6008844,15.7267285 C76.6008844,15.7267285 76.7292012,14.5457384 76.3513794,14.1405899 L75.8143497,14.4542532 C75.8143497,14.4542532 76.3383101,15.4439562 75.9830626,16.251877 C75.9830626,16.251877 76.0745477,15.0126691 75.7014784,14.5302928 L75.2143497,14.9093027 C75.2143497,14.9093027 75.707419,15.8859364 75.406825,16.5560354 C75.406825,16.5560354 75.3676171,15.1136592 75.1086071,15.0043522 C75.1086071,15.0043522 74.6832606,15.3797978 74.6191022,15.5342532 C74.6191022,15.5342532 74.9553398,16.2471245 74.7462309,16.6166295 C74.7462309,16.6166295 74.6179141,15.6554414 74.5086071,15.6506889 C74.5086071,15.6506889 74.0844487,16.2875206 74.0404883,16.7199958 C74.0610308,16.316809 74.1867852,15.9260282 74.4052408,15.5865305 C74.1607823,15.6327812 73.935245,15.7496806 73.7565279,15.9227681 C73.7565279,15.9227681 73.8218745,15.4724711 74.5097953,15.4332631 C74.5097953,15.4332631 74.8662309,14.9496988 74.9541517,14.9199958 C74.9541517,14.9199958 74.2697953,14.8629661 73.8551418,15.0471245 C73.8551418,15.0471245 74.2198943,14.6229661 75.0800923,14.8095008 L75.5553398,14.4174216 C75.5553398,14.4174216 74.6547458,14.2986097 74.2721715,14.4304909 C74.2721715,14.4304909 74.7117755,14.0550453 75.6848448,14.3283126 L76.2076171,14.0158374 C76.2076171,14.0158374 75.4400923,13.8495008 74.9826666,13.9100948 C74.9826666,13.9100948 75.4650428,13.6498968 76.3608844,13.931481 L76.7351418,13.7639562 C76.7351418,13.7639562 76.1719735,13.6534612 76.0080131,13.6356394 C75.8440527,13.6178176 75.8345477,13.5726691 75.8345477,13.5726691 C76.1908275,13.5133713 76.5565826,13.5545136 76.8907854,13.691481 C76.8907854,13.691481 77.6927656,13.4027681 77.6761319,13.3528671 Z" id="路径" fill="#CFBAA6"></path>
                <path d="M91.3941517,29.1952433 C91.3941517,29.1952433 86.8793002,28.9231641 87.406825,32.0906889 C87.406825,32.0906889 87.3010824,32.6502928 87.8084091,32.9045503 C87.8084091,32.9045503 87.816726,32.6669265 88.2729636,32.7489067 C88.4350154,32.7761796 88.5997279,32.784156 88.7636567,32.7726691 C88.9832024,32.7567514 89.1916579,32.670034 89.3577161,32.5255404 L89.3577161,32.5255404 C89.3577161,32.5255404 90.6290032,32.0003918 91.1232606,29.9235602 C91.1232606,29.9235602 91.4880131,29.4708869 91.4737557,29.3544513 L90.7109834,29.6799958 C90.7109834,29.6799958 90.9711814,30.2300948 90.766825,30.6875206 C90.766825,30.6875206 90.7418745,29.7001938 90.5957359,29.7227681 C90.5660329,29.7227681 90.1989042,29.9140552 90.1989042,29.9140552 C90.1989042,29.9140552 90.6480131,30.8728671 90.3093992,31.5691047 C90.3093992,31.5691047 90.4377161,30.3881146 90.0587062,29.9829661 L89.5276171,30.2930651 C89.5276171,30.2930651 90.0515774,31.2827681 89.6963299,32.0906889 C89.6963299,32.0906889 89.7878151,30.851481 89.4147458,30.3691047 L88.9288052,30.7493027 C88.9288052,30.7493027 89.4206864,31.7247483 89.1212804,32.3948473 C89.1212804,32.3948473 89.0820725,30.9524711 88.8230626,30.8431641 C88.8230626,30.8431641 88.3977161,31.2186097 88.3323695,31.3730651 C88.3323695,31.3730651 88.6697953,32.0859364 88.4606864,32.4554414 C88.4606864,32.4554414 88.3323695,31.4942532 88.2230626,31.4895008 C88.2230626,31.4895008 87.7989042,32.1263324 87.7549438,32.5588077 C87.7761709,32.1555716 87.902311,31.7648649 88.1208844,31.4253423 C87.8761173,31.4717059 87.6502292,31.588573 87.4709834,31.76158 C87.4709834,31.76158 87.537518,31.3112829 88.2254388,31.272075 C88.2254388,31.272075 88.5759339,30.7885107 88.6697953,30.7588077 C88.6697953,30.7588077 87.9854388,30.701778 87.5707854,30.8859364 C87.5707854,30.8859364 87.9355378,30.461778 88.7945477,30.6542532 L89.2697953,30.262174 C89.2697953,30.262174 88.3680131,30.1433621 87.986627,30.2752433 C87.986627,30.2752433 88.4262309,29.8997978 89.3993002,30.1730651 L89.9220725,29.8605899 C89.9220725,29.8605899 89.1533596,29.6954414 88.6959339,29.7548473 C88.6959339,29.7548473 89.1794982,29.4946493 90.0753398,29.7762334 L90.4495972,29.6087087 C90.4495972,29.6087087 89.8864289,29.4982136 89.7212804,29.4803918 C89.5561319,29.4625701 89.5478151,29.4174216 89.5478151,29.4174216 C89.9044852,29.3580883 90.2706312,29.3992283 90.6052408,29.5362334 C90.6052408,29.5362334 91.4084091,29.2451443 91.3941517,29.1952433 Z" id="路径" fill="#A67F60" opacity="0.1"></path>
                <path d="M63.9664289,26.3829661 C63.9664289,26.3829661 65.0060329,21.9762334 61.7933596,21.9607879 C61.7933596,21.9607879 61.2598943,21.7611839 60.9236567,22.2174216 C60.9236567,22.2174216 61.1529636,22.2661344 60.99732,22.7009859 C60.94349,22.8547542 60.9076085,23.0142277 60.8903893,23.1762334 C60.867375,23.3970825 60.9170134,23.6194123 61.0317755,23.8095008 L61.0317755,23.8095008 C61.0317755,23.8095008 61.3323695,25.152075 63.2892012,25.9932631 C63.2892012,25.9932631 63.6741517,26.4304909 63.7905873,26.4352433 L63.6004883,25.6285107 C63.6004883,25.6285107 63.0135576,25.7912829 62.5977161,25.5096988 C62.5977161,25.5096988 63.5755378,25.6534612 63.576726,25.5096988 C63.576726,25.4799958 63.4579141,25.0867285 63.4579141,25.0867285 C63.4579141,25.0867285 62.43732,25.3647483 61.8076171,24.912075 C61.8076171,24.912075 62.9493992,25.2399958 63.4139537,24.9370255 L63.2000923,24.3524711 C63.2000923,24.3524711 62.1307854,24.7005899 61.3989042,24.212273 C61.3989042,24.212273 62.6048448,24.5140552 63.1442507,24.2289067 L62.8531616,23.6847483 C62.8531616,23.6847483 61.8076171,24.0031641 61.1981121,23.5932631 C61.1981121,23.5932631 62.6238547,23.7999958 62.7783101,23.5647483 C62.7783101,23.5647483 62.4812804,23.0811839 62.3398943,22.9908869 C62.3398943,22.9908869 61.5842507,23.202372 61.2515774,22.9326691 C61.2515774,22.9326691 62.2198943,22.9695008 62.2424685,22.8673225 C62.2424685,22.8673225 61.6876171,22.3409859 61.2646468,22.222174 C61.6588147,22.3119206 62.0228303,22.5027319 62.3208844,22.7758374 C62.3165274,22.5268318 62.2397366,22.2844866 62.0998943,22.0784117 C62.0998943,22.0784117 62.5323695,22.2209859 62.4563299,22.9100948 C62.4563299,22.9100948 62.8721715,23.3378176 62.8852408,23.4352433 C62.8852408,23.4352433 63.057518,22.7710849 62.947023,22.3302928 C62.947023,22.3302928 63.3034586,22.7627681 62.967221,23.5766295 L63.2713794,24.1172235 C63.2713794,24.1172235 63.547023,23.2498968 63.476924,22.8506889 C63.476924,22.8506889 63.7727656,23.3473225 63.336726,24.2597978 L63.5565279,24.8289067 C63.5565279,24.8289067 63.8499933,24.0994017 63.8690032,23.6407879 C63.8690032,23.6407879 64.0436567,24.1611839 63.6123695,24.9964315 L63.7145477,25.3932631 C63.7145477,25.3932631 63.9189042,24.8574216 63.9640527,24.6982136 C64.0092012,24.5390057 64.0555378,24.5378176 64.0555378,24.5378176 C64.0537272,24.8992764 63.9512862,25.2530886 63.7596963,25.5595998 C63.7596963,25.5595998 63.9153398,26.3889067 63.9664289,26.3829661 Z" id="路径" fill="#A67F60" opacity="0.1"></path>
                <path d="M54.0789042,27.8847483 C54.0789042,27.8847483 50.4527656,25.172273 49.1565279,28.1104909 C49.1565279,28.1104909 48.7608844,28.5203918 49.0448448,29.0110849 C49.0448448,29.0110849 49.1802903,28.8197978 49.5200923,29.1370255 C49.6404511,29.2489983 49.7736575,29.3463108 49.916924,29.4269265 C50.1109752,29.5349781 50.3350061,29.5766971 50.5549438,29.5457384 L50.5549438,29.5457384 C50.5549438,29.5457384 51.9046468,29.8059364 53.4587062,28.3433621 C53.4587062,28.3433621 54.0135576,28.1651443 54.0658349,28.0605899 L53.247221,27.9168275 C53.247221,27.9168275 53.1616765,28.5192037 52.7398943,28.7889067 C52.7398943,28.7889067 53.2614784,27.9500948 53.1260329,27.8895008 C53.0987062,27.8764315 52.6899933,27.8300948 52.6899933,27.8300948 C52.6899933,27.8300948 52.5379141,28.8780156 51.8725675,29.2736592 C51.8725675,29.2736592 52.6293992,28.3576196 52.5355378,27.8110849 L51.9141517,27.7778176 C51.9141517,27.7778176 51.8084091,28.8934612 51.067023,29.3734612 C51.067023,29.3734612 51.8238547,28.3885107 51.7798943,27.7801938 L51.1644487,27.8300948 C51.1644487,27.8300948 51.0396963,28.9148473 50.4206864,29.3093027 C50.4206864,29.3093027 51.1798943,28.0831641 51.0242507,27.8502928 C51.0242507,27.8502928 50.4622705,27.9298968 50.3232606,28.0225701 C50.3232606,28.0225701 50.2151418,28.7995998 49.8349438,28.9968275 C49.8349438,28.9968275 50.256726,28.1235602 50.1711814,28.0629661 C50.1711814,28.0629661 49.466627,28.3611839 49.1897953,28.7009859 C49.4292667,28.3756348 49.7495303,28.1184409 50.1189042,27.9548473 C49.8890805,27.8593266 49.6363889,27.8329014 49.3917755,27.8788077 C49.3917755,27.8788077 49.6935576,27.5390057 50.2899933,27.8847483 C50.2899933,27.8847483 50.8484091,27.6744513 50.9434586,27.7005899 C50.9434586,27.7005899 50.4028646,27.2764315 49.9549438,27.2027681 C49.9549438,27.2027681 50.4943497,27.0483126 51.1062309,27.6780156 L51.7228646,27.6150453 C51.7228646,27.6150453 51.03732,27.0209859 50.6440527,26.9211839 C50.6440527,26.9211839 51.2179141,26.8487087 51.8796963,27.611481 L52.4880131,27.6388077 C52.4880131,27.6388077 51.9379141,27.0780156 51.5232606,26.8760354 C51.5232606,26.8760354 52.0686071,26.9235602 52.6626666,27.651877 L53.0678151,27.7172235 C53.0678151,27.7172235 52.6579141,27.3156394 52.5295972,27.2110849 C52.4012804,27.1065305 52.4191022,27.0625701 52.4191022,27.0625701 C52.7496353,27.2089384 53.0330338,27.4442126 53.2377161,27.742174 C53.2377161,27.742174 54.0634586,27.9334612 54.0789042,27.8847483 Z" id="路径" fill="#A67F60" opacity="0.1"></path>
                <path d="M66.1513794,2.68356016 C66.1513794,2.68356016 62.5252408,-0.0301032014 61.2290032,2.90930274 C61.2290032,2.90930274 60.8333596,3.31920373 61.11732,3.8098968 C61.11732,3.8098968 61.2527656,3.61860967 61.5925675,3.93583739 C61.7135569,4.04723187 61.8471338,4.14412496 61.9905873,4.22455026 C62.1846086,4.33268482 62.4086676,4.37440902 62.6286071,4.34336215 L62.6286071,4.34336215 C62.6286071,4.34336215 63.9783101,4.60356016 65.5323695,3.13979779 C65.5323695,3.13979779 66.087221,2.96276809 66.1383101,2.85702551 L65.3196963,2.71563937 C65.3196963,2.71563937 65.2353398,3.31801561 64.8123695,3.58771858 C64.8123695,3.58771858 65.3351418,2.7489067 65.1996963,2.68831264 C65.1723695,2.67524333 64.7636567,2.6289067 64.7636567,2.6289067 C64.7636567,2.6289067 64.606825,3.67920373 63.9414784,4.07247106 C63.9414784,4.07247106 64.697122,3.15643145 64.6044487,2.6098968 L63.9830626,2.57662947 C63.9830626,2.57662947 63.8761319,3.69227304 63.1359339,4.17108492 C63.1359339,4.17108492 63.8927656,3.18613442 63.8488052,2.57781759 L63.2345477,2.62771858 C63.2345477,2.62771858 63.1086071,3.71365917 62.4895972,4.10811462 C62.4895972,4.10811462 63.2499933,2.88197601 63.0943497,2.64910472 C63.0943497,2.64910472 62.5323695,2.72870868 62.3933596,2.82138195 C62.3933596,2.82138195 62.2852408,3.59841165 61.9050428,3.79563937 C61.9050428,3.79563937 62.326825,2.92237205 62.2412804,2.86058987 C62.2412804,2.86058987 61.536726,3.15999581 61.2598943,3.49979779 C61.4990037,3.17409987 61.8193689,2.91682454 62.1890032,2.75365917 C61.9589435,2.65742812 61.705662,2.63098438 61.4606864,2.67761957 C61.4606864,2.67761957 61.7636567,2.33781759 62.3600923,2.68356016 C62.3600923,2.68356016 62.9185081,2.47207502 63.0135576,2.49940175 C63.0135576,2.49940175 62.4729636,2.07524333 62.0250428,2.00039185 C62.0250428,2.00039185 62.5632606,1.84712452 63.1751418,2.47563937 L63.7917755,2.41266908 C63.7917755,2.41266908 63.107419,1.81860967 62.7129636,1.71761957 C62.7129636,1.71761957 63.286825,1.64633244 63.9497953,2.40910472 L64.5581121,2.43524333 C64.5581121,2.43524333 64.0080131,1.87445125 63.5921715,1.67365917 C63.5921715,1.67365917 64.1387062,1.72118393 64.7327656,2.44950076 L65.136726,2.51484729 C65.136726,2.51484729 64.7256369,2.11801561 64.59732,2.01583739 C64.4690032,1.91365917 64.486825,1.86851066 64.486825,1.86851066 C64.8174577,2.01471827 65.1008962,2.25002571 65.3054388,2.54811462 C65.3054388,2.54811462 66.1311814,2.72870868 66.1513794,2.68356016 Z" id="路径" fill="#A67F60" opacity="0.1"></path>
                <path d="M80.007221,6.12078789 C80.007221,6.12078789 78.5577161,1.83049086 75.8238547,3.51643145 C75.8238547,3.51643145 75.2654388,3.63524333 75.2214784,4.19484729 C75.2214784,4.19484729 75.4412804,4.11405521 75.5387062,4.56554036 C75.5749022,4.72614073 75.6295214,4.88202453 75.7014784,5.03009482 C75.7996749,5.2293679 75.9597299,5.39150695 76.1577161,5.49227304 L76.1577161,5.49227304 C76.1577161,5.49227304 77.1224685,6.47247106 79.2325675,6.14811462 C79.2325675,6.14811462 79.7897953,6.31682749 79.8919735,6.25860967 L79.2979141,5.67524333 C79.2979141,5.67524333 78.886825,6.12316413 78.3854388,6.10534234 C78.3854388,6.10534234 79.2919735,5.7108869 79.217122,5.58375818 C79.2016765,5.55880769 78.8915774,5.28910472 78.8915774,5.28910472 C78.8915774,5.28910472 78.1715774,6.0649463 77.3993002,6.01385719 C77.3993002,6.01385719 78.5410824,5.68831264 78.7739537,5.18217403 L78.2820725,4.80316413 C78.2820725,4.80316413 77.5620725,5.66098591 76.6793002,5.63484729 C76.6793002,5.63484729 77.867419,5.25346116 78.1680131,4.7259364 L77.6333596,4.41821363 C77.6333596,4.41821363 76.9204883,5.24157997 76.1814784,5.21544135 C76.1814784,5.21544135 77.5026666,4.63682749 77.5062309,4.35643145 C77.5062309,4.35643145 76.9989042,4.10336215 76.8313794,4.10098591 C76.8313794,4.10098591 76.3014784,4.67959977 75.8808844,4.62732254 C75.8808844,4.62732254 76.7220725,4.14613442 76.6864289,4.04752056 C76.6864289,4.04752056 75.9379141,3.89425323 75.5161319,4.01781759 C75.8976201,3.88499297 76.307218,3.85427313 76.7042507,3.92870868 C76.5686722,3.71947895 76.3750264,3.55432264 76.147023,3.45346116 C76.147023,3.45346116 76.5890032,3.34534234 76.8848448,3.9679166 C76.8848448,3.9679166 77.4646468,4.11167898 77.5264289,4.18653046 C77.5264289,4.18653046 77.3220725,3.531877 76.9953398,3.21583739 C76.9953398,3.21583739 77.5264289,3.39524333 77.6713794,4.26375818 L78.2155378,4.56078789 C78.2155378,4.56078789 77.9909834,3.68039185 77.7200923,3.37266908 C77.7200923,3.37266908 78.2345477,3.63880769 78.3462309,4.64276809 L78.8333596,5.0098968 C78.8333596,5.0098968 78.6979141,4.23524333 78.4697953,3.83365917 C78.4697953,3.83365917 78.8927656,4.18296611 78.9688052,5.12039185 L79.2646468,5.40316413 C79.2646468,5.40316413 79.1553398,4.83999581 79.1101913,4.68078789 C79.0650428,4.52157997 79.1018745,4.5108869 79.1018745,4.5108869 C79.2907504,4.81910147 79.3906737,5.17356179 79.3905873,5.53504531 C79.3905873,5.53504531 79.9656369,6.15167898 80.007221,6.12078789 Z" id="路径" fill="#A67F60" opacity="0.1"></path>
                <path d="M70.547419,6.33227304 C70.547419,6.33227304 66.0444487,5.8308869 66.4163299,9.02573838 C66.4163299,9.02573838 66.2820725,9.57940175 66.7727656,9.85742155 C66.7727656,9.85742155 66.7929636,9.61979779 67.2480131,9.72672848 C67.408829,9.76133085 67.5730367,9.7776719 67.737518,9.77544135 C67.9596947,9.77142891 68.1745074,9.69509742 68.3493992,9.55801561 L68.3493992,9.55801561 C68.3493992,9.55801561 69.6456369,9.09821363 70.2503893,7.04870868 C70.2503893,7.04870868 70.6377161,6.61504531 70.6293992,6.49742155 L69.8511814,6.7849463 C69.8511814,6.7849463 70.0888052,7.3469265 69.8511814,7.79365917 C69.8511814,7.79365917 69.8761319,6.80633244 69.7323695,6.82177799 C69.7026666,6.82177799 69.327221,6.9928671 69.327221,6.9928671 C69.327221,6.9928671 69.7264289,7.97306512 69.3533596,8.65623343 C69.3533596,8.65623343 69.5410824,7.48237205 69.1834586,7.05940175 L68.6309834,7.34455026 C68.6309834,7.34455026 69.1062309,8.36039185 68.7082111,9.14930274 C68.7082111,9.14930274 68.8626666,7.91603541 68.5145477,7.41583739 L68.0095972,7.77227304 C68.0095972,7.77227304 68.4515774,8.77148096 68.1177161,9.42613442 C68.1177161,9.42613442 68.1521715,7.98375818 67.8991022,7.86138195 C67.8991022,7.86138195 67.4547458,8.21781759 67.3822705,8.36514432 C67.3822705,8.36514432 67.6828646,9.0898968 67.4559339,9.45227304 C67.4559339,9.45227304 67.3763299,8.48633244 67.2717755,8.47682749 C67.2717755,8.47682749 66.8155378,9.09108492 66.7490032,9.52474828 C66.7902163,9.12269206 66.9360481,8.73844971 67.1719735,8.41029284 C66.9254278,8.44436325 66.6941888,8.54965958 66.506627,8.71326314 C66.506627,8.71326314 66.5945477,8.26771858 67.2836567,8.26296611 C67.2836567,8.26296611 67.6579141,7.79841165 67.7589042,7.77346116 C67.7589042,7.77346116 67.0781121,7.68197601 66.6539537,7.84474828 C66.6539537,7.84474828 67.0400923,7.43841165 67.8884091,7.67484729 L68.3886071,7.30771858 C68.3886071,7.30771858 67.4844487,7.12474828 67.1018745,7.24356016 C67.1018745,7.24356016 67.5604883,6.88712452 68.5181121,7.21385719 L69.0563299,6.92752056 C69.0563299,6.92752056 68.297122,6.72316413 67.83732,6.75999581 C67.83732,6.75999581 68.3327656,6.52237205 69.2131616,6.85148096 L69.5957359,6.70296611 C69.5957359,6.70296611 69.0385081,6.5639562 68.8745477,6.53781759 C68.7105873,6.51167898 68.7046468,6.46653046 68.7046468,6.46653046 C69.0638313,6.42531889 69.4274078,6.48454401 69.7549438,6.63761957 C69.7549438,6.63761957 70.5557359,6.38217403 70.547419,6.33227304 Z" id="路径" fill="#A67F60" opacity="0.1"></path>
                <path d="M109.945439,41.2831641 C109.945439,41.2831641 105.444845,40.781778 105.816726,43.9730651 C105.816726,43.9730651 105.682469,44.5267285 106.173162,44.8047483 C106.173162,44.8047483 106.19336,44.5671245 106.648409,44.6728671 C106.809039,44.7086418 106.973384,44.7249966 107.137914,44.72158 C107.360201,44.7181773 107.575203,44.6417787 107.749795,44.5041542 L107.749795,44.5041542 C107.749795,44.5041542 109.046033,44.0443522 109.644845,41.9960354 C109.644845,41.9960354 110.032172,41.5611839 110.023855,41.4447483 L109.245637,41.7310849 C109.245637,41.7310849 109.483261,42.2942532 109.245637,42.7409859 C109.245637,42.7409859 109.270587,41.7524711 109.126825,41.7691047 C109.097122,41.7691047 108.721676,41.9390057 108.721676,41.9390057 C108.721676,41.9390057 109.120884,42.9192037 108.747815,43.602372 C108.747815,43.602372 108.935538,42.4296988 108.577914,42.0055404 L108.025439,42.291877 C108.025439,42.291877 108.500686,43.3077186 108.103855,44.0966295 C108.103855,44.0966295 108.257122,42.8633621 107.909003,42.361976 L107.404053,42.7184117 C107.404053,42.7184117 107.846033,43.7176196 107.512172,44.3710849 C107.512172,44.3710849 107.546627,42.9287087 107.293558,42.8075206 C107.293558,42.8075206 106.850389,43.1639562 106.776726,43.3112829 C106.776726,43.3112829 107.078508,44.0360354 106.850389,44.3984117 C106.850389,44.3984117 106.770785,43.4324711 106.666231,43.4229661 C106.666231,43.4229661 106.209993,44.0372235 106.143459,44.4708869 C106.184672,44.0688307 106.330504,43.6845883 106.566429,43.3564315 C106.319707,43.3898934 106.088301,43.4952659 105.901082,43.6594017 C105.901082,43.6594017 105.989003,43.2126691 106.678112,43.2079166 C106.678112,43.2079166 107.053558,42.7433621 107.15336,42.7195998 C107.15336,42.7195998 106.472568,42.6269265 106.048409,42.7896988 C106.048409,42.7896988 106.434548,42.3845503 107.284053,42.6209859 L107.783063,42.2538572 C107.783063,42.2538572 106.889597,42.0851443 106.501082,42.20158 C106.501082,42.20158 106.959696,41.8451443 107.91732,42.1706889 L108.455538,41.8855404 C108.455538,41.8855404 107.69633,41.6811839 107.236528,41.7180156 C107.236528,41.7180156 107.731973,41.4803918 108.61237,41.8095008 L108.994944,41.6597978 C108.994944,41.6597978 108.437716,41.5207879 108.273756,41.4958374 C108.109795,41.4708869 108.103855,41.4245503 108.103855,41.4245503 C108.462937,41.3825908 108.826612,41.4414205 109.154152,41.5944513 C109.154152,41.5944513 109.95732,41.3342532 109.945439,41.2831641 Z" id="路径" fill="#A67F60" opacity="0.1"></path>
                <path d="M116.825835,45.4867285 C116.825835,45.4867285 112.325241,44.9865305 112.697122,48.1766295 C112.697122,48.1766295 112.564053,48.7302928 113.053558,49.0083126 C113.053558,49.0083126 113.073756,48.7706889 113.528805,48.8776196 C113.689157,48.9125134 113.853051,48.9284641 114.017122,48.9251443 C114.238282,48.9206184 114.452064,48.8447738 114.626627,48.7089067 L114.626627,48.7089067 C114.626627,48.7089067 115.921676,48.2491047 116.520488,46.1995998 C116.520488,46.1995998 116.909003,45.7659364 116.899498,45.6483126 L116.12128,45.9346493 C116.12128,45.9346493 116.358904,46.4978176 116.12128,46.9445503 C116.12128,46.9445503 116.146231,45.9572235 116.002469,45.9726691 C115.972766,45.9726691 115.59732,46.1425701 115.59732,46.1425701 C115.59732,46.1425701 115.996528,47.1227681 115.623459,47.8059364 C115.623459,47.8059364 115.811181,46.6332631 115.453558,46.2102928 L114.901082,46.4954414 C114.901082,46.4954414 115.37633,47.5112829 114.979498,48.3001938 C114.979498,48.3001938 115.132766,47.0669265 114.784647,46.5667285 L114.279696,46.9231641 C114.279696,46.9231641 114.721676,47.922372 114.389003,48.5770255 C114.389003,48.5770255 114.422271,47.1334612 114.169201,47.012273 C114.169201,47.012273 113.726033,47.3687087 113.65237,47.5160354 C113.65237,47.5160354 113.954152,48.2407879 113.726033,48.6031641 C113.726033,48.6031641 113.646429,47.6372235 113.541874,47.6277186 C113.541874,47.6277186 113.085637,48.241976 113.02029,48.6756394 C113.061422,48.2737596 113.206815,47.8895941 113.442072,47.5611839 C113.195527,47.5952543 112.964288,47.7005507 112.776726,47.8641542 C112.776726,47.8641542 112.865835,47.4174216 113.554944,47.4138572 C113.554944,47.4138572 113.929201,46.9493027 114.030191,46.9243522 C114.030191,46.9243522 113.349399,46.8328671 112.925241,46.9956394 C112.925241,46.9956394 113.311379,46.5893027 114.160884,46.8257384 L114.659894,46.4586097 C114.659894,46.4586097 113.766429,46.2898968 113.377914,46.4063324 C113.377914,46.4063324 113.836528,46.0498968 114.794152,46.3766295 L115.33237,46.0902928 C115.33237,46.0902928 114.573162,45.8859364 114.11336,45.9227681 C114.11336,45.9227681 114.608805,45.6851443 115.489201,46.0142532 L115.871775,45.8657384 C115.871775,45.8657384 115.314548,45.7267285 115.151775,45.7005899 C114.989003,45.6744513 114.980686,45.6293027 114.980686,45.6293027 C115.339871,45.5880912 115.703447,45.6473163 116.030983,45.8003918 C116.030983,45.8003918 116.837716,45.5378176 116.825835,45.4867285 Z" id="路径" fill="#A67F60" opacity="0.1"></path>
                <path d="M101.550191,10.0795998 C101.550191,10.0795998 97.9240527,7.36712452 96.6278151,10.3053423 C96.6278151,10.3053423 96.2321715,10.7152433 96.5161319,11.2059364 C96.5161319,11.2059364 96.6515774,11.0146493 96.9913794,11.331877 C97.1117383,11.4438498 97.2449447,11.5411623 97.3882111,11.621778 C97.5822921,11.7297468 97.8062952,11.7714606 98.0262309,11.7405899 L98.0262309,11.7405899 C98.0262309,11.7405899 99.3759339,12.0007879 100.931181,10.5382136 C100.931181,10.5382136 101.484845,10.3599958 101.537122,10.2554414 L100.720884,10.1081146 C100.720884,10.1081146 100.63534,10.7104909 100.213558,10.9801938 C100.213558,10.9801938 100.735142,10.1413819 100.599696,10.0807879 C100.57237,10.0677186 100.164845,10.0213819 100.164845,10.0213819 C100.164845,10.0213819 100.011577,11.0693027 99.3462309,11.4649463 C99.3462309,11.4649463 100.103063,10.5489067 100.009201,10.002372 L99.3878151,9.96910472 C99.3878151,9.96910472 99.2820725,11.0847483 98.5406864,11.5647483 C98.5406864,11.5647483 99.2987062,10.5797978 99.2535576,9.97148096 L98.6381121,10.0213819 C98.6381121,10.0213819 98.5193002,11.1061344 97.8943497,11.5005899 C97.8943497,11.5005899 98.6547458,10.2744513 98.4979141,10.04158 C98.4979141,10.04158 97.9359339,10.1211839 97.796924,10.2138572 C97.796924,10.2138572 97.6899933,10.9908869 97.3097953,11.1881146 C97.3097953,11.1881146 97.7303893,10.3148473 97.6448448,10.2542532 C97.6448448,10.2542532 96.9402903,10.5524711 96.6634586,10.892273 C96.90293,10.5669219 97.2231937,10.309728 97.5925675,10.1461344 C97.3627439,10.0506138 97.1100523,10.0241885 96.8654388,10.0700948 C96.8654388,10.0700948 97.1684091,9.73029284 97.7648448,10.0760354 C97.7648448,10.0760354 98.3220725,9.86573838 98.417122,9.891877 C98.417122,9.891877 97.8765279,9.46771858 97.4286071,9.39405521 C97.4286071,9.39405521 97.9680131,9.23959977 98.5798943,9.86930274 L99.1965279,9.80633244 C99.1965279,9.80633244 98.5121715,9.21227304 98.1177161,9.11247106 C98.1177161,9.11247106 98.6915774,9.03999581 99.3533596,9.80276809 L99.9628646,9.83009482 C99.9628646,9.83009482 99.4115774,9.26930274 98.996924,9.06732254 C98.996924,9.06732254 99.5434586,9.11484729 100.13633,9.84316413 L100.541478,9.90851066 C100.541478,9.90851066 100.131577,9.5069265 100.003261,9.40237205 C99.8749438,9.29781759 99.8939537,9.26336215 99.8939537,9.26336215 C100.224019,9.40996919 100.506974,9.64521675 100.711379,9.94296611 C100.711379,9.94296611 101.534746,10.1283126 101.550191,10.0795998 Z" id="路径" fill="#A67F60" opacity="0.1"></path>
                <path d="M104.351775,29.662174 C104.351775,29.662174 103.101874,25.3100948 100.290785,26.8724711 C100.290785,26.8724711 99.7276171,26.9592037 99.657518,27.522372 C99.657518,27.522372 99.8808844,27.452273 99.9581121,27.9073225 C99.9867491,28.0708018 100.034606,28.2303239 100.100686,28.3825701 C100.188813,28.5873043 100.341542,28.757559 100.535538,28.8673225 L100.535538,28.8673225 C100.535538,28.8673225 101.455142,29.8891047 103.577122,29.6609859 C103.577122,29.6609859 104.126033,29.8534612 104.230587,29.8011839 L103.668607,29.1904909 C103.668607,29.1904909 103.23732,29.6205899 102.73831,29.5801938 C102.73831,29.5801938 103.66029,29.2237582 103.589003,29.0966295 C103.574746,29.0704909 103.277716,28.7865305 103.277716,28.7865305 C103.277716,28.7865305 102.524449,29.5302928 101.754548,29.4435602 C101.754548,29.4435602 102.910587,29.1702928 103.164845,28.6784117 L102.689597,28.2768275 C102.689597,28.2768275 101.931577,29.1013819 101.051181,29.0372235 C101.051181,29.0372235 102.248805,28.7081146 102.579102,28.1960354 L102.058706,27.8645503 C102.058706,27.8645503 101.304251,28.6546493 100.57237,28.5952433 C100.57237,28.5952433 101.918508,28.0760354 101.935142,27.7968275 C101.935142,27.7968275 101.438508,27.5211839 101.270983,27.511679 C101.270983,27.511679 100.716132,28.0653423 100.29435,27.9940552 C100.29435,27.9940552 101.156924,27.5508869 101.126033,27.4510849 C101.126033,27.4510849 100.384647,27.2645503 99.9581121,27.3679166 C100.344426,27.2533616 100.753928,27.241486 101.146231,27.3334612 C101.020573,27.118478 100.834706,26.9450019 100.611577,26.8344513 C100.611577,26.8344513 101.05831,26.7453423 101.324449,27.3809859 C101.324449,27.3809859 101.895934,27.5496988 101.95534,27.6281146 C101.95534,27.6281146 101.780686,26.9639562 101.468211,26.6348473 C101.468211,26.6348473 101.990983,26.8368275 102.096726,27.7112829 L102.626627,28.0332631 C102.626627,28.0332631 102.44128,27.142174 102.184647,26.8285107 C102.184647,26.8285107 102.686033,27.1172235 102.753756,28.1247483 L103.229003,28.5132631 C103.229003,28.5132631 103.128013,27.7338572 102.918904,27.3251443 C102.918904,27.3251443 103.326429,27.6934612 103.359696,28.632075 L103.642469,28.9291047 C103.642469,28.9291047 103.5593,28.3611839 103.523657,28.1995998 C103.488013,28.0380156 103.523657,28.0154414 103.523657,28.0154414 C103.699473,28.3314715 103.783811,28.6902177 103.767221,29.051481 C103.767221,29.051481 104.309003,29.6906889 104.351775,29.662174 Z" id="路径" fill="#A67F60" opacity="0.1"></path>
                <path d="M76.4998943,39.4689067 C76.4998943,39.4689067 74.0725675,35.6455404 71.8187062,37.9338572 C71.8187062,37.9338572 71.3030626,38.171481 71.3933596,38.7358374 C71.3933596,38.7358374 71.5893992,38.6051443 71.7913794,39.0209859 C71.8639561,39.1683556 71.9541178,39.3063907 72.0598943,39.432075 C72.2015587,39.6036189 72.3956776,39.7238474 72.6123695,39.7742532 L72.6123695,39.7742532 C72.6123695,39.7742532 73.7826666,40.4966295 75.7549438,39.6792037 C75.7549438,39.6792037 76.3359339,39.7100948 76.4214784,39.6304909 L75.7086071,39.2027681 C75.7086071,39.2027681 75.4151418,39.7374216 74.9244487,39.8384117 C74.9244487,39.8384117 75.7109834,39.2443522 75.6052408,39.1350453 C75.5850428,39.1136592 75.2191022,38.9259364 75.2191022,38.9259364 C75.2191022,38.9259364 74.7046468,39.8502928 73.9418745,39.9845503 C73.9418745,39.9845503 74.9743497,39.3964315 75.0812804,38.852273 L74.5121715,38.60158 C74.5121715,38.60158 74.016726,39.6055404 73.1541517,39.7896988 C73.1541517,39.7896988 74.2115774,39.1374216 74.3838547,38.5528671 L73.7897953,38.381778 C73.7897953,38.381778 73.2884091,39.3524711 72.5695972,39.5009859 C72.5695972,39.5009859 73.7149438,38.6241542 73.6519735,38.3508869 C73.6519735,38.3508869 73.0983101,38.2261344 72.9391022,38.2641542 C72.9391022,38.2641542 72.5624685,38.952075 72.137122,39.001976 C72.137122,39.001976 72.8404883,38.3342532 72.7822705,38.2463324 C72.7822705,38.2463324 72.0183101,38.2760354 71.6381121,38.4958374 C71.9772556,38.2761237 72.3680612,38.1491324 72.7715774,38.1275206 C72.5909158,37.9565307 72.3641776,37.8421291 72.1193002,37.7984117 C72.1193002,37.7984117 72.5220725,37.5881146 72.9509834,38.1227681 C72.9509834,38.1227681 73.5450428,38.1227681 73.627023,38.182174 C73.627023,38.182174 73.2705873,37.5881146 72.8796963,37.3659364 C72.8796963,37.3659364 73.4381121,37.4134612 73.7850428,38.2225701 L74.3850428,38.381778 C74.3850428,38.381778 73.9561319,37.5797978 73.6222705,37.3504909 C73.6222705,37.3504909 74.1842507,37.4859364 74.5323695,38.4352433 L75.0931616,38.6728671 C75.0931616,38.6728671 74.777122,37.9540552 74.4598943,37.6178176 C74.4598943,37.6178176 74.9541517,37.8554414 75.2499933,38.7477186 L75.6064289,38.9532631 C75.6064289,38.9532631 75.3688052,38.431679 75.2844487,38.2879166 C75.2000923,38.1441542 75.2333596,38.1108869 75.2333596,38.1108869 C75.4904617,38.3648444 75.6718737,38.6852978 75.75732,39.0364315 C75.75732,39.0364315 76.4678151,39.5093027 76.4998943,39.4689067 Z" id="路径" fill="#A67F60" opacity="0.1"></path>
                <path d="M92.4527656,19.9338572 C92.4527656,19.9338572 90.1442507,16.0380156 87.8191022,18.2550453 C87.8191022,18.2550453 87.2963299,18.4807879 87.3699933,19.0439562 C87.3699933,19.0439562 87.5684091,18.9180156 87.7585081,19.3397978 C87.8264863,19.4897301 87.9122507,19.6309422 88.0139537,19.7603918 C88.1503903,19.9356007 88.3408309,20.0608906 88.5557359,20.1168275 L88.5557359,20.1168275 C88.5557359,20.1168275 89.7022705,20.8748473 91.6994982,20.1168275 C91.6994982,20.1168275 92.2793002,20.1655404 92.367221,20.0883126 L91.6697953,19.6392037 C91.6697953,19.6392037 91.3608844,20.1631641 90.866627,20.2498968 C90.866627,20.2498968 91.6709834,19.6760354 91.5699933,19.5679166 C91.5486071,19.5453423 91.1897953,19.3457384 91.1897953,19.3457384 C91.1897953,19.3457384 90.646825,20.2546493 89.8828646,20.3651443 C89.8828646,20.3651443 90.9331616,19.8091047 91.0555378,19.2696988 L90.4947458,19.0059364 C90.4947458,19.0059364 89.9684091,19.9956394 89.0998943,20.1536592 C89.0998943,20.1536592 90.177518,19.5346493 90.3676171,18.9560354 L89.7806864,18.7659364 C89.7806864,18.7659364 89.2484091,19.7164315 88.5260329,19.8471245 C88.5260329,19.8471245 89.697518,19.0059364 89.6428646,18.731481 C89.6428646,18.731481 89.0939537,18.5889067 88.9299933,18.622174 C88.9299933,18.622174 88.5319735,19.2982136 88.1054388,19.3350453 C88.1054388,19.3350453 88.8290032,18.6910849 88.7743497,18.6007879 C88.7743497,18.6007879 88.0092012,18.6067285 87.6230626,18.8146493 C87.9689678,18.6060061 88.363371,18.4913302 88.767221,18.481976 C88.5916052,18.3053586 88.3681816,18.1839418 88.1244487,18.1326691 C88.1244487,18.1326691 88.5343497,17.9342532 88.9561319,18.481976 C88.9561319,18.481976 89.5501913,18.502174 89.6297953,18.5627681 C89.6297953,18.5627681 89.2935576,17.9687087 88.9086071,17.7239562 C88.9086071,17.7239562 89.4646468,17.7881146 89.786627,18.6079166 L90.3806864,18.7861344 C90.3806864,18.7861344 89.9779141,17.9710849 89.6499933,17.7310849 C89.6499933,17.7310849 90.2084091,17.8843522 90.526825,18.8431641 L91.0793002,19.1009859 C91.0793002,19.1009859 90.7858349,18.3726691 90.4852408,18.031679 C90.4852408,18.031679 90.9711814,18.2847483 91.2408844,19.1853423 L91.5890032,19.40158 C91.5890032,19.40158 91.3656369,18.8728671 91.287221,18.7267285 C91.2088052,18.5805899 91.2420725,18.5485107 91.2420725,18.5485107 C91.4911235,18.8102779 91.6626371,19.1360303 91.737518,19.4895008 C91.737518,19.4895008 92.4183101,19.9730651 92.4527656,19.9338572 Z" id="路径" fill="#CFBAA6"></path>
                <path d="M77.847221,28.1259364 C77.847221,28.1259364 77.9660329,23.5992037 74.8210824,24.2372235 C74.8210824,24.2372235 74.2579141,24.1504909 74.0202903,24.6661344 C74.0202903,24.6661344 74.2579141,24.6661344 74.1913794,25.1235602 C74.1696139,25.2866657 74.1672211,25.4517735 74.1842507,25.6154414 C74.2057289,25.8374384 74.2996702,26.0461968 74.4515774,26.2095008 L74.4515774,26.2095008 C74.4515774,26.2095008 75.0183101,27.461778 77.1105873,27.8871245 C77.1105873,27.8871245 77.5751418,28.2376196 77.6915774,28.2186097 L77.3351418,27.4677186 C77.3351418,27.4677186 76.7945477,27.7457384 76.3299933,27.5568275 C76.3299933,27.5568275 77.3161319,27.4986097 77.2888052,27.3536592 C77.2888052,27.3239562 77.0844487,26.9627681 77.0844487,26.9627681 C77.0844487,26.9627681 76.1410824,27.4439562 75.4341517,27.1279166 C75.4341517,27.1279166 76.6222705,27.2170255 77.0107854,26.8261344 L76.6793002,26.2997978 C76.6793002,26.2997978 75.707419,26.8558374 74.8876171,26.5279166 C74.8876171,26.5279166 76.1292012,26.5778176 76.5996963,26.1893027 L76.2040527,25.7140552 C76.2040527,25.7140552 75.2452408,26.2392037 74.5656369,25.9611839 C74.5656369,25.9611839 76.0056369,25.8744513 76.1101913,25.611877 C76.1101913,25.611877 75.7204883,25.1995998 75.5636567,25.1366295 C75.5636567,25.1366295 74.867419,25.4930651 74.487221,25.3005899 C74.487221,25.3005899 75.4377161,25.1413819 75.4436567,25.0356394 C75.4436567,25.0356394 74.7937557,24.6328671 74.3553398,24.6031641 C74.7596088,24.6103918 75.1549225,24.7234556 75.5018745,24.9310849 C75.4477437,24.6882337 75.3238594,24.4664808 75.1454388,24.2930651 C75.1454388,24.2930651 75.5981121,24.3441542 75.6598943,25.0296988 C75.6598943,25.0296988 76.1553398,25.3647483 76.187419,25.4574216 C76.187419,25.4574216 76.2218745,24.771877 76.0234586,24.3631641 C76.0234586,24.3631641 76.4606864,24.7136592 76.296726,25.5786097 L76.7042507,26.0467285 C76.7042507,26.0467285 76.796924,25.1413819 76.6484091,24.7647483 C76.6484091,24.7647483 77.0381121,25.1912829 76.7981121,26.1726691 L77.127221,26.6847483 C77.127221,26.6847483 77.267419,25.9112829 77.1925675,25.4562334 C77.1925675,25.4562334 77.4682111,25.931481 77.2163299,26.8356394 L77.396924,27.2039562 C77.396924,27.2039562 77.4884091,26.6372235 77.5002903,26.472075 C77.5121715,26.3069265 77.55732,26.2962334 77.55732,26.2962334 C77.6288414,26.6506604 77.6004586,27.0179905 77.4753398,27.3572235 C77.4753398,27.3572235 77.7949438,28.1413819 77.847221,28.1259364 Z" id="路径" fill="#CFBAA6"></path>
                <ellipse id="椭圆形" fill="#A67F60" opacity="0.1" cx="83.0464289" cy="85.1045503" rx="3.19960396" ry="1"></ellipse>
                <ellipse id="椭圆形" fill="#A67F60" opacity="0.1" cx="71.3826666" cy="93.312075" rx="3.19960396" ry="1"></ellipse>
                <ellipse id="椭圆形" fill="#A67F60" opacity="0.1" cx="11.066627" cy="89.1073225" rx="3.19960396" ry="1"></ellipse>
                <ellipse id="椭圆形" fill="#A67F60" opacity="0.1" cx="95.6511814" cy="92.771481" rx="3.19960396" ry="1"></ellipse>
                <ellipse id="椭圆形" fill="#A67F60" cx="98.9826666" cy="85.9124711" rx="4.77742574" ry="1"></ellipse>
                <path d="M100.963261,84.5900948 C101.181354,84.4128798 101.340119,84.1732809 101.41831,83.9033621 C101.477716,83.6300948 101.36128,83.3033621 101.101082,83.2035602 C100.808805,83.091877 100.49633,83.2938572 100.258706,83.4982136 C100.021082,83.7025701 99.7513794,83.9366295 99.4412804,83.8938572 C99.7650766,83.5997076 99.9111438,83.1574487 99.8262309,82.7283126 C99.8127688,82.6408813 99.7758093,82.558749 99.7193002,82.4906889 C99.5565279,82.3172235 99.2630626,82.392075 99.0682111,82.5287087 C98.4503893,82.9635602 98.2781121,83.802372 98.2745477,84.5580156 C98.2127656,84.2859364 98.2650428,84.001976 98.2638547,83.7263324 C98.2626666,83.4506889 98.1854388,83.132273 97.9490032,82.9873225 C97.8038763,82.9064017 97.6398893,82.8654049 97.4737557,82.8685107 C97.1957359,82.8590057 96.8856369,82.8863324 96.696726,83.0895008 C96.4591022,83.3413819 96.5220725,83.7655404 96.7264289,84.0399958 C96.9307854,84.3144513 97.2432606,84.491481 97.5307854,84.6839562 C97.7609047,84.8213769 97.9573819,85.0085174 98.1058349,85.231679 C98.1227521,85.2627632 98.1366761,85.2953851 98.147419,85.3291047 L99.8892012,85.3291047 C100.279134,85.1327111 100.64048,84.8840862 100.963261,84.5900948 Z" id="路径" fill="#A67F60"></path>
                <path d="M8.91850814,86.5944513 C8.91850814,86.5944513 10.7422705,86.5386097 11.2947458,86.1465305 C11.847221,85.7544513 14.1022705,85.2875206 14.2389042,85.9160354 C14.3755378,86.5445503 16.9810824,89.0395998 14.9208844,89.0562334 C12.8606864,89.0728671 10.1339537,88.7354414 9.58504279,88.4003918 C9.0361319,88.0653423 8.91850814,86.5944513 8.91850814,86.5944513 Z" id="路径" fill="#A8A8A8"></path>
                <path d="M14.9553398,88.8376196 C12.8951418,88.8542532 10.1684091,88.5168275 9.61949824,88.181778 C9.20128042,87.9275206 9.03494378,87.0138572 8.9791022,86.592075 L8.91850814,86.592075 C8.91850814,86.592075 9.03732002,88.0641542 9.58266656,88.3980156 C10.1280131,88.731877 12.8583101,89.0704909 14.9185081,89.0538572 C15.5125675,89.0538572 15.7181121,88.8376196 15.707419,88.5239562 C15.6242507,88.7152433 15.39732,88.8340552 14.9553398,88.8376196 Z" id="路径" fill="#000000" opacity="0.2"></path>
            </g>
        </g>
    </g>
</svg>