<?xml version="1.0" encoding="UTF-8"?>
<svg width="152px" height="82px" viewBox="0 0 152 82" version="1.1" xmlns="http://www.w3.org/2000/svg" xmlns:xlink="http://www.w3.org/1999/xlink">
    <title>404_icon</title>
    <g id="页面-1" stroke="none" stroke-width="1" fill="none" fill-rule="evenodd">
        <g id="广告主_404" transform="translate(-740.000000, -430.000000)">
            <g id="bottom" transform="translate(216.000000, 300.000000)">
                <g id="编组-4" transform="translate(525.000000, 130.000000)">
                    <g id="404_icon">
                        <ellipse id="椭圆形" fill="#F2F2F2" fill-rule="nonzero" cx="75.5088631" cy="76.7191899" rx="73.6731844" ry="4.87731844"></ellipse>
                        <path d="M72.6851522,23.3253827 C60.6817905,23.3253827 52.0635042,31.0264134 52.0635042,48.9954818 C52.0635042,69.360426 60.6817877,74.751148 72.6851522,74.751148 C84.6885168,74.751148 93.8202081,68.8470251 93.8202081,48.9954818 C93.8202081,27.7748673 84.688514,23.3253827 72.6851522,23.3253827 Z M72.7640559,67.9913561 C64.4502486,67.9913561 60.1068045,63.1138589 60.1068045,49.0086327 C60.1068045,36.5628436 64.6280461,29.9996089 72.9418603,29.9996089 C81.2556746,29.9996089 85.7769162,34.3107458 85.7769162,49.0086327 C85.7769162,62.758264 81.0778631,67.9913561 72.7640559,67.9913561 Z" id="形状" fill="#2F2E41" fill-rule="nonzero"></path>
                        <path d="M44.8758813,60.5470265 L39.9129888,60.5470265 L39.9129888,45.932588 C39.9129873,44.3161661 38.6026188,43.0057976 36.9861969,43.0057961 L35.8232947,43.0057961 C35.0470602,43.0057957 34.3026182,43.3141534 33.7537374,43.8630339 C33.2048566,44.4119144 32.8964986,45.1563563 32.8964986,45.9325908 L32.8964986,60.5470265 L18.8978841,60.5470265 C18.3121335,60.5470273 17.769156,60.2402953 17.4668146,59.7386047 C17.1644732,59.2369142 17.1469238,58.6135354 17.4205615,58.0956299 L32.2365391,30.053683 C32.6098043,29.3472061 32.6780056,28.5188369 32.4253146,27.7608239 C32.1726236,27.0028109 31.6210117,26.3810624 30.8984972,26.0398743 L30.0238729,25.6268575 C28.6133649,24.9607843 26.9283358,25.5179731 26.1929651,26.8936243 L8.12292737,60.6970531 C7.81521955,61.272678 7.65423464,61.9153112 7.65423464,62.5680196 L7.65423464,62.5680196 C7.65423464,63.6205822 8.07236361,64.6300346 8.81663791,65.3743086 C9.56091222,66.1185826 10.5703647,66.5367113 11.6229274,66.5367109 L32.8964986,66.5367109 L32.8964986,75.7779497 C32.8964986,76.7083929 33.2661157,77.6007275 33.9240384,78.2586502 C34.581961,78.9165728 35.4742957,79.2861899 36.4047388,79.2861899 L36.4047458,79.2861899 C37.335189,79.2861899 38.2275236,78.9165728 38.8854463,78.2586502 C39.5433689,77.6007275 39.912986,76.7083929 39.912986,75.7779497 L39.912986,66.5367165 L44.8758743,66.5367165 C46.52988,66.5367165 47.8707165,65.19588 47.8707165,63.5418743 L47.8707165,63.5418743 C47.8707165,61.8878692 46.5298864,60.5470304 44.8758813,60.5470265 Z" id="路径" fill="#A67E64" fill-rule="nonzero"></path>
                        <path d="M136.774837,60.5470265 L131.811948,60.5470265 L131.811948,45.932588 C131.811947,44.3161645 130.501576,43.0057953 128.885152,43.0057961 L127.72225,43.0057961 C126.946016,43.0057957 126.201574,43.3141534 125.652693,43.8630339 C125.103812,44.4119144 124.795454,45.1563563 124.795454,45.9325908 L124.795454,60.5470265 L110.796839,60.5470265 C110.211089,60.5470281 109.66811,60.2402962 109.365769,59.7386054 C109.063427,59.2369146 109.045878,58.6135353 109.319517,58.0956299 L124.135493,30.0536885 C124.50876,29.3472113 124.576962,28.518841 124.324271,27.7608267 C124.07158,27.0028125 123.519968,26.3810629 122.797453,26.0398743 L121.922828,25.6268575 C120.51232,24.9607842 118.82729,25.5179729 118.091919,26.8936243 L100.021883,60.6970531 C99.7141749,61.272678 99.5531899,61.9153112 99.5531899,62.5680196 L99.5531899,62.5680196 C99.5531899,64.7598673 101.330034,66.5367109 103.521881,66.5367109 L124.795454,66.5367109 L124.795454,75.7779497 C124.795454,77.7154973 126.366147,79.2861899 128.303694,79.2861899 L128.303694,79.2861899 C130.241242,79.2861899 131.811934,77.7154973 131.811934,75.7779497 L131.811934,66.5367165 L136.774823,66.5367165 C138.428828,66.5367165 139.769665,65.19588 139.769665,63.5418743 L139.769665,63.5418743 C139.769665,61.8878719 138.428839,60.5470342 136.774837,60.5470265 L136.774837,60.5470265 Z" id="路径" fill="#A67E64" fill-rule="nonzero"></path>
                        <path d="M46.2449539,58.8356844 L41.2820642,58.8356844 L41.2820642,44.2212486 C41.2820646,43.4450141 40.9737069,42.7005721 40.4248264,42.1516913 C39.8759459,41.6028105 39.131504,41.2944525 38.3552696,41.2944525 L37.1923673,41.2944525 C35.5759425,41.2944525 34.2655712,42.6048238 34.2655712,44.2212486 L34.2655712,58.8356844 L20.2669567,58.8356844 C19.6812062,58.8356851 19.1382286,58.5289531 18.8358872,58.0272626 C18.5335458,57.5255721 18.5159964,56.9021932 18.7896341,56.3842877 L33.6056103,28.3423492 C33.978878,27.6358716 34.0470807,26.8075006 33.7943899,26.0494857 C33.5416991,25.2914707 32.990086,24.6697207 32.2675698,24.3285321 L31.3929455,23.9155154 C29.9824389,23.2494409 28.29741,23.8066263 27.5620363,25.1822751 L9.492,58.9857123 C9.18429217,59.5613378 9.02330726,60.2039714 9.02330726,60.8566802 L9.02330726,60.8566802 C9.02330726,63.0485279 10.8001509,64.8253715 12.9919986,64.8253715 L34.2655712,64.8253715 L34.2655712,74.0666103 C34.2655712,74.9970535 34.6351883,75.8893881 35.293111,76.5473108 C35.9510337,77.2052335 36.8433683,77.5748506 37.7738115,77.5748506 L37.7738184,77.5748506 C39.711366,77.5748506 41.2820587,76.0041579 41.2820587,74.0666103 L41.2820587,64.8253771 L46.2449483,64.8253771 C47.0392299,64.8253771 47.8009797,64.50985 48.3626215,63.9482081 C48.9242634,63.3865663 49.2397905,62.6248164 49.2397905,61.8305349 L49.2397905,61.8305349 C49.2397905,61.0362529 48.9242674,60.2745018 48.3626265,59.7128583 C47.8009856,59.1512148 47.0392359,58.8356858 46.2449539,58.8356844 L46.2449539,58.8356844 Z" id="路径" stroke="#3F3D56" stroke-width="0.5"></path>
                        <path d="M139.341846,58.8356844 L134.378958,58.8356844 L134.378958,44.2212486 C134.378958,42.6048238 133.068587,41.2944525 131.452162,41.2944525 L130.28926,41.2944525 C129.513025,41.2944525 128.768583,41.6028105 128.219702,42.1516912 C127.670822,42.700572 127.362464,43.445014 127.362464,44.2212486 L127.362464,58.8356844 L113.363849,58.8356844 C112.778099,58.8356851 112.235121,58.5289531 111.93278,58.0272626 C111.630438,57.5255721 111.612889,56.9021932 111.886527,56.3842877 L126.702503,28.3423492 C127.07577,27.6358716 127.143973,26.8075006 126.891282,26.0494857 C126.638592,25.2914707 126.086978,24.6697207 125.364462,24.3285321 L124.489838,23.9155154 C123.079331,23.2494409 121.394302,23.8066263 120.658929,25.1822751 L102.588892,58.9857123 C102.281185,59.5613378 102.1202,60.2039714 102.1202,60.8566802 L102.1202,60.8566802 C102.1202,63.0485279 103.897043,64.8253715 106.088891,64.8253715 L127.362464,64.8253715 L127.362464,74.0666103 C127.362464,76.0041579 128.933156,77.5748506 130.870704,77.5748506 L130.870704,77.5748506 C132.808251,77.5748506 134.378944,76.0041579 134.378944,74.0666103 L134.378944,64.8253771 L139.341832,64.8253771 C140.136114,64.8253771 140.897864,64.50985 141.459506,63.9482081 C142.021147,63.3865663 142.336675,62.6248164 142.336675,61.8305349 L142.336675,61.8305349 C142.336675,60.1765314 140.99585,58.8356921 139.341846,58.8356844 Z" id="路径" stroke="#3F3D56" stroke-width="0.5"></path>
                        <path d="M75.4232961,21.7851774 C63.4199344,21.7851774 54.801648,29.4862067 54.801648,47.4552765 C54.801648,67.8202207 63.4199316,73.2109427 75.4232961,73.2109427 C87.4266606,73.2109427 96.558352,67.3068198 96.558352,47.4552765 C96.558352,26.2346606 87.4266578,21.7851774 75.4232961,21.7851774 Z M75.5022067,66.4511494 C67.1883994,66.4511494 62.8449553,61.5736536 62.8449553,47.4684274 C62.8449553,35.0226383 67.3661969,28.4594036 75.6800112,28.4594036 C83.9938254,28.4594036 88.515067,32.7705405 88.515067,47.4684274 C88.515067,61.2180573 83.816007,66.4511494 75.5021997,66.4511494 L75.5022067,66.4511494 Z" id="形状" stroke="#3F3D56" stroke-width="0.5"></path>
                        <circle id="椭圆形" fill="#2F2E41" fill-rule="nonzero" cx="65.8018268" cy="2.54894413" r="1.80184078"></circle>
                        <ellipse id="椭圆形" fill="#2F2E41" fill-rule="nonzero" cx="70.1965587" cy="6.54815084" rx="5.05394134" ry="6.54815084"></ellipse>
                        <path d="M70.1965587,11.1186718 C67.6647709,11.1186718 65.5678855,8.70658799 65.1999441,5.55933659 C65.1616678,5.88755004 65.142617,6.21771305 65.142617,6.54815084 C65.142617,10.1645936 67.4053464,13.0963017 70.1965587,13.0963017 C72.9877709,13.0963017 75.2505017,10.1645978 75.2505017,6.54815084 C75.2505017,6.21771305 75.2314509,5.88755004 75.1931746,5.55933659 C74.8252332,8.70658799 72.728352,11.1186718 70.1965587,11.1186718 Z" id="路径" fill="#000000" fill-rule="nonzero" opacity="0.1"></path>
                        <path d="M80.4807528,25.7246872 C80.3722179,26.1706997 79.9042277,26.5278994 79.3859469,26.7774679 C78.2962989,27.3021634 76.9522458,27.458736 75.6485587,27.5112919 C75.3159819,27.5315029 74.9823267,27.5253383 74.6507235,27.4928561 C74.0081415,27.4307035 73.4053164,27.1535924 72.939757,26.7063464 C72.8722016,26.6623161 72.8319722,26.5866948 72.8331837,26.5060669 C72.8344507,26.425439 72.8769851,26.3510898 72.9458617,26.3091564 C73.639912,25.546743 74.7981243,25.0792612 75.9648743,24.7426634 C76.849567,24.4874358 78.3924302,23.826338 79.3573506,23.9155545 C80.2919609,24.0019749 80.6177933,25.1615391 80.4807528,25.7246872 Z" id="路径" fill="#3F3D56" fill-rule="nonzero"></path>
                        <path d="M80.4807528,25.7246872 C80.3722179,26.1706997 79.9042277,26.5278994 79.3859469,26.7774679 C78.2962989,27.3021634 76.9522458,27.458736 75.6485587,27.5112919 C75.3159819,27.5315029 74.9823267,27.5253383 74.6507235,27.4928561 C74.0081415,27.4307035 73.4053164,27.1535924 72.939757,26.7063464 C72.8722016,26.6623161 72.8319722,26.5866948 72.8331837,26.5060669 C72.8344507,26.425439 72.8769851,26.3510898 72.9458617,26.3091564 C73.639912,25.546743 74.7981243,25.0792612 75.9648743,24.7426634 C76.849567,24.4874358 78.3924302,23.826338 79.3573506,23.9155545 C80.2919609,24.0019749 80.6177933,25.1615391 80.4807528,25.7246872 Z" id="路径" fill="#000000" fill-rule="nonzero" opacity="0.1"></path>
                        <path d="M66.6262374,22.391257 C66.293616,23.0431414 66.2334001,23.8004121 66.4588212,24.4966704 C66.6880962,25.1876654 67.1172517,25.7950906 67.6919511,26.2420377 C69.1018212,27.3721536 71.0422081,27.527669 72.8490419,27.5119791 C74.4325539,27.4982008 76.0138281,27.3898215 77.584412,27.1874204 C78.1107209,27.1407786 78.62791,27.0206925 79.1209246,26.8306578 C79.710648,26.5755196 80.2288603,26.1075349 80.4388017,25.5002528 C80.648743,24.8929707 80.4997304,24.1493506 80.0011159,23.7440684 C79.563007,23.3879665 78.9588464,23.3389846 78.3952849,23.3051173 L75.1707542,23.1113394 C75.4893296,22.7889385 75.913514,22.6065908 76.3014609,22.3722109 C76.8161578,22.0612584 77.1581061,21.5391732 77.5323436,21.0684804 C78.1089792,20.3793267 78.7363631,19.7342771 79.409243,19.1387318 C79.5141844,19.7407402 79.8950251,20.2350866 80.3432277,20.6504637 C80.7914302,21.0658408 81.3080894,21.4002472 81.7739399,21.7957332 C82.902236,22.7536075 83.7146983,24.0536802 84.9013352,24.9382514 C85.7176332,24.7237562 86.4807549,24.3427712 87.1427626,23.8192291 L86.6815768,22.9838366 C86.643147,22.8978622 86.5832961,22.8231889 86.5077514,22.7669623 C86.3772137,22.686655 86.2089036,22.7280349 86.0573324,22.7053087 C85.6521899,22.6445545 85.47525,22.176817 85.3162709,21.7992514 C84.879831,20.7626969 84.0442039,19.9584791 83.3305405,19.0892221 C82.8037961,18.4475538 82.3365181,17.7592967 81.9344832,17.0329595 C81.6947458,16.5997723 81.4752654,16.1487318 81.1499218,15.7755279 C80.8245723,15.402324 80.3686955,15.1089078 79.873595,15.1078561 C79.4361341,15.1069344 79.0326425,15.3290251 78.6565251,15.5524232 C77.5109484,16.2328807 76.4087264,16.9838105 75.3562207,17.8008785 C74.8054162,18.2284902 74.2580279,18.6802709 73.6119008,18.9424888 C73.3399064,19.0528729 73.0531802,19.1283156 72.7921746,19.2626327 C72.3350335,19.4978841 71.988095,19.8959218 71.6146215,20.2492458 C70.2825587,21.5094623 68.4587989,22.3259651 66.6262374,22.391257 Z" id="路径" fill="#3F3D56" fill-rule="nonzero"></path>
                        <path d="M73.3686732,13.4215098 C73.3536994,13.806723 73.2717589,14.1863863 73.1265237,14.543486 C72.977716,14.9035132 72.6859074,15.1854547 72.3209763,15.3217947 C72.0646238,15.3904729 71.7958988,15.3991941 71.5356327,15.3472821 C71.3086823,15.3235781 71.0899818,15.2490769 70.895757,15.1293059 C70.593405,14.921433 70.4426634,14.5505168 70.3877291,14.1875112 C70.3327947,13.8249413 70.3574022,13.4544707 70.3222472,13.0892682 C70.2879937,12.7942899 70.2318803,12.5022628 70.1543701,12.2155964 C70.1306369,12.1202304 70.1064651,12.0253059 70.0827304,11.9303785 C70.0594427,11.8354525 70.0365894,11.7405251 70.0154944,11.645602 C69.996155,11.5563869 69.9781411,11.466736 69.9627556,11.3766439 C69.950014,11.3006159 69.9385936,11.2241453 69.9302346,11.1472374 C69.9225413,10.9192369 69.8845607,10.693272 69.8172919,10.4752849 C69.7541532,10.3339089 69.6751253,10.2001801 69.5817346,10.0766816 C69.5417416,10.0195503 69.503067,9.96242039 69.4674679,9.90308939 C69.3645149,9.74890582 69.3166649,9.5644651 69.3316774,9.37967737 C69.3359057,9.35111037 69.3428209,9.32300622 69.352331,9.29573883 C69.355845,9.28519134 69.3597989,9.27464944 69.3642025,9.26453771 C69.4444692,9.24274547 69.5087845,9.18270211 69.5360335,9.10412011 C69.5511473,9.02097931 69.5440222,8.935321 69.5153799,8.85581983 C69.4825412,8.74473051 69.4375906,8.63758754 69.381338,8.53632123 C69.3444246,8.46952095 69.219176,8.34910615 69.2182884,8.27263408 C69.2165363,8.11881844 69.5171397,7.99488687 69.6388743,7.93423883 C70.0104571,7.74816869 70.4247994,7.66414752 70.8395126,7.69077095 C71.1053911,7.70878771 71.3936885,7.79053073 71.5404763,8.01334358 C71.6723198,8.21418156 71.6547318,8.47435056 71.710986,8.70771369 C71.7169099,8.74163364 71.7312661,8.77352007 71.7527346,8.80044134 C71.7814153,8.82657549 71.8175032,8.8431593 71.856014,8.84790223 C71.9211177,8.86085398 71.9878489,8.86352416 72.0537793,8.85581564 L72.0542193,8.85581564 C72.071646,8.85443412 72.0889664,8.85193785 72.106074,8.84834218 C72.208741,8.82939992 72.3057946,8.78748378 72.3899721,8.72573045 C72.4444702,8.71122765 72.499405,8.69936173 72.5547765,8.69013268 C72.5570135,8.68990529 72.5592234,8.68946331 72.5613757,8.68881285 C72.7815517,9.38362011 72.8101187,10.1285279 72.9903017,10.836081 C73.0795112,11.1880978 73.2073994,11.5357221 73.2254134,11.8978478 C73.2267332,11.9136676 73.2271732,11.9299288 73.2276131,11.9461885 C73.2302528,12.0626494 73.2210251,12.1799874 73.2258534,12.2960098 C73.2275353,12.3482549 73.233416,12.4002801 73.2434385,12.4515824 C73.2631438,12.5340979 73.2876482,12.615393 73.3168268,12.6950531 L73.3181466,12.699007 C73.3264944,12.7244972 73.3344078,12.7504274 73.341,12.7763547 C73.3458282,12.7952514 73.3502277,12.8137109 73.3537472,12.8326075 L73.3541816,12.8339246 C73.3867164,13.028121 73.3915954,13.2259456 73.3686732,13.4215098 L73.3686732,13.4215098 Z" id="路径" fill="#FBBEBE" fill-rule="nonzero"></path>
                        <circle id="椭圆形" fill="#FBBEBE" fill-rule="nonzero" cx="70.2844539" cy="6.28446648" r="2.59289246"></circle>
                        <path d="M86.7462444,20.4117709 C86.6710906,19.7043631 86.4196531,19.0271161 86.0149595,18.4420545 C86.0821997,18.8419735 86.1495871,19.2417472 86.2171215,19.6413757 C86.0455708,19.6910128 85.8609145,19.6342357 85.7468869,19.4967905 C85.6377061,19.3604625 85.5541698,19.2054537 85.500338,19.0392975 C85.2057492,18.3080136 84.8205464,17.6165925 84.3537598,16.981243 C82.703095,16.8436885 81.0713254,16.1594302 79.6197444,15.3617849 C78.1677291,14.5645782 76.8088757,13.6087263 75.3761941,12.777683 C75.1278379,12.6275446 74.8690603,12.4953637 74.6018422,12.3821522 C74.1535824,12.2024036 73.6503869,12.1092388 73.2254092,11.897852 C73.1968478,11.8837877 73.1682863,11.8688478 73.1401536,11.8534651 C73.0441476,11.8012518 72.9532232,11.7401939 72.8685628,11.6710852 C72.8228039,11.6339299 72.7793619,11.5940089 72.7384804,11.5515461 C72.52644,11.3048691 72.3583163,11.0236247 72.241433,10.7200642 C72.0133492,10.2155503 71.9320419,9.60687849 71.704398,9.10236313 C71.8090265,9.00458042 71.9265841,8.92162482 72.0537779,8.85581983 L72.0542179,8.85581983 C72.0726718,8.84614944 72.0911313,8.83692039 72.1100307,8.82813268 C72.2001004,8.7857122 72.2937878,8.75144266 72.3899707,8.72573464 C72.4444688,8.71123184 72.4994036,8.69936592 72.5547751,8.69013687 C72.5570121,8.68990948 72.559222,8.6894675 72.5613743,8.68881704 C72.8181545,8.64698046 73.0812407,8.66779487 73.3282528,8.74946508 C73.6894986,8.87163966 73.9940503,9.11554749 74.2977332,9.34627095 C74.7910862,9.69383713 75.264283,10.069167 75.7150335,10.4704441 C75.9655321,10.7103883 76.1940559,10.9740754 76.4634525,11.1920587 C76.6873145,11.3648339 76.9233364,11.521252 77.1696844,11.6600978 C78.6274246,12.5284944 80.085304,13.3967463 81.5433226,14.2648534 C82.0368492,14.5588617 82.530817,14.8528687 83.0133687,15.1640154 C83.7464064,15.6368897 84.4530726,16.1493142 85.1593087,16.6613017 C85.5754893,16.9627793 85.9915261,17.2644036 86.407419,17.5661746 C86.5438778,17.6532211 86.6636844,17.7639511 86.7611899,17.8931439 C86.8473459,18.0398308 86.9008604,18.2033701 86.9180852,18.3726131 C87.0224805,19.0563705 86.963596,19.7551273 86.7462444,20.4117709 Z" id="路径" fill="#FBBEBE" fill-rule="nonzero"></path>
                        <path d="M74.0116285,15.3714525 C73.8367193,16.1559134 73.0439078,16.6301117 72.6294818,17.3191983 C72.1144204,18.1744148 72.3244846,19.1685 72.5178589,20.1480866 C72.1645209,20.4526443 71.8110363,20.7572002 71.457405,21.0617542 C71.2622821,21.2291927 71.0671578,21.3975084 70.857088,21.5456145 C70.5507814,21.7508524 70.2306691,21.9346955 69.8990349,22.0958324 C69.5861299,22.2566816 69.2732253,22.417675 68.9603212,22.5788128 C68.6694398,22.7423718 68.3612206,22.8729713 68.0413813,22.9681885 C67.4247989,23.126398 66.7699874,23.0156494 66.1599986,22.8323897 C66.088064,22.8135255 66.0189153,22.7853052 65.9543226,22.7484511 C65.9162699,22.7257619 65.8831068,22.695735 65.8567612,22.6601159 C65.7966179,22.5522981 65.7747766,22.4272846 65.7947989,22.3054609 C65.8567612,21.278852 66.1076983,20.2737765 66.3577612,19.2761718 C66.4914216,18.6776805 66.6711144,18.0904084 66.895236,17.5195964 C67.1150691,17.0304921 67.3677594,16.5568302 67.651574,16.1018589 C67.9648144,15.5294134 68.3359104,14.9905855 68.7590433,14.493824 C68.9650403,14.3026294 69.138424,14.0790706 69.2723464,13.8319777 C69.4283603,13.4760056 69.3681564,13.0677318 69.3997933,12.6801173 C69.4240042,12.3888932 69.5013074,12.1045587 69.6278827,11.8411648 L69.6278827,11.8407249 C69.6955859,11.6988501 69.7771368,11.5640093 69.8713478,11.4381662 C69.9139809,11.5374874 69.9566103,11.636662 69.999236,11.7356899 C70.0273636,11.8007318 70.0551955,11.8656294 70.0827318,11.9303827 C70.1187709,12.0138827 70.1545158,12.0970894 70.1899665,12.1800028 C70.2923622,12.4181993 70.3946141,12.6562472 70.4967221,12.8941466 C70.6070648,13.1937889 70.7643022,13.4740026 70.9625573,13.7243142 C71.1469122,13.9850494 71.4547112,14.1297364 71.7731037,14.1053275 C72.0914963,14.0809186 72.3736438,13.8910046 72.5161006,13.6052151 C72.6638184,13.3429696 72.7708067,13.0597898 72.833398,12.7653827 C72.9201883,12.4069119 72.9321575,12.0343993 72.8685587,11.6710964 C72.7626439,10.9714525 72.4651201,10.2568715 72.2488966,9.60688966 C72.1608876,9.39016842 72.1099324,9.16019557 72.0981606,8.9265824 C72.0985979,8.90033089 72.1012432,8.8741627 72.1060684,8.84835475 C72.1073883,8.84176397 72.1087081,8.83473184 72.1100265,8.82814106 C72.2000962,8.78572058 72.2937837,8.75145104 72.3899665,8.72574302 C72.4444646,8.71124022 72.4993994,8.6993743 72.5547709,8.69014525 C72.745067,9.72027095 72.9356522,10.7503962 73.1265265,11.7805209 C73.130926,11.8046927 73.1357584,11.8288631 73.1401522,11.8534735 C73.1673994,12.0011355 73.1950866,12.1488003 73.2258478,12.2960223 C73.2535405,12.4296215 73.2834218,12.5627821 73.3168212,12.6950656 L73.3181411,12.6990196 C73.3295684,12.743852 73.3414344,12.7882332 73.3537416,12.8326201 L73.354176,12.8339372 C73.3880168,12.9552332 73.4258101,13.075648 73.4684372,13.1943059 C73.7268506,13.9093268 74.1773115,14.6291844 74.0116285,15.3714525 Z" id="路径" fill="#A67E64" fill-rule="nonzero"></path>
                        <path d="M84.5345587,26.3956103 C84.526392,26.5467271 84.5556562,26.6975231 84.6197542,26.8346159 C84.7820335,27.1311983 85.1714036,27.1986173 85.5083408,27.2263534 C87.4765316,27.3881367 89.4566805,27.327806 91.4113715,27.0465014 C91.517424,27.0392471 91.620315,27.0073156 91.7118408,26.9532528 C91.9897528,26.7584078 91.8184455,26.2835461 91.5149818,26.1315279 C91.2115182,25.9795098 90.851398,26.0161453 90.5184316,25.9503156 C90.1876303,25.8670488 89.8726103,25.730427 89.5857584,25.5458226 C88.9104939,25.1578627 88.2450843,24.7533897 87.5895293,24.3324036 C87.1992318,24.0817556 86.7385908,23.814257 86.2990447,23.9628687 C85.1083799,24.365662 84.5267221,25.1111941 84.5345587,26.3956103 Z" id="路径" fill="#3F3D56" fill-rule="nonzero"></path>
                        <path d="M70.0256034,11.5906662 L70.0256034,11.5911061 C70.0225307,11.6095628 70.0194497,11.627581 70.0154958,11.6456006 C70.0106634,11.6754888 70.0049497,11.7058073 69.999236,11.7356844 C69.9447416,12.0147514 69.8779413,12.2924972 69.8010335,12.5684874 C69.5900838,13.3309721 69.3075056,14.0811536 69.0271215,14.8203478 C68.2747426,16.8023701 67.5222179,18.7845396 66.7695475,20.7668561 C66.5796927,21.2660978 66.3902821,21.7657779 66.1745,22.254912 C66.102433,22.4179581 66.0281564,22.5823198 65.9543226,22.7484427 C65.6897598,23.3430475 65.4357472,23.956993 65.3513673,24.5898338 C65.2726965,25.0063273 65.2636379,25.432984 65.3245601,25.8524413 C65.4089399,26.2673045 65.6607584,26.6724972 66.0549637,26.8258729 C66.2474539,26.9010237 66.5229986,27.001662 66.470264,27.2016229 C66.4417025,27.3114902 66.3168883,27.3651075 66.2048212,27.3835642 C65.9052223,27.4313141 65.5999022,27.3433925 65.371581,27.1436201 C65.1610712,26.9568436 64.9993492,26.6663506 64.7194036,26.6351494 C64.525595,26.6140601 64.3471718,26.730074 64.1696229,26.8113757 C63.4453715,27.1423003 62.6015796,26.9106969 61.840852,26.6755796 C61.9006201,26.3675084 62.2100112,26.1644721 62.5172025,26.1029455 C62.8243939,26.0409804 63.1421313,26.0849288 63.4554707,26.0765782 C63.5558188,26.0819293 63.6553869,26.0563084 63.7406885,26.0031858 C63.8171559,25.9329917 63.8707483,25.8414251 63.8945042,25.7403799 C64.0963421,25.1423089 64.2464617,24.5280138 64.3432095,23.9042612 C64.4442849,23.2525223 64.4864791,22.590676 64.6306215,21.9468492 C64.7426899,21.4445293 64.915845,20.9580349 65.0643813,20.4649441 C65.3516259,19.4496968 65.5874842,18.4206085 65.7710573,17.3816006 C65.863863,16.9499329 65.9303464,16.5130236 65.9701397,16.0732891 C65.9951885,15.7085265 65.9833212,15.3420042 66.0184763,14.9785601 C66.0774814,14.5057183 66.1761252,14.0386726 66.3133659,13.5823547 C66.4478417,13.084432 66.5821746,12.5868012 66.7163645,12.0894623 C66.9154483,11.353345 67.1290251,10.5886634 67.6335433,10.0164679 C67.9877378,9.60929962 68.4948369,9.36712857 69.0341494,9.34759116 C69.1341936,9.34759116 69.2339544,9.35822678 69.3316732,9.37967179 C69.3479288,9.3836257 69.3641941,9.3875824 69.3804483,9.39197626 C69.4869377,9.41981803 69.5891141,9.4621078 69.6841313,9.5176676 C69.8397011,9.41878492 69.9188031,9.45350279 70.0220838,9.606 C70.112622,9.76739045 70.1553061,9.95123509 70.1451383,10.136007 C70.1538434,10.6236644 70.1137996,11.1109715 70.0256034,11.5906662 L70.0256034,11.5906662 Z" id="路径" fill="#FBBEBE" fill-rule="nonzero"></path>
                        <path d="M70.1965587,12.1734078 L70.1899665,12.1799986 L70.1543715,12.2155964 L69.8010335,12.5684944 L69.6278827,11.8411662 L69.034155,9.34759078 C69.1341992,9.34746897 69.23396,9.35822538 69.3316788,9.37967039 C69.3359071,9.35110339 69.3428223,9.32299924 69.3523324,9.29573184 L69.3804539,9.39197626 L69.581736,10.076676 L69.962757,11.3766383 L70.0256061,11.590662 L70.0256061,11.591102 L70.1965587,12.1734078 Z" id="路径" fill="#A67E64" fill-rule="nonzero"></path>
                        <path d="M72.4387193,4.21826816 C72.4381213,4.68458352 72.2521966,5.13153902 71.9218911,5.46070251 C71.8626613,5.52002318 71.7991736,5.57493398 71.7319358,5.62499581 C71.4286694,5.85361378 71.0592529,5.97735363 70.6794679,5.97753073 L68.5710894,5.97753073 C67.6010086,5.97603328 66.8153959,5.18920698 66.8153959,4.219125 C66.8153959,3.24904302 67.6010086,2.46221672 68.5710894,2.46071927 L70.6794693,2.46071927 C71.649365,2.46324436 72.4352559,3.24837537 72.4387193,4.21826816 L72.4387193,4.21826816 Z" id="路径" fill="#2F2E41" fill-rule="nonzero"></path>
                        <circle id="椭圆形" fill="#2F2E41" fill-rule="nonzero" cx="74.4155014" cy="2.54894413" r="1.80184078"></circle>
                        <path d="M74.3715545,0.747104749 C74.3494525,0.747104749 74.3275531,0.747981844 74.3056327,0.74877095 C75.2743895,0.783990198 76.0415503,1.57954799 76.0415503,2.54894483 C76.0415503,3.51834167 75.2743895,4.31389947 74.3056327,4.34911872 C74.3275517,4.34990782 74.3494511,4.35078492 74.3715545,4.35078492 C75.3666833,4.35078492 76.1733946,3.54407363 76.1733946,2.54894483 C76.1733946,1.55381603 75.3666833,0.747104749 74.3715545,0.747104749 L74.3715545,0.747104749 Z" id="路径" fill="#000000" fill-rule="nonzero" opacity="0.1"></path>
                        <path d="M65.8018268,0.747104749 C65.8239288,0.747104749 65.8458282,0.747981844 65.8677486,0.74877095 C64.8989917,0.783990198 64.131831,1.57954799 64.131831,2.54894483 C64.131831,3.51834167 64.8989917,4.31389947 65.8677486,4.34911872 C65.8458212,4.34990782 65.8239288,4.35078492 65.8018268,4.35078492 C64.8073175,4.34990934 64.0015724,3.54345456 64.0015724,2.54894483 C64.0015724,1.5544351 64.8073175,0.747980325 65.8018268,0.747104749 Z" id="路径" fill="#000000" fill-rule="nonzero" opacity="0.1"></path>
                        <path d="M71.7319358,5.62499581 C71.4286694,5.85361378 71.0592529,5.97735363 70.6794679,5.97753073 L68.5710894,5.97753073 C68.1913014,5.97735362 67.8218818,5.85361388 67.5186117,5.62499581 L71.7319358,5.62499581 Z" id="路径" fill="#000000" fill-rule="nonzero" opacity="0.1"></path>
                        <path d="M85.347148,18.6809944 C85.347148,18.6809944 85.8013771,19.9898785 86.2171201,19.6413757 L85.8857542,17.930507 L85.347148,18.6809944 Z" id="路径" fill="#FBBEBE" fill-rule="nonzero"></path>
                        <path d="M140.623437,58.5963184 C141.783635,59.0180938 143.083688,58.6610431 143.865711,57.7058502 C144.647734,56.7506572 144.741124,55.4057028 144.098621,54.3515948 C143.456118,53.2974869 142.217889,52.764185 141.010532,53.0215642 L141.083288,54.5176816 L140.375447,53.2354958 C139.68074,53.5619181 139.14405,54.1507997 138.883314,54.8727318 C138.790717,55.1256151 138.734425,55.390345 138.716117,55.6590251 C138.624309,56.9542728 139.402866,58.1532591 140.623437,58.5963184 Z" id="路径" fill="#57B894" fill-rule="nonzero"></path>
                        <path d="M144.12586,75.9487514 C143.875992,74.6763673 144.958723,73.5483603 146.028215,72.8151606 C147.097707,72.0819609 148.347349,71.3615587 148.712258,70.1172779 C149.2367,68.3290279 147.674549,66.6913268 146.458677,65.2790433 C145.556617,64.2309684 144.781959,63.0796706 144.150913,61.8492416 C143.897971,61.3558757 143.665497,60.8401243 143.598929,60.2897081 C143.503061,59.4970461 143.757718,58.7082709 144.014278,57.952176 C144.868957,55.4333966 145.782757,52.9357221 146.755679,50.4591522" id="路径" stroke="#3F3D56" stroke-width="0.5"></path>
                        <path d="M140.743147,58.2111313 C141.903344,58.6329067 143.203398,58.275856 143.985421,57.320663 C144.767444,56.3654701 144.860834,55.0205156 144.218331,53.9664077 C143.575828,52.9122997 142.337598,52.3789979 141.130242,52.6363771 L141.202997,54.1324944 L140.495155,52.8503087 C139.800449,53.1767313 139.263759,53.7656128 139.003024,54.4875447 C138.910426,54.7404279 138.854134,55.0051578 138.835827,55.273838 C138.744018,56.5690857 139.522575,57.7680723 140.743147,58.2111313 Z" id="路径" stroke="#3F3D56" stroke-width="0.5"></path>
                        <path d="M143.770581,49.9424804 C144.107998,49.0114806 144.896655,48.3166565 145.86275,48.0992346 L146.102081,49.5215503 L146.545796,48.027743 C147.809911,48.0464895 148.916913,48.8802623 149.283947,50.0900661 C149.65098,51.2998699 149.193847,52.608174 148.153236,53.3261344 C147.112624,54.0440947 145.727253,54.0070101 144.726542,53.2344063 C143.725831,52.4618024 143.339346,51.1309158 143.770577,49.9424804 L143.770581,49.9424804 Z" id="路径" fill="#57B894" fill-rule="nonzero"></path>
                        <path d="M143.930193,49.4288966 C144.26761,48.4978975 145.056268,47.803074 146.022362,47.5856522 L146.261693,49.0079679 L146.705408,47.5141592 C147.969523,47.5329057 149.076525,48.3666785 149.443558,49.5764823 C149.810592,50.7862861 149.353459,52.0945902 148.312847,52.8125506 C147.272236,53.5305109 145.886864,53.4934263 144.886154,52.7208225 C143.885443,51.9482187 143.498957,50.617332 143.930189,49.4288966 L143.930193,49.4288966 Z" id="路径" stroke="#3F3D56" stroke-width="0.5"></path>
                        <path d="M145.948427,65.3078701 C147.337484,65.8117341 148.883516,65.193182 149.541686,63.8702422 C150.199857,62.5473025 149.76066,60.9410876 148.520913,60.1371061 L148.179962,61.2850475 L147.938196,59.8459665 C147.935805,59.8448386 147.93333,59.8439 147.930793,59.8431592 C146.95444,59.488319 145.862935,59.6815374 145.067723,60.3499804 C144.272511,61.0184233 143.894505,62.0604542 144.076194,63.083277 C144.257884,64.1060999 144.971643,64.9541946 145.948419,65.3078701 L145.948427,65.3078701 Z" id="路径" fill="#57B894" fill-rule="nonzero"></path>
                        <path d="M146.086732,64.7876634 C147.475789,65.2915274 149.02182,64.6729753 149.679991,63.3500355 C150.338161,62.0270958 149.898965,60.4208809 148.659218,59.6168994 L148.318267,60.7648408 L148.0765,59.3257598 C148.07411,59.324632 148.071635,59.3236934 148.069098,59.3229525 C147.092744,58.9681123 146.001239,59.1613307 145.206027,59.8297736 C144.410816,60.4982166 144.032809,61.5402475 144.214499,62.5630703 C144.396188,63.5858932 145.109947,64.4339879 146.086723,64.7876634 L146.086732,64.7876634 Z" id="路径" stroke="#3F3D56" stroke-width="0.5"></path>
                        <path d="M142.922321,70.1350531 C143.160093,71.4880109 144.312986,72.4895223 145.685899,72.5357572 C147.058813,72.5819922 148.276472,71.6603128 148.604728,70.3264168 C148.932983,68.9925207 148.282108,67.6110183 147.044528,67.0148431 C145.806947,66.4186679 144.320944,66.7707799 143.482458,67.8588841 L144.777524,69.8081215 L143.007979,68.7735293 C142.870774,69.2139566 142.841397,69.6809027 142.922321,70.1350531 L142.922321,70.1350531 Z" id="路径" fill="#57B894" fill-rule="nonzero"></path>
                        <path d="M143.042031,69.7498659 C143.279802,71.1028237 144.432695,72.1043351 145.805609,72.1505701 C147.178523,72.196805 148.396182,71.2751256 148.724437,69.9412296 C149.052692,68.6073336 148.401817,67.2258311 147.164237,66.629656 C145.926657,66.0334808 144.440654,66.3855927 143.602168,67.4736969 L144.897233,69.4229358 L143.127689,68.3883422 C142.990483,68.8287693 142.961106,69.2957155 143.042031,69.7498659 Z" id="路径" stroke="#3F3D56" stroke-width="0.5"></path>
                        <path d="M1.25802514,65.6771997 C2.02029748,65.9543203 2.87446141,65.7197344 3.3882685,65.092154 C3.90207559,64.4645736 3.96343504,63.5809098 3.54129599,62.8883396 C3.11915694,62.1957693 2.30561214,61.8453819 1.51235475,62.0144902 L1.56015782,62.9974665 L1.09509218,62.1550475 C0.638656811,62.3695143 0.286041453,62.7564218 0.114734637,63.2307458 C0.053896381,63.3968952 0.0169113374,63.5708279 0.00488268156,63.7473561 C-0.0554319535,64.5983529 0.456092611,65.3861025 1.25802514,65.6771997 L1.25802514,65.6771997 Z" id="路径" fill="#57B894" fill-rule="nonzero"></path>
                        <path d="M3.55918156,77.0780642 C3.39501257,76.2420852 4.10638827,75.5009693 4.80906285,75.0192374 C5.51173743,74.5375056 6.33277514,74.0641955 6.57252933,73.2466802 C6.91709777,72.0717668 5.89073184,70.9957682 5.09188408,70.0678715 C4.49921416,69.3792672 3.9902501,68.6228433 3.57564246,67.8144288 C3.39538972,67.496889 3.27261701,67.1500178 3.21297765,66.7897877 C3.14998883,66.2689944 3.31730726,65.7507556 3.48587011,65.253986 C4.04740922,63.5991015 4.64779236,61.9580838 5.28701955,60.330933" id="路径" stroke="#3F3D56" stroke-width="0.5"></path>
                        <path d="M1.33667737,65.4241243 C2.09894874,65.7012423 2.9531102,65.4666556 3.46691563,64.8390761 C3.98072105,64.2114966 4.04208036,63.327835 3.61994283,62.6352659 C3.1978053,61.9426969 2.38426306,61.5923088 1.59100698,61.7614148 L1.63881006,62.7443925 L1.17374302,61.9019665 C0.717307557,62.1164331 0.364692157,62.5033408 0.193385475,62.9776648 C0.132547873,63.1438139 0.0955628473,63.3177461 0.0835335196,63.4942737 C0.023214884,64.3452736 0.534741039,65.1330276 1.33667737,65.4241243 Z" id="路径" stroke="#3F3D56" stroke-width="0.5"></path>
                        <path d="M3.32575559,59.9914707 C3.54744478,59.3797867 4.06560727,58.9232746 4.70034916,58.7804246 L4.85759358,59.714912 L5.1491257,58.7334525 C5.97967004,58.7457706 6.7069876,59.2935737 6.94813396,60.0884348 C7.18928032,60.8832958 6.88893625,61.7428728 6.20523775,62.2145845 C5.52153924,62.6862963 4.61132746,62.6619317 3.95384359,62.154319 C3.29635971,61.6467064 3.04243123,60.7722926 3.32575559,59.9914707 L3.32575559,59.9914707 Z" id="路径" fill="#57B894" fill-rule="nonzero"></path>
                        <path d="M3.4306243,59.6540363 C3.65231389,59.0423529 4.17047631,58.5858413 4.80521788,58.4429916 L4.96246229,59.3774791 L5.25399441,58.3960196 C6.08453884,58.4083378 6.81185631,58.9561413 7.05300239,59.7510025 C7.29414846,60.5458637 6.99380397,61.4054407 6.31010514,61.8771521 C5.62640632,62.3488636 4.71619444,62.3244984 4.05871082,61.8168853 C3.4012272,61.3092722 3.14729931,60.4348581 3.4306243,59.6540363 L3.4306243,59.6540363 Z" id="路径" stroke="#3F3D56" stroke-width="0.5"></path>
                        <path d="M4.75664106,70.0868115 C5.66927761,70.4178633 6.68505193,70.0114644 7.11748348,69.1422672 C7.54991502,68.27307 7.26135337,67.217755 6.44681425,66.6895251 L6.22280307,67.443743 L6.0639581,66.4982416 C6.0623886,66.4975012 6.06076352,66.4968848 6.05909777,66.496398 C5.41758095,66.263118 4.70033086,66.3899968 4.17777324,66.8291971 C3.65521562,67.2683974 3.40682515,67.9531223 3.52625283,68.6252089 C3.64568051,69.2972955 4.11476283,69.8545277 4.75664106,70.0868115 L4.75664106,70.0868115 Z" id="路径" fill="#57B894" fill-rule="nonzero"></path>
                        <path d="M4.84750559,69.7450265 C5.76014213,70.0760784 6.77591646,69.6696795 7.208348,68.8004823 C7.64077955,67.9312851 7.35221789,66.8759701 6.53767877,66.3477402 L6.3136676,67.1019581 L6.15482263,66.1564553 C6.15325312,66.1557149 6.15162804,66.1550984 6.14996229,66.1546117 C5.15849662,65.7949482 4.06319002,66.3071251 3.70352654,67.2985908 C3.34386305,68.2900565 3.85603992,69.385363 4.84750559,69.7450265 L4.84750559,69.7450265 Z" id="路径" stroke="#3F3D56" stroke-width="0.5"></path>
                        <path d="M2.76843575,73.2583589 C2.92465759,74.1472767 3.68213066,74.8052864 4.58416022,74.8356618 C5.48618978,74.8660372 6.28621296,74.2604753 6.50188076,73.3840807 C6.71754856,72.5076862 6.28990983,71.6000148 5.47679601,71.2083186 C4.66368218,70.8166224 3.68735168,71.0479686 3.13645251,71.7628743 L3.9873338,73.0435601 L2.82471089,72.3638115 C2.73456588,72.653181 2.71526585,72.9599736 2.76843575,73.2583589 L2.76843575,73.2583589 Z" id="路径" fill="#57B894" fill-rule="nonzero"></path>
                        <path d="M2.8470852,73.0052835 C3.00330703,73.8942012 3.76078011,74.552211 4.66280966,74.5825864 C5.56483922,74.6129618 6.3648624,74.0073999 6.5805302,73.1310053 C6.796198,72.2546108 6.36855927,71.3469393 5.55544545,70.9552432 C4.74233162,70.563547 3.76600112,70.7948932 3.21510196,71.5097989 L4.06598324,72.7904846 L2.90335894,72.110736 C2.81321439,72.4001057 2.79391484,72.7068983 2.8470852,73.0052835 L2.8470852,73.0052835 Z" id="路径" stroke="#3F3D56" stroke-width="0.5"></path>
                        <ellipse id="椭圆形" fill="#2F2E41" fill-rule="nonzero" cx="67.1712291" cy="44.5692039" rx="2.37430168" ry="3.0726257"></ellipse>
                        <ellipse id="椭圆形" fill="#2F2E41" fill-rule="nonzero" cx="80.0902235" cy="44.6390363" rx="2.37430168" ry="3.0726257"></ellipse>
                        <path d="M78.274581,53.7172486 C78.274581,55.1055168 76.3360335,56.2312151 73.9449721,56.2312151 C71.5539106,56.2312151 69.6153631,55.1055168 69.6153631,53.7172486 C69.6153631,52.5147346 71.0692737,51.509148 73.0120112,51.263338 C73.3213117,51.2225446 73.6329941,51.2024812 73.9449721,51.2032453 C74.4677265,51.2015957 74.9890602,51.2578042 75.4994413,51.3708799 C77.1223464,51.7326117 78.274581,52.6474162 78.274581,53.7172486 Z" id="路径" fill="#2F2E41" fill-rule="nonzero"></path>
                        <ellipse id="椭圆形" stroke="#3F3D56" stroke-width="0.5" cx="67.7298883" cy="43.8708799" rx="2.37430168" ry="3.0726257"></ellipse>
                        <ellipse id="椭圆形" stroke="#3F3D56" stroke-width="0.5" cx="80.6488827" cy="43.9407123" rx="2.37430168" ry="3.0726257"></ellipse>
                        <ellipse id="椭圆形" stroke="#3F3D56" stroke-width="0.5" cx="74.5036313" cy="53.0189246" rx="4.32960894" ry="2.51396648"></ellipse>
                        <path d="M75.5511316,51.5803771 C75.5522489,51.7560089 75.48631,51.9254517 75.3667598,52.0541201 C75.2526118,52.1787311 75.0916142,52.2500156 74.9226257,52.2507682 L73.5259777,52.2507682 C73.1677098,52.2382964 72.8868419,51.9387039 72.897486,51.5803771 C72.8967571,51.4442078 72.9366293,51.3109111 73.0120112,51.1975084 C73.3210807,51.154012 73.632858,51.1326048 73.9449721,51.1334497 C74.4683545,51.1317258 74.9901141,51.1917305 75.4994413,51.3122207 C75.5339151,51.3974028 75.5514672,51.4884842 75.5511316,51.5803771 Z" id="路径" fill="#FFFFFF" fill-rule="nonzero"></path>
                        <circle id="椭圆形" fill="#FFFFFF" fill-rule="nonzero" cx="67.7298883" cy="43.0328911" r="1"></circle>
                        <circle id="椭圆形" fill="#FFFFFF" fill-rule="nonzero" cx="80.7187151" cy="43.0328911" r="1"></circle>
                        <circle id="椭圆形" fill="#A67E64" fill-rule="nonzero" opacity="0.3" cx="81.4170391" cy="49.5971369" r="1"></circle>
                        <circle id="椭圆形" fill="#A67E64" fill-rule="nonzero" opacity="0.3" cx="64.377933" cy="49.5971369" r="1"></circle>
                    </g>
                </g>
            </g>
        </g>
    </g>
</svg>
