<?xml version="1.0" encoding="UTF-8"?>
<svg width="150px" height="94px" viewBox="0 0 150 94" version="1.1" xmlns="http://www.w3.org/2000/svg" xmlns:xlink="http://www.w3.org/1999/xlink">
    <title>no_Internet_icon</title>
    <g id="页面-1" stroke="none" stroke-width="1" fill="none" fill-rule="evenodd">
        <g id="广告主_无网" transform="translate(-741.000000, -424.000000)">
            <g id="bottom" transform="translate(216.000000, 300.000000)">
                <g id="编组-4" transform="translate(505.000000, 124.000000)">
                    <g id="no_Internet_icon" transform="translate(20.000000, 0.000000)">
                        <circle id="椭圆形" fill="#F2F2F2" fill-rule="nonzero" cx="39.1887201" cy="28.5267857" r="28.5267857"></circle>
                        <path d="M0,6.84942455 C0,17.2286063 6.51135268,25.6273071 14.5581335,25.6273071" id="路径" fill="#2F2E41" fill-rule="nonzero"></path>
                        <path d="M14.5581335,25.6273071 C14.5581335,15.1315058 21.8244281,6.6384375 30.8041674,6.6384375" id="路径" fill="#A67E64" fill-rule="nonzero"></path>
                        <path d="M5.27468571,7.79031429 C5.27468571,17.6494339 9.42685313,25.6273071 14.5581335,25.6273071" id="路径" fill="#A67E64" fill-rule="nonzero"></path>
                        <path d="M14.5581335,25.6273071 C14.5581335,12.2160054 22.9568344,1.36375179 33.3360161,1.36375179" id="路径" fill="#2F2E41" fill-rule="nonzero"></path>
                        <path d="M11.4954777,25.7596942 C11.4954777,25.7596942 13.5600603,25.6961062 14.1822737,25.2530424 C14.8044871,24.8099786 17.3581219,24.2809219 17.5124786,24.9915094 C17.6668353,25.7020969 20.6151629,28.5256446 18.2842594,28.5444469 C15.9533558,28.5632491 12.868275,28.1813665 12.2472589,27.8030866 C11.6262429,27.4248067 11.4954777,25.7596942 11.4954777,25.7596942 Z" id="路径" fill="#A8A8A8" fill-rule="nonzero"></path>
                        <path d="M18.3258629,28.2970835 C15.9949594,28.3158897 12.9098813,27.9340112 12.2888638,27.5557246 C11.8159272,27.2676442 11.627467,26.2339232 11.5644094,25.7570062 C11.5207393,25.7588813 11.4954857,25.7596848 11.4954857,25.7596848 C11.4954857,25.7596848 11.6262509,27.4247866 12.2472683,27.8030732 C12.8682857,28.1813598 15.9533625,28.5632371 18.2842674,28.5444308 C18.9571058,28.539004 19.1895174,28.2996187 19.1767554,27.9450656 C19.0832759,28.1592857 18.8266607,28.2930455 18.3258629,28.2970835 Z" id="路径" fill="#000000" fill-rule="nonzero" opacity="0.2"></path>
                        <ellipse id="椭圆形" fill="#3F3D56" fill-rule="nonzero" cx="26.5994344" cy="56.8526786" rx="25.0446429" ry="3.40713348"></ellipse>
                        <ellipse id="椭圆形" fill="#000000" fill-rule="nonzero" opacity="0.1" cx="26.5994344" cy="56.8526786" rx="21.0267857" ry="2.86053482"></ellipse>
                        <ellipse id="椭圆形" fill="#3F3D56" fill-rule="nonzero" cx="112.045863" cy="88.4598214" rx="37.9017857" ry="5.15625"></ellipse>
                        <ellipse id="椭圆形" fill="#3F3D56" fill-rule="nonzero" cx="41.5994344" cy="86.4508929" rx="22.7678571" ry="3.0973942"></ellipse>
                        <path d="M61.9565772,83.8392857 C74.0101487,86.9196429 97.1797915,79.8214286 99.7244344,71.7857143" id="路径" stroke="#2F2E41" stroke-width="0.5"></path>
                        <path d="M41.4655058,34.6875 C41.4655058,34.6875 58.8762201,29.8660714 59.9476487,45.4017857 C61.0190772,60.9375 45.6172915,65.3571429 57.6708629,68.4375" id="路径" stroke="#2F2E41" stroke-width="0.5"></path>
                        <path d="M24.6443893,71.9575875 C24.6443893,71.9575875 29.8772866,70.5084804 30.1993112,75.1778317 C30.5213357,79.847183 25.8922339,81.1755375 29.5150085,82.1013576" id="路径" stroke="#2F2E41" stroke-width="0.5"></path>
                        <path d="M104.290801,75.4339125 L103.235774,82.1698728 C103.235774,82.1698728 98.0417799,84.9291817 101.693807,85.0103384 C105.345834,85.0914951 122.550938,85.0103384 122.550938,85.0103384 C122.550938,85.0103384 125.878341,85.0103384 120.60319,82.0887161 L119.54816,75.0281357 L104.290801,75.4339125 Z" id="路径" fill="#2F2E41" fill-rule="nonzero"></path>
                        <path d="M100.95913,84.9372482 C101.78855,84.1992496 103.235768,83.4302839 103.235768,83.4302839 L104.290799,76.6943196 L119.548156,76.7086728 L120.603186,83.3491192 C121.83332,84.0304286 122.59536,84.5527353 123.041171,84.9533397 C123.718692,84.7987567 124.459094,84.2242955 120.603186,82.0887134 L119.548156,75.028133 L104.290799,75.4339138 L103.235774,82.1698741 C103.235774,82.1698741 98.8712893,84.4887964 100.95913,84.9372482 Z" id="路径" fill="#000000" fill-rule="nonzero" opacity="0.1"></path>
                        <rect id="矩形" fill="#2F2E41" fill-rule="nonzero" x="77.4686933" y="28.485079" width="68.7392598" height="47.8821281" rx="2.41683214"></rect>
                        <rect id="矩形" fill="#3F3D56" fill-rule="nonzero" x="79.7816438" y="31.0414982" width="64.1133589" height="35.8710187"></rect>
                        <circle id="椭圆形" fill="#F2F2F2" fill-rule="nonzero" cx="111.838323" cy="29.9053112" r="1"></circle>
                        <path d="M146.207953,69.7529812 L146.207953,73.950375 C146.207953,74.5913835 145.95343,75.206161 145.500168,75.6594225 C145.046907,76.1126839 144.432129,76.3672878 143.791121,76.3672072 L79.8855268,76.3672072 C79.2445181,76.3672881 78.6297402,76.1126844 78.1764785,75.6594229 C77.7232167,75.2061615 77.4686933,74.5913837 77.4686933,73.950375 L77.4686933,69.7529812 L146.207953,69.7529812 Z" id="路径" fill="#2F2E41" fill-rule="nonzero"></path>
                        <polygon id="路径" fill="#2F2E41" fill-rule="nonzero" points="129.773839 89.3927679 129.773839 90.204375 86.1117857 90.204375 86.1117857 89.5550893 86.1719196 89.3927679 87.2480357 86.4711161 128.881071 86.4711161"></polygon>
                        <path d="M146.576399,88.5982487 C146.496868,88.9382933 146.196589,89.2970116 145.518125,89.6362379 C143.083437,90.8535804 138.132915,89.3116138 138.132915,89.3116138 C138.132915,89.3116138 134.318575,88.6623643 134.318575,86.9580871 C134.425676,86.8847482 134.537358,86.8183363 134.652939,86.759258 C135.676547,86.2177165 139.070504,84.8814161 145.088345,86.8158402 C145.531685,86.9550005 145.927687,87.2145095 146.232237,87.5654585 C146.476097,87.8509192 146.667295,88.2130112 146.576399,88.5982487 Z" id="路径" fill="#2F2E41" fill-rule="nonzero"></path>
                        <path d="M146.576399,88.5982487 C143.596354,89.7401237 140.940108,89.825329 138.214071,87.931954 C136.839285,86.9775562 135.590292,86.7413893 134.652939,86.7592513 C135.676547,86.2177098 139.070504,84.8814094 145.088345,86.8158335 C145.531685,86.9549938 145.927687,87.2145028 146.232237,87.5654518 C146.476097,87.8509192 146.667295,88.2130112 146.576399,88.5982487 Z" id="路径" fill="#000000" fill-rule="nonzero" opacity="0.1"></path>
                        <ellipse id="椭圆形" fill="#F2F2F2" fill-rule="nonzero" cx="142.839972" cy="87.6073353" rx="1.05503036" ry="1"></ellipse>
                        <circle id="椭圆形" fill="#F2F2F2" fill-rule="nonzero" cx="111.838323" cy="73.080383" r="1.54196652"></circle>
                        <polygon id="路径" fill="#000000" fill-rule="nonzero" opacity="0.1" points="129.773839 89.3927679 129.773839 90.204375 86.1117857 90.204375 86.1117857 89.5550893 86.1719196 89.3927679"></polygon>
                        <rect id="矩形" fill="#2F2E41" fill-rule="nonzero" x="14.5458629" y="21.2946429" width="27.8571429" height="32.4107143"></rect>
                        <rect id="矩形" fill="#3F3D56" fill-rule="nonzero" x="11.7333629" y="18.0803571" width="33.4821429" height="11.5178571"></rect>
                        <rect id="矩形" fill="#3F3D56" fill-rule="nonzero" x="11.7333629" y="31.7410714" width="33.4821429" height="11.5178571"></rect>
                        <rect id="矩形" fill="#3F3D56" fill-rule="nonzero" x="11.7333629" y="45.4017857" width="33.4821429" height="11.5178571"></rect>
                        <rect id="矩形" fill="#A67E64" fill-rule="nonzero" opacity="0.4" x="36.3762201" y="20.0892857" width="2.14285714" height="2.14285714"></rect>
                        <rect id="矩形" fill="#A67E64" fill-rule="nonzero" opacity="0.8" x="39.4565772" y="20.0892857" width="2.14285714" height="2.14285714"></rect>
                        <rect id="矩形" fill="#A67E64" fill-rule="nonzero" x="42.5369344" y="20.0892857" width="2.14285714" height="2.14285714"></rect>
                        <rect id="矩形" fill="#A67E64" fill-rule="nonzero" opacity="0.4" x="36.3762201" y="33.6160714" width="2.14285714" height="2.14285714"></rect>
                        <rect id="矩形" fill="#A67E64" fill-rule="nonzero" opacity="0.8" x="39.4565772" y="33.6160714" width="2.14285714" height="2.14285714"></rect>
                        <rect id="矩形" fill="#A67E64" fill-rule="nonzero" x="42.5369344" y="33.6160714" width="2.14285714" height="2.14285714"></rect>
                        <rect id="矩形" fill="#A67E64" fill-rule="nonzero" opacity="0.4" x="36.3762201" y="47.1428571" width="2.14285714" height="2.14285714"></rect>
                        <rect id="矩形" fill="#A67E64" fill-rule="nonzero" opacity="0.8" x="39.4565772" y="47.1428571" width="2.14285714" height="2.14285714"></rect>
                        <rect id="矩形" fill="#A67E64" fill-rule="nonzero" x="42.5369344" y="47.1428571" width="2.14285714" height="2.14285714"></rect>
                        <circle id="椭圆形" fill="#2F2E41" fill-rule="nonzero" cx="42.4030058" cy="72.0535714" r="10.5803571"></circle>
                        <rect id="矩形" fill="#2F2E41" fill-rule="nonzero" x="37.5815772" y="80.3571429" width="3.21428571" height="5.75892857"></rect>
                        <rect id="矩形" fill="#2F2E41" fill-rule="nonzero" x="44.0101487" y="80.3571429" width="3.21428571" height="5.75892857"></rect>
                        <ellipse id="椭圆形" fill="#2F2E41" fill-rule="nonzero" cx="40.2601487" cy="86.1830357" rx="2.67857143" ry="1.00446429"></ellipse>
                        <ellipse id="椭圆形" fill="#2F2E41" fill-rule="nonzero" cx="46.6887201" cy="86.0491071" rx="2.67857143" ry="1.00446429"></ellipse>
                        <circle id="椭圆形" fill="#FFFFFF" fill-rule="nonzero" cx="42.6708629" cy="69.375" r="3.61607143"></circle>
                        <circle id="椭圆形" fill="#3F3D56" fill-rule="nonzero" cx="42.6708629" cy="69.375" r="1.20535714"></circle>
                        <path d="M32.1397018,62.2141446 C31.2853862,58.3881295 34.0162888,54.5221018 38.2393446,53.5791308 C42.4624004,52.6361598 46.5784205,54.9733272 47.4327375,58.7993451 C48.2870545,62.6253629 45.4882808,64.0364598 41.2652263,64.9794308 C37.0421719,65.9224018 32.9940174,66.0401598 32.1397018,62.2141446 Z" id="路径" fill="#A67E64" fill-rule="nonzero"></path>
                        <ellipse id="椭圆形" fill="#2F2E41" fill-rule="nonzero" transform="translate(51.672884, 68.416564) rotate(-23.171160) translate(-51.672884, -68.416564) " cx="51.6728839" cy="68.4165635" rx="5.29017857" ry="1.66075045"></ellipse>
                        <ellipse id="椭圆形" fill="#2F2E41" fill-rule="nonzero" transform="translate(31.851455, 75.514778) rotate(-23.171160) translate(-31.851455, -75.514778) " cx="31.8514551" cy="75.5147777" rx="5.29017857" ry="1.66075045"></ellipse>
                        <path d="M48.5637201,75.1339286 C48.5637201,76.1694643 45.8973884,78.2142857 42.9387201,78.2142857 C39.9800518,78.2142857 37.1797915,76.3033929 37.1797915,75.2678571 C37.1797915,74.2323214 39.9800518,74.4642857 42.9387201,74.4642857 C45.8973884,74.4642857 48.5637201,74.0983929 48.5637201,75.1339286 Z" id="路径" fill="#FFFFFF" fill-rule="nonzero"></path>
                    </g>
                </g>
            </g>
        </g>
    </g>
</svg>
